<svg width="65" height="52" viewBox="0 0 65 52" fill="none" xmlns="http://www.w3.org/2000/svg">
<g clip-path="url(#clip0_524_225)">
<path d="M0.877441 5.61708C0.877441 2.99402 3.01213 0.867676 5.64547 0.867676H37.4323C40.0647 0.867676 42.2004 2.99402 42.2004 5.61708V10.3665H47.2366C48.9253 10.3665 50.455 11.0294 51.7364 12.2168L59.4149 19.8653C60.607 21.0526 61.2725 22.6655 61.2725 24.3475V35.6966C63.0307 35.6966 64.4512 37.1116 64.4512 38.8629C64.4512 40.6143 63.0307 42.0292 61.2725 42.0292H58.0938C58.0938 47.2733 53.8224 51.528 48.5577 51.528C43.2036 51.528 39.0217 47.2733 39.0217 42.0292H26.3069C26.3069 47.2733 22.0356 51.528 16.7709 51.528C11.4168 51.528 7.23482 47.2733 7.23482 42.0292H5.64547C3.01213 42.0292 0.877441 39.9019 0.877441 37.2798V5.61708ZM54.9151 26.1978V24.3475L47.2366 16.699H42.2004V26.1978H54.9151ZM16.7709 46.7786C19.4032 46.7786 21.5389 44.6513 21.5389 42.0292C21.5389 39.4071 19.4032 37.2798 16.7709 37.2798C14.1385 37.2798 12.0028 39.4071 12.0028 42.0292C12.0028 44.6513 14.1385 46.7786 16.7709 46.7786ZM48.5577 37.2798C45.9254 37.2798 43.7897 39.4071 43.7897 42.0292C43.7897 44.6513 45.9254 46.7786 48.5577 46.7786C51.1901 46.7786 53.3258 44.6513 53.3258 42.0292C53.3258 39.4071 51.1901 37.2798 48.5577 37.2798ZM26.3169 10.2705C25.4725 9.34339 23.9627 9.34339 23.0289 10.2705C22.1051 11.1976 22.1051 12.7016 23.0289 13.5427L26.9129 17.4906H10.4135C9.09733 17.4906 8.02949 18.5493 8.02949 19.8653C8.02949 21.1813 9.09733 22.24 10.4135 22.24H26.9129L23.0289 26.0989C22.1051 27.029 22.1051 28.533 23.0289 29.374C23.9627 30.3833 25.4725 30.3833 26.3169 29.374L34.2636 21.4583C35.2768 20.6173 35.2768 19.1133 34.2636 18.1832L26.3169 10.2705Z" fill="white"/>
</g>
<defs>
<clipPath id="clip0_524_225">
<rect width="63.5737" height="50.6603" fill="white" transform="translate(0.877441 0.867676)"/>
</clipPath>
</defs>
</svg>
