<svg width="43" height="43" viewBox="0 0 43 43" fill="none" xmlns="http://www.w3.org/2000/svg">
<g clip-path="url(#clip0_524_227)">
<path d="M42.3274 8.6595V34.7265C42.3274 36.1664 41.1598 37.2607 39.7933 37.2607C38.2776 37.2664 37.1124 36.1664 37.1124 34.6589V23.9844L23.1378 36.7368C21.4592 38.1301 18.8598 36.9568 18.8598 34.6589V23.9844L4.88513 36.7368C3.20492 38.1301 0.607178 36.9568 0.607178 34.6589V8.6595C0.607178 6.42926 3.20492 5.25832 4.88513 6.65335L18.8598 19.3153V8.6595C18.8598 6.42926 21.4575 5.25832 23.1378 6.65335L37.1124 19.3153V8.6595C37.1124 7.21966 38.2801 6.12532 39.6466 6.12532C41.1622 6.05199 42.3274 7.21966 42.3274 8.6595Z" fill="white"/>
</g>
<defs>
<clipPath id="clip0_524_227">
<rect width="41.7203" height="41.7203" fill="white" transform="translate(0.607178 0.834473)"/>
</clipPath>
</defs>
</svg>
