<svg width="57" height="51" viewBox="0 0 57 51" fill="none" xmlns="http://www.w3.org/2000/svg">
<g clip-path="url(#clip0_524_229)">
<path d="M56.1495 13.8349C56.1495 15.9778 54.4198 17.7152 52.2865 17.7152C52.2626 17.7152 52.2426 17.7029 52.2186 17.7025L47.3396 44.6604C47.0715 46.1282 45.7967 47.2049 44.2998 47.2049H12.3722C10.8791 47.2049 9.59855 46.1321 9.33201 44.6566L4.45402 17.7055C4.42988 17.7055 4.4096 17.7152 4.29853 17.7152C2.1652 17.7152 0.435547 15.9778 0.435547 13.8349C0.435547 11.6921 2.25212 9.95471 4.29853 9.95471C6.34495 9.95471 8.16152 11.6921 8.16152 13.8349C8.16152 14.7078 7.82148 15.4734 7.33707 16.1214L15.9931 23.0767C17.5296 24.3116 19.8078 23.8085 20.6875 22.0407L26.2503 10.8656C25.1587 10.1817 24.3861 9.01763 24.3861 7.62657C24.3861 5.48371 26.2017 3.74634 28.336 3.74634C30.4703 3.74634 32.112 5.48371 32.112 7.62657C32.112 9.01763 31.343 10.1817 30.2482 10.8666L35.8109 22.0416C36.6908 23.8091 38.9698 24.3116 40.5054 23.0777L49.1613 16.1223C48.7615 15.4743 48.4235 14.6207 48.4235 13.8349C48.4235 11.6911 50.1522 9.95471 52.2865 9.95471C54.4208 9.95471 56.1495 11.6911 56.1495 13.8349Z" fill="white"/>
</g>
<defs>
<clipPath id="clip0_524_229">
<rect width="55.627" height="49.667" fill="white" transform="translate(0.522461 0.64209)"/>
</clipPath>
</defs>
</svg>
