<svg width="124" height="28" viewBox="0 0 124 28" fill="none" xmlns="http://www.w3.org/2000/svg">
<path fill-rule="evenodd" clip-rule="evenodd" d="M0.609022 0.51239V27.123H19.9554L22.4941 25.8354L23.9823 23.7752V21.5434C24.0597 19.4209 24.059 18.4851 23.9823 17.2513L23.1944 15.5345L21.7938 14.2469L20.6557 13.5602L21.7938 12.3584L22.4941 11.5L23.1944 10.3841L23.9823 8.66726V4.80442L23.1944 3.43097L22.2315 2.14336L21.0059 0.941593L19.9554 0.51239C11.9238 0.306084 0.609022 0.51239 0.609022 0.51239ZM31.7734 0.51239H35.9753V27.123H31.7734V0.51239ZM40.5274 0.51239V4.80442H50.507V27.123H55.9345V4.80442H65.0387V0.51239H40.5274ZM70.116 27.123V0.51239H91.7384V4.80442H75.3684V10.6416H84.8228V15.6204H75.3684V22.5735H91.7384V27.123H70.116ZM96.3781 0.51239H102.243L109.597 9.86903L116.863 0.51239H121.502L112.836 12.5301L123.953 27.123H117.65L109.597 17.1655L102.243 27.123H96.3781L106.62 12.5301L96.3781 0.51239ZM4.98604 4.80442V11.1566H18.3797L19.5177 9.86903L20.3056 8.66726V6.26372L19.2551 4.80442L17.942 4.1177H4.98604V4.80442ZM17.942 15.1912H4.98604V23.7752H17.942L19.2551 22.6593L19.9554 21.0283V18.0239L19.5177 16.4788L17.942 15.1912Z" fill="white"/>
</svg>
