<svg width="71" height="71" viewBox="0 0 71 71" fill="none" xmlns="http://www.w3.org/2000/svg">
<path d="M63.3462 15.5159C63.3462 17.5075 61.7648 19.3422 59.0997 20.824C55.8816 22.6045 51.0932 23.8652 45.5749 24.2412C45.1768 24.0532 44.7566 23.8652 44.3363 23.6882C39.9682 21.8635 34.1734 20.824 27.9585 20.824C27.0406 20.824 26.1448 20.8462 25.2491 20.8904L25.1274 20.824C22.4623 19.3422 20.8809 17.5075 20.8809 15.5159C20.8809 10.6302 30.2918 6.66895 42.1136 6.66895C53.8357 6.66895 63.3462 10.6302 63.3462 15.5159ZM24.4971 24.4845C25.6251 24.407 26.7752 24.3628 27.9585 24.3628C34.837 24.3628 40.9413 25.723 44.8229 27.8352C47.5655 29.3281 49.1911 31.186 49.1911 33.2097C49.1911 33.5526 49.1137 34.0834 48.9589 34.5036C48.4502 35.9633 46.9904 37.3014 45.0883 38.4405C45.0773 38.4405 45.0552 38.4515 45.0441 38.4626C45.0109 38.4847 44.9777 38.4958 44.9446 38.5179C41.074 40.6633 34.9033 42.0567 27.9585 42.0567C21.3675 42.0567 15.4688 40.807 11.5739 38.8386C11.3672 38.728 11.1659 38.529 10.9713 38.5179C8.30501 37.036 6.72583 35.2003 6.72583 33.2097C6.72583 29.3613 12.6345 26.0769 20.8809 24.8715C22.0421 24.6946 23.2475 24.5619 24.4971 24.4845ZM50.0647 27.3044C53.1943 26.8178 56.0585 26.0437 58.4914 25.0374C60.294 24.2854 61.9639 23.3565 63.3462 22.2174V26.1322C63.3462 28.2665 61.5215 30.235 58.5025 31.7611C56.8769 32.5794 54.9195 33.265 52.7078 33.7958C52.7188 33.6079 52.7299 33.4088 52.7299 33.2097C52.7299 30.7879 51.5577 28.7973 50.0647 27.3044ZM49.1911 43.8261C49.1911 45.8166 47.6097 47.6524 44.9446 49.1342C44.7455 49.1453 44.5465 49.3443 44.3474 49.4549C40.4437 51.4234 34.5494 52.673 27.9585 52.673C21.0136 52.673 14.8451 51.2796 10.9713 49.1342C8.30501 47.6524 6.72586 45.8166 6.72586 43.8261V39.9113C8.10263 41.0503 9.78023 41.9793 11.5839 42.7313C15.9532 44.5559 21.7435 45.5954 27.9585 45.5954C34.1734 45.5954 39.9682 44.5559 44.3363 42.7313C45.1989 42.3774 46.0283 41.9682 46.8135 41.5259C47.4881 41.1499 48.1184 40.7296 48.7156 40.2873C48.8815 40.1656 49.0363 40.0329 49.1911 39.9113V43.8261ZM52.7299 37.4231C54.7315 36.8702 56.7663 36.3725 58.4914 35.6537C60.294 34.9017 61.9639 33.9728 63.3462 32.8337V36.7485C63.3462 37.9097 62.7933 39.0708 61.6985 40.1656C59.8959 41.9682 56.722 43.4501 52.7078 44.4122C52.7188 44.2242 52.7299 44.0251 52.7299 43.8261V37.4231ZM27.9585 56.2118C34.1734 56.2118 39.9682 55.1722 44.3363 53.3476C46.1389 52.5956 47.8088 51.6667 49.1911 50.5276V54.4424C49.1911 59.3303 39.6806 63.2893 27.9585 63.2893C16.2319 63.2893 6.72586 59.3303 6.72586 54.4424V50.5276C8.10263 51.6667 9.78023 52.5956 11.5839 53.3476C15.9532 55.1722 21.7435 56.2118 27.9585 56.2118Z" fill="white"/>
</svg>
