<svg width="141" height="155" viewBox="0 0 141 155" fill="none" xmlns="http://www.w3.org/2000/svg">
<path fill-rule="evenodd" clip-rule="evenodd" d="M140.193 0.205872H123.175L0.649109 133.794V154.498L140.193 0.205872ZM0.649109 93.2351V113.089L106.158 0.205872H87.4386L0.649109 93.2351ZM56.807 0.205872H74.959L0.649109 81.3228V64.8725L56.807 0.205872ZM43.7602 0.205872H27.8772L0.649109 30.8375V50.124L43.7602 0.205872ZM0.649109 0.205872H15.6813L0.649109 16.0889V0.205872ZM15.3976 154.498H30.7134L140.193 34.241V16.0889L15.3976 154.498ZM56.807 154.498H43.7602L140.193 50.124V64.8725L56.807 154.498ZM72.1228 154.498H87.4386L140.193 97.7731V81.3228L72.1228 154.498ZM115.234 154.498H102.187L140.193 113.089V127.837L115.234 154.498ZM127.713 154.498H140.193V141.168L127.713 154.498Z" fill="#4D1CFB" fill-opacity="0.8"/>
</svg>
