<svg width="872" height="800" fill="none" xmlns="http://www.w3.org/2000/svg"><g filter="url(#filter0_d_375_209)" shape-rendering="crispEdges"><path d="M498.5 105.5L634 52l110 153.642 76.395 94.056L744 354l16 208H634l-45.808 107.558-118.505-8.7L385.5 728.5l-104-112.999H124l26.678-75.26-88.787-95.299L50.66 315.51l157.407-109.868 30.614-174.433L498.5 105.5z" fill="url(#paint0_linear_375_209)"/><path d="M498.5 105.5L634 52l110 153.642 76.395 94.056L744 354l16 208H634l-45.808 107.558-118.505-8.7L385.5 728.5l-104-112.999H124l26.678-75.26-88.787-95.299L50.66 315.51l157.407-109.868 30.614-174.433L498.5 105.5z" stroke="url(#paint1_linear_375_209)"/></g><defs><linearGradient id="paint0_linear_375_209" x1="486.625" y1="715.082" x2="393.16" y2="10.711" gradientUnits="userSpaceOnUse"><stop stop-color="#94F794"/><stop offset="1" stop-color="#C2F200"/></linearGradient><linearGradient id="paint1_linear_375_209" x1="420.891" y1="760.442" x2="606" y2="54.001" gradientUnits="userSpaceOnUse"><stop offset=".29" stop-color="#fff"/><stop offset="1" stop-color="#fff" stop-opacity="0"/></linearGradient><filter id="filter0_d_375_209" x=".138" y=".576" width="870.982" height="798.607" filterUnits="userSpaceOnUse" color-interpolation-filters="sRGB"><feFlood flood-opacity="0" result="BackgroundImageFix"/><feColorMatrix in="SourceAlpha" values="0 0 0 0 0 0 0 0 0 0 0 0 0 0 0 0 0 0 127 0" result="hardAlpha"/><feOffset dy="20"/><feGaussianBlur stdDeviation="25"/><feComposite in2="hardAlpha" operator="out"/><feColorMatrix values="0 0 0 0 0 0 0 0 0 0 0 0 0 0 0 0 0 0 0.5 0"/><feBlend in2="BackgroundImageFix" result="effect1_dropShadow_375_209"/><feBlend in="SourceGraphic" in2="effect1_dropShadow_375_209" result="shape"/></filter></defs></svg>