<svg width="810" height="780" fill="none" xmlns="http://www.w3.org/2000/svg"><g filter="url(#filter0_d_375_207)" shape-rendering="crispEdges"><path d="M692.55 256.45l-62.709 88.6 94.894 46.199 34.399 54.337-115.552 71.412-21.09 92.428-126.738-17.702-21.629 112.738-162.22 5.025-71.502-101.254-117.305-18.272 19.498-152.055L51.05 333.687l66.805-90.099 41.501-106.155 109.067 9.71 66.08-115.784 101.381 55.826 79.249 95.432 83.187 35.246 94.23 38.587z" fill="url(#paint0_linear_375_207)" fill-opacity=".51"/><path d="M692.55 256.45l-62.709 88.6 94.894 46.199 34.399 54.337-115.552 71.412-21.09 92.428-126.738-17.702-21.629 112.738-162.22 5.025-71.502-101.254-117.305-18.272 19.498-152.055L51.05 333.687l66.805-90.099 41.501-106.155 109.067 9.71 66.08-115.784 101.381 55.826 79.249 95.432 83.187 35.246 94.23 38.587z" stroke="url(#paint1_linear_375_207)"/></g><defs><linearGradient id="paint0_linear_375_207" x1="142.245" y1="461.566" x2="643.009" y2="256.368" gradientUnits="userSpaceOnUse"><stop stop-color="#DBFC0D"/><stop offset="1" stop-color="#FBFF00"/></linearGradient><linearGradient id="paint1_linear_375_207" x1="739.403" y1="285.807" x2="115.517" y2="475.2" gradientUnits="userSpaceOnUse"><stop stop-color="#fff" stop-opacity="0"/><stop offset="1" stop-color="#fff"/></linearGradient><filter id="filter0_d_375_207" x=".408" y=".684" width="809.419" height="779.311" filterUnits="userSpaceOnUse" color-interpolation-filters="sRGB"><feFlood flood-opacity="0" result="BackgroundImageFix"/><feColorMatrix in="SourceAlpha" values="0 0 0 0 0 0 0 0 0 0 0 0 0 0 0 0 0 0 127 0" result="hardAlpha"/><feOffset dy="20"/><feGaussianBlur stdDeviation="25"/><feComposite in2="hardAlpha" operator="out"/><feColorMatrix values="0 0 0 0 0 0 0 0 0 0 0 0 0 0 0 0 0 0 0.46 0"/><feBlend in2="BackgroundImageFix" result="effect1_dropShadow_375_207"/><feBlend in="SourceGraphic" in2="effect1_dropShadow_375_207" result="shape"/></filter></defs></svg>