<svg width="1364" height="794" fill="none" xmlns="http://www.w3.org/2000/svg"><path d="M1325.36 553h-13.72v25.642H1286v13.716h25.64V618h13.72v-25.642H1351v-13.716h-25.64V553z" stroke="#fff" stroke-width="3"/><g filter="url(#filter0_f_527_34)"><path d="M1325.36 553h-13.72v25.642H1286v13.716h25.64V618h13.72v-25.642H1351v-13.716h-25.64V553z" stroke="#fff" stroke-width="3"/></g><path d="M571.835 702h-16.67v31.165H524v16.67h31.165V781h16.67v-31.165H603v-16.67h-31.165V702z" stroke="#fff" stroke-width="3"/><g filter="url(#filter1_f_527_34)"><path d="M571.835 702h-16.67v31.165H524v16.67h31.165V781h16.67v-31.165H603v-16.67h-31.165V702z" stroke="#fff" stroke-width="3"/></g><path d="M660.499 431.152l-14.113 5.43 10.152 26.386-26.386 10.152 5.43 14.114 26.386-10.152 10.152 26.386 14.114-5.431-10.152-26.386 26.386-10.152-5.431-14.113-26.386 10.152-10.152-26.386z" fill="#fff"/><g filter="url(#filter2_f_527_34)"><path d="M660.499 431.152l-14.113 5.43 10.152 26.386-26.386 10.152 5.43 14.114 26.386-10.152 10.152 26.386 14.114-5.431-10.152-26.386 26.386-10.152-5.431-14.113-26.386 10.152-10.152-26.386z" fill="#fff"/></g><path d="M1320.75 85.696l-5.38-12.091-22.61 10.065-10.06-22.605-12.1 5.383 10.07 22.605-22.61 10.065 5.39 12.091 22.6-10.065 10.07 22.605 12.09-5.383-10.07-22.605 22.61-10.065z" fill="#fff" stroke="#fff"/><g filter="url(#filter3_f_527_34)"><path d="M1320.75 85.696l-5.38-12.091-22.61 10.065-10.06-22.605-12.1 5.383 10.07 22.605-22.61 10.065 5.39 12.091 22.6-10.065 10.07 22.605 12.09-5.383-10.07-22.605 22.61-10.065z" fill="#fff"/><path d="M1320.75 85.696l-5.38-12.091-22.61 10.065-10.06-22.605-12.1 5.383 10.07 22.605-22.61 10.065 5.39 12.091 22.6-10.065 10.07 22.605 12.09-5.383-10.07-22.605 22.61-10.065z" stroke="#fff"/></g><path d="M76.135 650.766l1.695-13.497-25.234-3.17 3.17-25.234-13.497-1.695-3.17 25.234-25.233-3.17-1.696 13.497 25.234 3.17-3.17 25.233 13.497 1.696 3.17-25.234 25.233 3.17z" fill="#fff" stroke="#fff"/><g filter="url(#filter4_f_527_34)"><path d="M76.135 650.766l1.695-13.497-25.234-3.17 3.17-25.234-13.497-1.695-3.17 25.234-25.233-3.17-1.696 13.497 25.234 3.17-3.17 25.233 13.497 1.696 3.17-25.234 25.233 3.17z" fill="#fff"/><path d="M76.135 650.766l1.695-13.497-25.234-3.17 3.17-25.234-13.497-1.695-3.17 25.234-25.233-3.17-1.696 13.497 25.234 3.17-3.17 25.233 13.497 1.696 3.17-25.234 25.233 3.17z" stroke="#fff"/></g><path d="M1278.78 49.66l-.08-12.776-23.89.154-.15-23.885-12.78.082.16 23.885-23.89.153.09 12.775 23.88-.153.15 23.884 12.78-.082-.16-23.884 23.89-.154z" stroke="#fff" stroke-width="3"/><g filter="url(#filter5_f_527_34)"><path d="M1278.78 49.66l-.08-12.776-23.89.154-.15-23.885-12.78.082.16 23.885-23.89.153.09 12.775 23.88-.153.15 23.884 12.78-.082-.16-23.884 23.89-.154z" stroke="#fff" stroke-width="3"/></g><defs><filter id="filter0_f_527_34" x="1273.5" y="540.5" width="90" height="90" filterUnits="userSpaceOnUse" color-interpolation-filters="sRGB"><feFlood flood-opacity="0" result="BackgroundImageFix"/><feBlend in="SourceGraphic" in2="BackgroundImageFix" result="shape"/><feGaussianBlur stdDeviation="5.5" result="effect1_foregroundBlur_527_34"/></filter><filter id="filter1_f_527_34" x="511.5" y="689.5" width="104" height="104" filterUnits="userSpaceOnUse" color-interpolation-filters="sRGB"><feFlood flood-opacity="0" result="BackgroundImageFix"/><feBlend in="SourceGraphic" in2="BackgroundImageFix" result="shape"/><feGaussianBlur stdDeviation="5.5" result="effect1_foregroundBlur_527_34"/></filter><filter id="filter2_f_527_34" x="619.152" y="420.152" width="94.316" height="94.316" filterUnits="userSpaceOnUse" color-interpolation-filters="sRGB"><feFlood flood-opacity="0" result="BackgroundImageFix"/><feBlend in="SourceGraphic" in2="BackgroundImageFix" result="shape"/><feGaussianBlur stdDeviation="5.5" result="effect1_foregroundBlur_527_34"/></filter><filter id="filter3_f_527_34" x="1246.4" y="49.405" width="86.005" height="86.005" filterUnits="userSpaceOnUse" color-interpolation-filters="sRGB"><feFlood flood-opacity="0" result="BackgroundImageFix"/><feBlend in="SourceGraphic" in2="BackgroundImageFix" result="shape"/><feGaussianBlur stdDeviation="5.5" result="effect1_foregroundBlur_527_34"/></filter><filter id="filter4_f_527_34" x=".612" y="595.611" width="88.777" height="88.777" filterUnits="userSpaceOnUse" color-interpolation-filters="sRGB"><feFlood flood-opacity="0" result="BackgroundImageFix"/><feBlend in="SourceGraphic" in2="BackgroundImageFix" result="shape"/><feGaussianBlur stdDeviation="5.5" result="effect1_foregroundBlur_527_34"/></filter><filter id="filter5_f_527_34" x="1205.64" y=".644" width="85.645" height="85.645" filterUnits="userSpaceOnUse" color-interpolation-filters="sRGB"><feFlood flood-opacity="0" result="BackgroundImageFix"/><feBlend in="SourceGraphic" in2="BackgroundImageFix" result="shape"/><feGaussianBlur stdDeviation="5.5" result="effect1_foregroundBlur_527_34"/></filter></defs></svg>