<svg width="431" height="4818" fill="none" xmlns="http://www.w3.org/2000/svg"><path d="M415.251 524.935l-90.65 89.709m0 0l-24.994-206.612m24.994 206.612l90.65 75.581m-90.65-75.581l-45.884-35.291m20.89-171.321l-132.804-87.589m132.804 87.589l30.963 21.191m-30.963-21.191l-167.871 58.275m283.515 13.421l-84.681-50.505m-163.767-108.78l-13.057-88.649m13.057 88.649L89.581 453.239m77.222-132.796L42.578 306.624m124.225 13.819l132.804-68.164M17.584 303.843l24.994 2.781M16 281.24l137.746-49.446m0 0l145.861 20.485m-145.861-20.485L17.584 158.686m136.162 73.108L51.158 101.823m248.449 150.456l-100.722-60.747m100.722 60.747l73.49 42.735m-73.49-42.735l30.963 176.944m-279.411-327.4l-33.575 13.421m33.575-13.421l95.499-36.024m-95.5 36.024l83.563 51.212M17.584 30.834l129.074 34.965m0 0L130.244 16m16.414 49.799L220.894 16m-74.236 49.799l31.336 2.71M318.073 16l-20.331 62.866m0 0L177.994 68.51m119.748 10.357l-98.857 112.666m98.857-112.666l14.549 112.666M297.742 78.866l20.331-20.131m-140.079 9.774l-43.273 84.526m0 0l64.164 38.497m0 0h113.406m0 0l64.537-44.927m-64.537 44.927l60.806 103.482m42.154-147.63l-14.175-17.659-24.248 16.88m0 0l-58.755-87.87m0 0L362.279 16m52.972 209.437l-42.154 69.577m0 0l42.154 25.429m-84.681 108.78l84.681-67.458M131.736 466.307l-60.433 18.366m60.433-18.366L57.5 659.851m74.236-193.544l146.981 113.046m-207.414-94.68l-53.719 19.778m53.719-19.778l18.278-31.434m0 0L42.578 306.624m47.003 146.615l-71.997-49.092M57.5 659.851l-39.916-65.692M57.5 659.851l221.217-80.498M57.5 659.851l131.685 114.078M57.5 659.851l-39.916 49.092m261.133-129.59l-89.532 194.576m89.532-194.576l74.609 208.703h19.771l42.154-48.916m-226.066 34.789l-35.812 14.127m35.812-14.127l52.973 14.127" stroke="url(#paint0_linear_406_2106)" stroke-opacity=".48"/><g filter="url(#filter0_f_406_2106)"><path d="M415.251 524.935l-90.65 89.709m0 0l-24.994-206.612m24.994 206.612l90.65 75.581m-90.65-75.581l-45.884-35.291m20.89-171.321l-132.804-87.589m132.804 87.589l30.963 21.191m-30.963-21.191l-167.871 58.275m283.515 13.421l-84.681-50.505m-163.767-108.78l-13.057-88.649m13.057 88.649L89.581 453.239m77.222-132.796L42.578 306.624m124.225 13.819l132.804-68.164M17.584 303.843l24.994 2.781M16 281.24l137.746-49.446m0 0l145.861 20.485m-145.861-20.485L17.584 158.686m136.162 73.108L51.158 101.823m248.449 150.456l-100.722-60.747m100.722 60.747l73.49 42.735m-73.49-42.735l30.963 176.944m-279.411-327.4l-33.575 13.421m33.575-13.421l95.499-36.024m-95.5 36.024l83.563 51.212M17.584 30.834l129.074 34.965m0 0L130.244 16m16.414 49.799L220.894 16m-74.236 49.799l31.336 2.71M318.073 16l-20.331 62.866m0 0L177.994 68.51m119.748 10.357l-98.857 112.666m98.857-112.666l14.549 112.666M297.742 78.866l20.331-20.131m-140.079 9.774l-43.273 84.526m0 0l64.164 38.497m0 0h113.406m0 0l64.537-44.927m-64.537 44.927l60.806 103.482m42.154-147.63l-14.175-17.659-24.248 16.88m0 0l-58.755-87.87m0 0L362.279 16m52.972 209.437l-42.154 69.577m0 0l42.154 25.429m-84.681 108.78l84.681-67.458M131.736 466.307l-60.433 18.366m60.433-18.366L57.5 659.851m74.236-193.544l146.981 113.046m-207.414-94.68l-53.719 19.778m53.719-19.778l18.278-31.434m0 0L42.578 306.624m47.003 146.615l-71.997-49.092M57.5 659.851l-39.916-65.692M57.5 659.851l221.217-80.498M57.5 659.851l131.685 114.078M57.5 659.851l-39.916 49.092m261.133-129.59l-89.532 194.576m89.532-194.576l74.609 208.703h19.771l42.154-48.916m-226.066 34.789l-35.812 14.127m35.812-14.127l52.973 14.127" stroke="url(#paint1_linear_406_2106)" stroke-opacity=".46"/></g><path d="M414.927 1050.34L324.35 960.7m0 0l-24.973 206.44M324.35 960.7l90.577-75.519M324.35 960.7l-45.847 35.262m20.874 171.178l-132.697 87.52m132.697-87.52l30.937-21.17m-30.937 21.17l-167.735-58.22m283.285-13.41l-84.613 50.46M166.68 1254.66l-13.046 88.58m13.046-88.58l-77.158-132.69m77.158 132.69l-124.123 13.81m124.123-13.81l132.697 68.11m-281.794-51.52l24.974-2.78M16 1293.83l137.634 49.41m0 0l145.743-20.47m-145.743 20.47l-136.051 73.05m136.051-73.05L51.13 1473.1m248.247-150.33l-100.641 60.7m100.641-60.7l73.43-42.7m-73.43 42.7l30.937-176.8M51.13 1473.1l-33.547-13.41m33.547 13.41l95.422 36m-95.422-36l83.494-51.17M17.583 1544.04l128.969-34.94m0 0l-16.401 49.76m16.401-49.76l74.176 49.76m-74.176-49.76l31.31-2.71m139.965 52.47l-20.314-62.82m0 0l-119.651 10.35m119.651-10.35l-98.777-112.57m98.777 112.57l14.537-112.57m-14.537 112.57l20.314 20.12m-139.965-9.77l-43.238-84.46m0 0l64.112-38.46m0 0H312.05m0 0l64.484 44.89m-64.484-44.89l60.757-103.4m42.12 147.51l-14.164 17.64-24.229-16.86m0 0l-58.707 87.8m0 0l44.17 42.7m52.93-209.27l-42.12-69.52m0 0l42.12-25.41m-84.613-108.69l84.613 67.4m-283.285-104.45l-60.384-18.35m60.384 18.35L57.467 915.53m74.175 193.39l146.861-112.958M71.258 1090.57l-53.675-19.77m53.675 19.77l18.264 31.4m0 0l-46.965 146.5m46.965-146.5l-71.939 49.06m39.884-255.5l-39.884 65.638m39.884-65.638l221.036 80.432M57.467 915.53l131.578-113.986M57.467 915.53l-39.884-49.053m260.92 129.485l-89.458-194.418m89.458 194.418l74.549-208.533h19.755l42.12 48.876m-225.882-34.761l-35.784-14.115m35.784 14.115l52.929-14.115" stroke="url(#paint2_linear_406_2106)" stroke-opacity=".48"/><g filter="url(#filter1_f_406_2106)"><path d="M414.927 1050.34L324.35 960.7m0 0l-24.973 206.44M324.35 960.7l90.577-75.519M324.35 960.7l-45.847 35.262m20.874 171.178l-132.697 87.52m132.697-87.52l30.937-21.17m-30.937 21.17l-167.735-58.22m283.285-13.41l-84.613 50.46M166.68 1254.66l-13.046 88.58m13.046-88.58l-77.158-132.69m77.158 132.69l-124.123 13.81m124.123-13.81l132.697 68.11m-281.794-51.52l24.974-2.78M16 1293.83l137.634 49.41m0 0l145.743-20.47m-145.743 20.47l-136.051 73.05m136.051-73.05L51.13 1473.1m248.247-150.33l-100.641 60.7m100.641-60.7l73.43-42.7m-73.43 42.7l30.937-176.8M51.13 1473.1l-33.547-13.41m33.547 13.41l95.422 36m-95.422-36l83.494-51.17M17.583 1544.04l128.969-34.94m0 0l-16.401 49.76m16.401-49.76l74.176 49.76m-74.176-49.76l31.31-2.71m139.965 52.47l-20.314-62.82m0 0l-119.651 10.35m119.651-10.35l-98.777-112.57m98.777 112.57l14.537-112.57m-14.537 112.57l20.314 20.12m-139.965-9.77l-43.238-84.46m0 0l64.112-38.46m0 0H312.05m0 0l64.484 44.89m-64.484-44.89l60.757-103.4m42.12 147.51l-14.164 17.64-24.229-16.86m0 0l-58.707 87.8m0 0l44.17 42.7m52.93-209.27l-42.12-69.52m0 0l42.12-25.41m-84.613-108.69l84.613 67.4m-283.285-104.45l-60.384-18.35m60.384 18.35L57.467 915.53m74.175 193.39l146.861-112.958M71.258 1090.57l-53.675-19.77m53.675 19.77l18.264 31.4m0 0l-46.965 146.5m46.965-146.5l-71.939 49.06m39.884-255.5l-39.884 65.638m39.884-65.638l221.036 80.432M57.467 915.53l131.578-113.986M57.467 915.53l-39.884-49.053m260.92 129.485l-89.458-194.418m89.458 194.418l74.549-208.533h19.755l42.12 48.876m-225.882-34.761l-35.784-14.115m35.784 14.115l52.929-14.115" stroke="url(#paint3_linear_406_2106)" stroke-opacity=".46"/></g><path d="M414.927 2593.19l-90.577-89.63m0 0L299.377 2710m24.973-206.44l90.577-75.52m-90.577 75.52l-45.847 35.26M299.377 2710l-132.697 87.52M299.377 2710l30.937-21.17M299.377 2710l-167.735-58.23m283.285-13.41l-84.613 50.47M166.68 2797.52l-13.046 88.58m13.046-88.58l-77.158-132.69m77.158 132.69l-124.123 13.81m124.123-13.81l132.697 68.11M17.583 2814.1l24.974-2.77M16 2836.69l137.634 49.41m0 0l145.743-20.47m-145.743 20.47l-136.051 73.04m136.051-73.04L51.13 3015.96m248.247-150.33l-100.641 60.7m100.641-60.7l73.43-42.7m-73.43 42.7l30.937-176.8M51.13 3015.96l-33.547-13.41m33.547 13.41l95.422 36m-95.422-36l83.494-51.17m-117.041 122.1l128.969-34.93m0 0l-16.401 49.75m16.401-49.75l74.176 49.75m-74.176-49.75l31.31-2.71m139.965 52.46l-20.314-62.81m0 0l-119.651 10.35m119.651-10.35l-98.777-112.57m98.777 112.57l14.537-112.57m-14.537 112.57l20.314 20.11m-139.965-9.76l-43.238-84.46m0 0l64.112-38.46m0 0H312.05m0 0l64.484 44.89m-64.484-44.89l60.757-103.4m42.12 147.51l-14.164 17.64-24.229-16.86m0 0l-58.707 87.79m0 0l44.17 42.7m52.93-209.26l-42.12-69.52m0 0l42.12-25.41m-84.613-108.69l84.613 67.4m-283.285-104.46l-60.384-18.35m60.384 18.35l-74.175-193.38m74.175 193.38l146.861-112.95m-207.245 94.6l-53.675-19.76m53.675 19.76l18.264 31.41m0 0l-46.965 146.5m46.965-146.5l-71.939 49.05m39.884-255.49l-39.884 65.64m39.884-65.64l221.036 80.43m-221.036-80.43l131.578-113.99M57.467 2458.39l-39.884-49.06m260.92 129.49l-89.458-194.42m89.458 194.42l74.549-208.53h19.755l42.12 48.87m-225.882-34.76l-35.784-14.11m35.784 14.11l52.929-14.11" stroke="url(#paint4_linear_406_2106)" stroke-opacity=".48"/><g filter="url(#filter2_f_406_2106)"><path d="M414.927 2593.19l-90.577-89.63m0 0L299.377 2710m24.973-206.44l90.577-75.52m-90.577 75.52l-45.847 35.26M299.377 2710l-132.697 87.52M299.377 2710l30.937-21.17M299.377 2710l-167.735-58.23m283.285-13.41l-84.613 50.47M166.68 2797.52l-13.046 88.58m13.046-88.58l-77.158-132.69m77.158 132.69l-124.123 13.81m124.123-13.81l132.697 68.11M17.583 2814.1l24.974-2.77M16 2836.69l137.634 49.41m0 0l145.743-20.47m-145.743 20.47l-136.051 73.04m136.051-73.04L51.13 3015.96m248.247-150.33l-100.641 60.7m100.641-60.7l73.43-42.7m-73.43 42.7l30.937-176.8M51.13 3015.96l-33.547-13.41m33.547 13.41l95.422 36m-95.422-36l83.494-51.17m-117.041 122.1l128.969-34.93m0 0l-16.401 49.75m16.401-49.75l74.176 49.75m-74.176-49.75l31.31-2.71m139.965 52.46l-20.314-62.81m0 0l-119.651 10.35m119.651-10.35l-98.777-112.57m98.777 112.57l14.537-112.57m-14.537 112.57l20.314 20.11m-139.965-9.76l-43.238-84.46m0 0l64.112-38.46m0 0H312.05m0 0l64.484 44.89m-64.484-44.89l60.757-103.4m42.12 147.51l-14.164 17.64-24.229-16.86m0 0l-58.707 87.79m0 0l44.17 42.7m52.93-209.26l-42.12-69.52m0 0l42.12-25.41m-84.613-108.69l84.613 67.4m-283.285-104.46l-60.384-18.35m60.384 18.35l-74.175-193.38m74.175 193.38l146.861-112.95m-207.245 94.6l-53.675-19.76m53.675 19.76l18.264 31.41m0 0l-46.965 146.5m46.965-146.5l-71.939 49.05m39.884-255.49l-39.884 65.64m39.884-65.64l221.036 80.43m-221.036-80.43l131.578-113.99M57.467 2458.39l-39.884-49.06m260.92 129.49l-89.458-194.42m89.458 194.42l74.549-208.53h19.755l42.12 48.87m-225.882-34.76l-35.784-14.11m35.784 14.11l52.929-14.11" stroke="url(#paint5_linear_406_2106)" stroke-opacity=".46"/></g><path d="M415.251 2067.79l-90.65 89.71m0 0l-24.994-206.61m24.994 206.61l90.65 75.58m-90.65-75.58l-45.884-35.29m20.89-171.32l-132.804-87.59m132.804 87.59l30.963 21.19m-30.963-21.19l-167.871 58.27m283.515 13.43l-84.681-50.51M166.803 1863.3l-13.057-88.65m13.057 88.65l-77.222 132.8m77.222-132.8l-124.225-13.82m124.225 13.82l132.804-68.16M17.584 1846.7l24.994 2.78M16 1824.1l137.746-49.45m0 0l145.861 20.49m-145.861-20.49l-136.162-73.11m136.162 73.11L51.158 1644.68m248.449 150.46l-100.722-60.75m100.722 60.75l73.49 42.73m-73.49-42.73l30.963 176.94m-279.411-327.4l-33.575 13.42m33.575-13.42l95.499-36.02m-95.5 36.02l83.563 51.21m-117.137-122.2l129.074 34.97m0 0l-16.414-49.8m16.414 49.8l74.236-49.8m-74.236 49.8l31.336 2.71m140.079-52.51l-20.331 62.86m0 0l-119.748-10.35m119.748 10.35l-98.857 112.67m98.857-112.67l14.549 112.67m-14.549-112.67l20.331-20.13m-140.079 9.78l-43.273 84.52m0 0l64.164 38.5m0 0h113.406m0 0l64.537-44.93m-64.537 44.93l60.806 103.48m42.154-147.63l-14.175-17.66-24.248 16.88m0 0l-58.755-87.87m0 0l44.206-42.73m52.972 209.43l-42.154 69.58m0 0l42.154 25.43m-84.681 108.78l84.681-67.46m-283.515 104.54l-60.433 18.37m60.433-18.37L57.5 2202.71m74.236-193.55l146.981 113.05m-207.414-94.68l-53.719 19.78m53.719-19.78l18.278-31.43m0 0l-47.003-146.62m47.003 146.62L17.584 1947M57.5 2202.71l-39.916-65.69m39.916 65.69l221.217-80.5M57.5 2202.71l131.685 114.08M57.5 2202.71l-39.916 49.09m261.133-129.59l-89.532 194.58m89.532-194.58l74.609 208.7h19.771l42.154-48.91m-226.066 34.79l-35.812 14.12m35.812-14.12l52.973 14.12" stroke="url(#paint6_linear_406_2106)" stroke-opacity=".48"/><g filter="url(#filter3_f_406_2106)"><path d="M415.251 2067.79l-90.65 89.71m0 0l-24.994-206.61m24.994 206.61l90.65 75.58m-90.65-75.58l-45.884-35.29m20.89-171.32l-132.804-87.59m132.804 87.59l30.963 21.19m-30.963-21.19l-167.871 58.27m283.515 13.43l-84.681-50.51M166.803 1863.3l-13.057-88.65m13.057 88.65l-77.222 132.8m77.222-132.8l-124.225-13.82m124.225 13.82l132.804-68.16M17.584 1846.7l24.994 2.78M16 1824.1l137.746-49.45m0 0l145.861 20.49m-145.861-20.49l-136.162-73.11m136.162 73.11L51.158 1644.68m248.449 150.46l-100.722-60.75m100.722 60.75l73.49 42.73m-73.49-42.73l30.963 176.94m-279.411-327.4l-33.575 13.42m33.575-13.42l95.499-36.02m-95.5 36.02l83.563 51.21m-117.137-122.2l129.074 34.97m0 0l-16.414-49.8m16.414 49.8l74.236-49.8m-74.236 49.8l31.336 2.71m140.079-52.51l-20.331 62.86m0 0l-119.748-10.35m119.748 10.35l-98.857 112.67m98.857-112.67l14.549 112.67m-14.549-112.67l20.331-20.13m-140.079 9.78l-43.273 84.52m0 0l64.164 38.5m0 0h113.406m0 0l64.537-44.93m-64.537 44.93l60.806 103.48m42.154-147.63l-14.175-17.66-24.248 16.88m0 0l-58.755-87.87m0 0l44.206-42.73m52.972 209.43l-42.154 69.58m0 0l42.154 25.43m-84.681 108.78l84.681-67.46m-283.515 104.54l-60.433 18.37m60.433-18.37L57.5 2202.71m74.236-193.55l146.981 113.05m-207.414-94.68l-53.719 19.78m53.719-19.78l18.278-31.43m0 0l-47.003-146.62m47.003 146.62L17.584 1947M57.5 2202.71l-39.916-65.69m39.916 65.69l221.217-80.5M57.5 2202.71l131.685 114.08M57.5 2202.71l-39.916 49.09m261.133-129.59l-89.532 194.58m89.532-194.58l74.609 208.7h19.771l42.154-48.91m-226.066 34.79l-35.812 14.12m35.812-14.12l52.973 14.12" stroke="url(#paint7_linear_406_2106)" stroke-opacity=".46"/></g><path d="M415.251 3610.65l-90.65 89.71m0 0l-24.994-206.61m24.994 206.61l90.65 75.58m-90.65-75.58l-45.884-35.29m20.89-171.32l-132.804-87.59m132.804 87.59l30.963 21.19m-30.963-21.19l-167.871 58.27m283.515 13.42l-84.681-50.5m-163.767-108.78l-13.057-88.65m13.057 88.65l-77.222 132.79m77.222-132.79l-124.225-13.82m124.225 13.82l132.804-68.17m-282.023 51.57l24.994 2.78M16 3366.95l137.746-49.44m0 0l145.861 20.48m-145.861-20.48L17.584 3244.4m136.162 73.11L51.158 3187.54m248.449 150.45l-100.722-60.74m100.722 60.74l73.49 42.74m-73.49-42.74l30.963 176.95m-279.411-327.4l-33.575 13.42m33.575-13.42l95.499-36.03m-95.5 36.03l83.563 51.21m-117.137-122.2l129.074 34.96m0 0l-16.414-49.8m16.414 49.8l74.236-49.8m-74.236 49.8l31.336 2.71m140.079-52.51l-20.331 62.87m0 0l-119.748-10.36m119.748 10.36l-98.857 112.67m98.857-112.67l14.549 112.67m-14.549-112.67l20.331-20.13m-140.079 9.77l-43.273 84.53m0 0l64.164 38.5m0 0h113.406m0 0l64.537-44.93m-64.537 44.93l60.806 103.48m42.154-147.63l-14.175-17.66-24.248 16.88m0 0l-58.755-87.87m0 0l44.206-42.74m52.972 209.44l-42.154 69.58m0 0l42.154 25.43m-84.681 108.78l84.681-67.46m-283.515 104.54l-60.433 18.37m60.433-18.37L57.5 3745.57m74.236-193.55l146.981 113.05m-207.414-94.68l-53.719 19.78m53.719-19.78l18.278-31.44m0 0l-47.003-146.61m47.003 146.61l-71.997-49.09M57.5 3745.57l-39.916-65.7m39.916 65.7l221.217-80.5M57.5 3745.57l131.685 114.07M57.5 3745.57l-39.916 49.09m261.133-129.59l-89.532 194.57m89.532-194.57l74.609 208.7h19.771l42.154-48.92m-226.066 34.79l-35.812 14.13m35.812-14.13l52.973 14.13" stroke="url(#paint8_linear_406_2106)" stroke-opacity=".48"/><g filter="url(#filter4_f_406_2106)"><path d="M415.251 3610.65l-90.65 89.71m0 0l-24.994-206.61m24.994 206.61l90.65 75.58m-90.65-75.58l-45.884-35.29m20.89-171.32l-132.804-87.59m132.804 87.59l30.963 21.19m-30.963-21.19l-167.871 58.27m283.515 13.42l-84.681-50.5m-163.767-108.78l-13.057-88.65m13.057 88.65l-77.222 132.79m77.222-132.79l-124.225-13.82m124.225 13.82l132.804-68.17m-282.023 51.57l24.994 2.78M16 3366.95l137.746-49.44m0 0l145.861 20.48m-145.861-20.48L17.584 3244.4m136.162 73.11L51.158 3187.54m248.449 150.45l-100.722-60.74m100.722 60.74l73.49 42.74m-73.49-42.74l30.963 176.95m-279.411-327.4l-33.575 13.42m33.575-13.42l95.499-36.03m-95.5 36.03l83.563 51.21m-117.137-122.2l129.074 34.96m0 0l-16.414-49.8m16.414 49.8l74.236-49.8m-74.236 49.8l31.336 2.71m140.079-52.51l-20.331 62.87m0 0l-119.748-10.36m119.748 10.36l-98.857 112.67m98.857-112.67l14.549 112.67m-14.549-112.67l20.331-20.13m-140.079 9.77l-43.273 84.53m0 0l64.164 38.5m0 0h113.406m0 0l64.537-44.93m-64.537 44.93l60.806 103.48m42.154-147.63l-14.175-17.66-24.248 16.88m0 0l-58.755-87.87m0 0l44.206-42.74m52.972 209.44l-42.154 69.58m0 0l42.154 25.43m-84.681 108.78l84.681-67.46m-283.515 104.54l-60.433 18.37m60.433-18.37L57.5 3745.57m74.236-193.55l146.981 113.05m-207.414-94.68l-53.719 19.78m53.719-19.78l18.278-31.44m0 0l-47.003-146.61m47.003 146.61l-71.997-49.09M57.5 3745.57l-39.916-65.7m39.916 65.7l221.217-80.5M57.5 3745.57l131.685 114.07M57.5 3745.57l-39.916 49.09m261.133-129.59l-89.532 194.57m89.532-194.57l74.609 208.7h19.771l42.154-48.92m-226.066 34.79l-35.812 14.13m35.812-14.13l52.973 14.13" stroke="url(#paint9_linear_406_2106)" stroke-opacity=".46"/></g><path d="M414.927 4136.05l-90.577-89.64m0 0l-24.973 206.45m24.973-206.45l90.577-75.52m-90.577 75.52l-45.847 35.27m20.874 171.18l-132.697 87.52m132.697-87.52l30.937-21.18m-30.937 21.18l-167.735-58.23m283.285-13.41l-84.613 50.46m-163.634 108.7l-13.046 88.57m13.046-88.57l-77.158-132.69m77.158 132.69l-124.123 13.8m124.123-13.8l132.697 68.1m-281.794-51.52l24.974-2.78M16 4379.55l137.634 49.4m0 0l145.743-20.47m-145.743 20.47L17.583 4502m136.051-73.05L51.13 4558.82m248.247-150.34l-100.641 60.7m100.641-60.7l73.43-42.7m-73.43 42.7l30.937-176.8M51.13 4558.82l-33.547-13.41m33.547 13.41l95.422 35.99m-95.422-35.99l83.494-51.17m-117.041 122.1l128.969-34.94m0 0l-16.401 49.76m16.401-49.76l74.176 49.76m-74.176-49.76l31.31-2.7m139.965 52.46l-20.314-62.81m0 0l-119.651 10.35m119.651-10.35l-98.777-112.58m98.777 112.58l14.537-112.58m-14.537 112.58l20.314 20.11m-139.965-9.76l-43.238-84.46m0 0l64.112-38.47m0 0H312.05m0 0l64.484 44.89m-64.484-44.89l60.757-103.4m42.12 147.51l-14.164 17.65-24.229-16.87m0 0l-58.707 87.8m0 0l44.17 42.7m52.93-209.27l-42.12-69.52m0 0l42.12-25.4m-84.613-108.7l84.613 67.41m-283.285-104.46l-60.384-18.35m60.384 18.35l-74.175-193.39m74.175 193.39l146.861-112.95m-207.245 94.6l-53.675-19.76m53.675 19.76l18.264 31.41m0 0l-46.965 146.49m46.965-146.49l-71.939 49.05m39.884-255.5l-39.884 65.64m39.884-65.64l221.036 80.44m-221.036-80.44l131.578-113.98M57.467 4001.24l-39.884-49.05m260.92 129.49l-89.458-194.42m89.458 194.42l74.549-208.54h19.755l42.12 48.88m-225.882-34.76l-35.784-14.12m35.784 14.12l52.929-14.12" stroke="url(#paint10_linear_406_2106)" stroke-opacity=".48"/><g filter="url(#filter5_f_406_2106)"><path d="M414.927 4136.05l-90.577-89.64m0 0l-24.973 206.45m24.973-206.45l90.577-75.52m-90.577 75.52l-45.847 35.27m20.874 171.18l-132.697 87.52m132.697-87.52l30.937-21.18m-30.937 21.18l-167.735-58.23m283.285-13.41l-84.613 50.46m-163.634 108.7l-13.046 88.57m13.046-88.57l-77.158-132.69m77.158 132.69l-124.123 13.8m124.123-13.8l132.697 68.1m-281.794-51.52l24.974-2.78M16 4379.55l137.634 49.4m0 0l145.743-20.47m-145.743 20.47L17.583 4502m136.051-73.05L51.13 4558.82m248.247-150.34l-100.641 60.7m100.641-60.7l73.43-42.7m-73.43 42.7l30.937-176.8M51.13 4558.82l-33.547-13.41m33.547 13.41l95.422 35.99m-95.422-35.99l83.494-51.17m-117.041 122.1l128.969-34.94m0 0l-16.401 49.76m16.401-49.76l74.176 49.76m-74.176-49.76l31.31-2.7m139.965 52.46l-20.314-62.81m0 0l-119.651 10.35m119.651-10.35l-98.777-112.58m98.777 112.58l14.537-112.58m-14.537 112.58l20.314 20.11m-139.965-9.76l-43.238-84.46m0 0l64.112-38.47m0 0H312.05m0 0l64.484 44.89m-64.484-44.89l60.757-103.4m42.12 147.51l-14.164 17.65-24.229-16.87m0 0l-58.707 87.8m0 0l44.17 42.7m52.93-209.27l-42.12-69.52m0 0l42.12-25.4m-84.613-108.7l84.613 67.41m-283.285-104.46l-60.384-18.35m60.384 18.35l-74.175-193.39m74.175 193.39l146.861-112.95m-207.245 94.6l-53.675-19.76m53.675 19.76l18.264 31.41m0 0l-46.965 146.49m46.965-146.49l-71.939 49.05m39.884-255.5l-39.884 65.64m39.884-65.64l221.036 80.44m-221.036-80.44l131.578-113.98M57.467 4001.24l-39.884-49.05m260.92 129.49l-89.458-194.42m89.458 194.42l74.549-208.54h19.755l42.12 48.88m-225.882-34.76l-35.784-14.12m35.784 14.12l52.929-14.12" stroke="url(#paint11_linear_406_2106)" stroke-opacity=".46"/></g><path fill="#000" fill-opacity=".68" d="M16 16h397.255v4802H16z"/><defs><linearGradient id="paint0_linear_406_2106" x1="215.626" y1="16" x2="215.626" y2="787.429" gradientUnits="userSpaceOnUse"><stop stop-color="#00FF75"/><stop offset=".453" stop-color="#CBFE00"/><stop offset=".987" stop-color="#00FF05"/></linearGradient><linearGradient id="paint1_linear_406_2106" x1="215.626" y1="16" x2="215.626" y2="788.056" gradientUnits="userSpaceOnUse"><stop stop-color="#B986FF"/><stop offset=".514" stop-color="#DAFF4C"/><stop offset="1" stop-color="#37FFAB"/></linearGradient><linearGradient id="paint2_linear_406_2106" x1="215.463" y1="1558.86" x2="215.463" y2="788.056" gradientUnits="userSpaceOnUse"><stop stop-color="#00FF75"/><stop offset=".453" stop-color="#CBFE00"/><stop offset=".987" stop-color="#00FF05"/></linearGradient><linearGradient id="paint3_linear_406_2106" x1="215.463" y1="1558.86" x2="215.463" y2="787.429" gradientUnits="userSpaceOnUse"><stop stop-color="#B986FF"/><stop offset=".514" stop-color="#DAFF4C"/><stop offset="1" stop-color="#37FFAB"/></linearGradient><linearGradient id="paint4_linear_406_2106" x1="215.463" y1="3101.71" x2="215.463" y2="2330.91" gradientUnits="userSpaceOnUse"><stop stop-color="#00FF75"/><stop offset=".453" stop-color="#CBFE00"/><stop offset=".987" stop-color="#00FF05"/></linearGradient><linearGradient id="paint5_linear_406_2106" x1="215.463" y1="3101.71" x2="215.463" y2="2330.29" gradientUnits="userSpaceOnUse"><stop stop-color="#B986FF"/><stop offset=".514" stop-color="#DAFF4C"/><stop offset="1" stop-color="#37FFAB"/></linearGradient><linearGradient id="paint6_linear_406_2106" x1="215.626" y1="1558.86" x2="215.626" y2="2330.29" gradientUnits="userSpaceOnUse"><stop stop-color="#00FF75"/><stop offset=".453" stop-color="#CBFE00"/><stop offset=".987" stop-color="#00FF05"/></linearGradient><linearGradient id="paint7_linear_406_2106" x1="215.626" y1="1558.86" x2="215.626" y2="2330.91" gradientUnits="userSpaceOnUse"><stop stop-color="#B986FF"/><stop offset=".514" stop-color="#DAFF4C"/><stop offset="1" stop-color="#37FFAB"/></linearGradient><linearGradient id="paint8_linear_406_2106" x1="215.626" y1="3101.71" x2="215.626" y2="3873.14" gradientUnits="userSpaceOnUse"><stop stop-color="#00FF75"/><stop offset=".453" stop-color="#CBFE00"/><stop offset=".987" stop-color="#00FF05"/></linearGradient><linearGradient id="paint9_linear_406_2106" x1="215.626" y1="3101.71" x2="215.626" y2="3873.77" gradientUnits="userSpaceOnUse"><stop stop-color="#B986FF"/><stop offset=".514" stop-color="#DAFF4C"/><stop offset="1" stop-color="#37FFAB"/></linearGradient><linearGradient id="paint10_linear_406_2106" x1="215.463" y1="4644.57" x2="215.463" y2="3873.77" gradientUnits="userSpaceOnUse"><stop stop-color="#00FF75"/><stop offset=".453" stop-color="#CBFE00"/><stop offset=".987" stop-color="#00FF05"/></linearGradient><linearGradient id="paint11_linear_406_2106" x1="215.463" y1="4644.57" x2="215.463" y2="3873.14" gradientUnits="userSpaceOnUse"><stop stop-color="#B986FF"/><stop offset=".514" stop-color="#DAFF4C"/><stop offset="1" stop-color="#37FFAB"/></linearGradient><filter id="filter0_f_406_2106" x=".831" y=".585" width="429.848" height="802.971" filterUnits="userSpaceOnUse" color-interpolation-filters="sRGB"><feFlood flood-opacity="0" result="BackgroundImageFix"/><feBlend in="SourceGraphic" in2="BackgroundImageFix" result="shape"/><feGaussianBlur stdDeviation="7.5" result="effect1_foregroundBlur_406_2106"/></filter><filter id="filter1_f_406_2106" x=".831" y="771.929" width="429.523" height="802.344" filterUnits="userSpaceOnUse" color-interpolation-filters="sRGB"><feFlood flood-opacity="0" result="BackgroundImageFix"/><feBlend in="SourceGraphic" in2="BackgroundImageFix" result="shape"/><feGaussianBlur stdDeviation="7.5" result="effect1_foregroundBlur_406_2106"/></filter><filter id="filter2_f_406_2106" x=".831" y="2314.79" width="429.523" height="802.344" filterUnits="userSpaceOnUse" color-interpolation-filters="sRGB"><feFlood flood-opacity="0" result="BackgroundImageFix"/><feBlend in="SourceGraphic" in2="BackgroundImageFix" result="shape"/><feGaussianBlur stdDeviation="7.5" result="effect1_foregroundBlur_406_2106"/></filter><filter id="filter3_f_406_2106" x=".831" y="1543.44" width="429.848" height="802.971" filterUnits="userSpaceOnUse" color-interpolation-filters="sRGB"><feFlood flood-opacity="0" result="BackgroundImageFix"/><feBlend in="SourceGraphic" in2="BackgroundImageFix" result="shape"/><feGaussianBlur stdDeviation="7.5" result="effect1_foregroundBlur_406_2106"/></filter><filter id="filter4_f_406_2106" x=".831" y="3086.3" width="429.848" height="802.971" filterUnits="userSpaceOnUse" color-interpolation-filters="sRGB"><feFlood flood-opacity="0" result="BackgroundImageFix"/><feBlend in="SourceGraphic" in2="BackgroundImageFix" result="shape"/><feGaussianBlur stdDeviation="7.5" result="effect1_foregroundBlur_406_2106"/></filter><filter id="filter5_f_406_2106" x=".831" y="3857.64" width="429.523" height="802.344" filterUnits="userSpaceOnUse" color-interpolation-filters="sRGB"><feFlood flood-opacity="0" result="BackgroundImageFix"/><feBlend in="SourceGraphic" in2="BackgroundImageFix" result="shape"/><feGaussianBlur stdDeviation="7.5" result="effect1_foregroundBlur_406_2106"/></filter></defs></svg>