<svg width="414" height="386" fill="none" xmlns="http://www.w3.org/2000/svg"><path d="M143.538 357.655c-1.467-2.528-2.351-4.666-2.652-6.416-.319-1.739-.183-3.162.407-4.27.59-1.107 1.559-2.052 2.906-2.834 1.955-1.136 3.886-1.294 5.792-.477 1.905.818 3.924 3.062 6.055 6.734l2.861 4.926.027-.016 3.953 6.807a282.5 282.5 0 00-10.174 5.612 282.433 282.433 0 00-9.917 6.054l-11.842-20.395 5.562-3.23 7.89 13.587 1.992-1.156-2.86-4.926zm8.364-3.376c-.739-1.273-1.343-2.206-1.81-2.798-.478-.611-.893-.986-1.246-1.127-.364-.159-.748-.12-1.154.115-.406.236-.639.557-.7.962-.061.405.056.967.349 1.684.293.718.799 1.695 1.517 2.931l2.217 3.819 3.044-1.768-2.217-3.818zm-30.463-22.31c-1.546-3.954-1.917-6.982-1.112-9.083.785-2.094 2.449-3.638 4.992-4.632 1.749-.684 3.359-.958 4.832-.824 1.453.142 2.83.852 4.131 2.13 1.282 1.285 2.454 3.289 3.519 6.011l2.424 6.199 5.245-2.051 2.867 7.332a282.458 282.458 0 00-10.912 3.991 282.86 282.86 0 00-10.725 4.469l-2.867-7.332.03-.011-2.424-6.199zm11.426-2.063c-.645-1.649-1.187-2.857-1.624-3.625-.466-.78-.929-1.263-1.391-1.449-.47-.206-1.033-.181-1.689.076-.655.256-1.08.605-1.274 1.048-.221.43-.228 1.085-.021 1.966.2.862.629 2.137 1.29 3.825l1.608 4.113 4.709-1.841-1.608-4.113zm-2.757-27.049c-1.794-7.906-3.179-13.619-4.156-17.139a21.897 21.897 0 002.718-.307c.901-.177 2.038-.418 3.413-.722l5.375 24.276a281.673 281.673 0 00-11.397 2.261c-3.52.779-7.282 1.7-11.286 2.761l-5.375-24.276 5.655-1.252 3.743 16.902 2.999-.664c-.2-1.004-.517-2.485-.951-4.443a298.324 298.324 0 00-2.463-10.238l5.373-1.19a301.59 301.59 0 003.103 14.751l3.249-.72zm-23.776-47.395c3.607-.075 7.476-.241 11.607-.498 4.131-.256 7.991-.571 11.58-.944l.466 7.506-8.687.54.731 11.753 8.687-.54.467 7.505c-4.141.087-8.011.242-11.61.466-3.598.223-7.457.549-11.577.976l-.467-7.506 8.687-.54-.731-11.753-8.687.54-.466-7.505zm20.009-33.042l.135-1.306 10.918 1.123-.776 7.544-4.615-.474-1.46 14.197 4.712.484-.776 7.544-11.014-1.132.164-1.591c-.076-.93-.376-1.669-.898-2.216-.523-.547-1.399-1.001-2.627-1.364-1.02-.297-3.376-.636-7.069-1.016l-6.497-.635 2.391-22.948 17.412 1.79zm-2.991 15.648c.581.188 1.025.352 1.332.491l.832-8.086-11.205-1.152-.733 7.131 1.843.221a63.58 63.58 0 014.252.566c1.203.188 2.429.464 3.679.829zm-11.073-33.803l17.197 5.181-15.321-12.166 3.054-11.373a280.439 280.439 0 0011.13 3.221 280.783 280.783 0 0011.277 2.797l-2.134 7.942-16.724-5.088 14.865 12.011-2.971 11.064a283.277 283.277 0 00-11.152-3.26 282.527 282.527 0 00-11.254-2.758l2.033-7.571zm13.413-39.288c1.743-3.871 3.647-6.254 5.711-7.149 2.045-.904 4.313-.796 6.802.326 1.712.77 3.035 1.729 3.97 2.875.915 1.137 1.371 2.618 1.369 4.442-.022 1.815-.633 4.055-1.834 6.72l-2.733 6.069 5.136 2.313-3.233 7.177a282.117 282.117 0 00-10.486-5.003 280.981 280.981 0 00-10.697-4.536l3.233-7.178.029.013 2.733-6.069zm9.467 6.72c.727-1.614 1.212-2.847 1.455-3.697.231-.878.252-1.547.062-2.007-.182-.48-.594-.864-1.236-1.153-.642-.289-1.189-.348-1.64-.177-.462.143-.935.596-1.42 1.361-.476.745-1.086 1.944-1.831 3.597l-1.813 4.027 4.61 2.076 1.813-4.027zm26.099-22.95c-2.702 4.069-5.571 6.479-8.605 7.23-3.052.739-6.177.047-9.376-2.078-3.163-2.101-5.002-4.692-5.516-7.774-.503-3.099.604-6.693 3.318-10.78 2.726-4.105 5.61-6.518 8.65-7.24 3.051-.739 6.159-.058 9.322 2.043 3.217 2.136 5.073 4.739 5.57 7.809.496 3.07-.625 6.667-3.363 10.79zm-5.438-3.612c1.31-1.972 1.881-3.642 1.713-5.009-.186-1.378-1.078-2.598-2.678-3.66-1.563-1.039-3.017-1.377-4.359-1.013-1.343.363-2.669 1.531-3.979 3.504-1.298 1.954-1.854 3.621-1.669 4.999.186 1.379 1.061 2.587 2.625 3.626 1.582 1.05 3.044 1.394 4.386 1.03 1.343-.363 2.663-1.522 3.961-3.477zm20.243-33.843c3.324-3.551 6.115-4.27 8.373-2.156 1.059.992 1.736 2.079 2.032 3.261.28 1.169.047 2.572-.699 4.212-.761 1.625-2.177 3.543-4.247 5.755l-9.842 10.512a282.104 282.104 0 00-8.305-8.125 283.038 283.038 0 00-8.655-7.752l5.14-5.49.023.022 4.658-4.976c1.808-1.931 3.393-3.296 4.755-4.096 1.362-.83 2.557-1.186 3.587-1.069 1.045.101 2.035.589 2.969 1.464.95.889 1.486 2.019 1.606 3.388.12 1.34-.345 3.023-1.395 5.05zm-11.928 4.219l2.172 2.034 4.199-4.485c.904-.966 1.445-1.716 1.624-2.25.193-.55.064-1.036-.388-1.459-.358-.335-.797-.366-1.316-.092-.52.243-1.218.832-2.092 1.767l-4.199 4.485zm12.609 3.388c.758-.81 1.302-1.454 1.634-1.933.33-.509.497-.937.501-1.285-.012-.361-.174-.688-.485-.98-.405-.379-.905-.423-1.499-.131-.595.261-1.432.968-2.511 2.12l-4.199 4.485 2.36 2.209 4.199-4.485zm31.398-20.243a146.724 146.724 0 00-4.088-2.625l-8.081 6.236 1.528 4.6-6.358 4.907-7.1-23.866 9.323-7.195 21.337 12.88-6.561 5.063zm-8.582-5.463a426.664 426.664 0 00-6.081-3.795l-1.879-1.178a776.356 776.356 0 002.767 8.98l5.193-4.007zm31.444-35.304a282.369 282.369 0 005.284 10.347 281.608 281.608 0 005.679 10.135l-6.63 3.549-4.108-7.674-10.382 5.557 4.107 7.674-6.63 3.548a282.557 282.557 0 00-5.256-10.362 281.604 281.604 0 00-5.707-10.12l6.63-3.55 4.108 7.675 10.382-5.557-4.107-7.674 6.63-3.548zm14.617-5.925l5.319 17.155 1.521-19.505 11.137-3.826a280.098 280.098 0 003.552 11.028 281.558 281.558 0 003.986 10.913l-7.778 2.672-5.132-16.711-1.647 19.04-10.834 3.722a284.867 284.867 0 00-3.532-11.069 283.836 283.836 0 00-4.006-10.872l7.414-2.547zm36.011 7.502c7.978-1.439 13.747-2.567 17.307-3.384.004.887.066 1.797.185 2.729.137.907.327 2.054.57 3.441l-24.493 4.283a283.433 283.433 0 00-1.748-11.486 282.906 282.906 0 00-2.253-11.399l24.492-4.282.998 5.705-17.054 2.982.529 3.026a299.394 299.394 0 0014.82-2.754l.948 5.422a300.045 300.045 0 00-14.875 2.439l.574 3.278z" fill="#fff"/></svg>