<svg width="1059" height="923" fill="none" xmlns="http://www.w3.org/2000/svg"><g filter="url(#filter0_d_375_192)" shape-rendering="crispEdges"><path d="M247.694 132.258l190.212 57.203-73.323-90.602 44.176-67.785 181.518 38.14 134.167 172.772H857l151 153.677L884.903 515.07l57.185 54.514-57.185 167.22-225.064 6.44-95.339 74.257L437.906 852 333.064 736.804 114 657.001 51 515.07l199.38-119.407-59.211-189.806 56.526-73.599z" fill="url(#paint0_linear_375_192)" fill-opacity=".68"/><path d="M247.694 132.258l190.212 57.203-73.323-90.602 44.176-67.785 181.518 38.14 134.167 172.772H857l151 153.677L884.903 515.07l57.185 54.514-57.185 167.22-225.064 6.44-95.339 74.257L437.906 852 333.064 736.804 114 657.001 51 515.07l199.38-119.407-59.211-189.806 56.526-73.599z" stroke="url(#paint1_linear_375_192)"/></g><defs><linearGradient id="paint0_linear_375_192" x1="427.48" y1="76.255" x2="556.287" y2="776.189" gradientUnits="userSpaceOnUse"><stop stop-color="#0F0"/><stop offset="1" stop-color="#B2FF66"/></linearGradient><linearGradient id="paint1_linear_375_192" x1="292.802" y1="68.455" x2="616.467" y2="819.518" gradientUnits="userSpaceOnUse"><stop stop-color="#fff"/><stop offset="1" stop-color="#fff" stop-opacity="0"/></linearGradient><filter id="filter0_d_375_192" x=".364" y=".514" width="1058.35" height="922.049" filterUnits="userSpaceOnUse" color-interpolation-filters="sRGB"><feFlood flood-opacity="0" result="BackgroundImageFix"/><feColorMatrix in="SourceAlpha" values="0 0 0 0 0 0 0 0 0 0 0 0 0 0 0 0 0 0 127 0" result="hardAlpha"/><feOffset dy="20"/><feGaussianBlur stdDeviation="25"/><feComposite in2="hardAlpha" operator="out"/><feColorMatrix values="0 0 0 0 0 0 0 0 0 0 0 0 0 0 0 0 0 0 0.5 0"/><feBlend in2="BackgroundImageFix" result="effect1_dropShadow_375_192"/><feBlend in="SourceGraphic" in2="effect1_dropShadow_375_192" result="shape"/></filter></defs></svg>