<svg width="1080" height="900" fill="none" xmlns="http://www.w3.org/2000/svg"><g filter="url(#filter0_d_375_205)" shape-rendering="crispEdges"><path d="M245.881 671.782L51 317.675l137.119-94.74h119.592L629.412 31l102.61 49.845h104.494l29.196 74.519 74.491 67.571-31.247 84.719L1029 563.418l-192.484 84.904V829l-296.945-68.426-208.123 34.258H188.12l57.761-123.05z" fill="url(#paint0_linear_375_205)" fill-opacity=".71"/><path d="M245.881 671.782L51 317.675l137.119-94.74h119.592L629.412 31l102.61 49.845h104.494l29.196 74.519 74.491 67.571-31.247 84.719L1029 563.418l-192.484 84.904V829l-296.945-68.426-208.123 34.258H188.12l57.761-123.05z" stroke="url(#paint1_linear_375_205)"/></g><defs><linearGradient id="paint0_linear_375_205" x1="479.369" y1="152.879" x2="479.369" y2="829.001" gradientUnits="userSpaceOnUse"><stop offset=".04" stop-color="#04B535"/><stop offset=".977" stop-color="#059763"/></linearGradient><linearGradient id="paint1_linear_375_205" x1="502.136" y1="26.559" x2="502.136" y2="829.001" gradientUnits="userSpaceOnUse"><stop offset=".097" stop-color="#fff"/><stop offset="1" stop-color="#fff" stop-opacity="0"/></linearGradient><filter id="filter0_d_375_205" x=".344" y=".433" width="1079.33" height="899.196" filterUnits="userSpaceOnUse" color-interpolation-filters="sRGB"><feFlood flood-opacity="0" result="BackgroundImageFix"/><feColorMatrix in="SourceAlpha" values="0 0 0 0 0 0 0 0 0 0 0 0 0 0 0 0 0 0 127 0" result="hardAlpha"/><feOffset dy="20"/><feGaussianBlur stdDeviation="25"/><feComposite in2="hardAlpha" operator="out"/><feColorMatrix values="0 0 0 0 0 0 0 0 0 0 0 0 0 0 0 0 0 0 0.5 0"/><feBlend in2="BackgroundImageFix" result="effect1_dropShadow_375_205"/><feBlend in="SourceGraphic" in2="effect1_dropShadow_375_205" result="shape"/></filter></defs></svg>