<svg width="1928" height="995" fill="none" xmlns="http://www.w3.org/2000/svg"><path fill-rule="evenodd" clip-rule="evenodd" d="M98.775 500.398v67.911h820.287c18.241 0 33.027-14.774 33.027-33V178.897h878.381V97H904.222c-18.24 0-33.027 14.775-33.027 33v337.398c0 18.225-14.787 33-33.027 33H98.775z" fill="url(#paint0_linear_765_2)"/><path fill-rule="evenodd" clip-rule="evenodd" d="M98.775 822.91V892H1586.03c18.24 0 33.03-14.775 33.03-33V688.721c0-18.225-14.79-33-33.03-33H98.775v73.289H1508.2c18.24 0 33.03 14.774 33.03 33v27.9c0 18.226-14.79 33-33.03 33H98.775z" fill="url(#paint1_linear_765_2)"/><g filter="url(#filter0_f_765_2)" fill-rule="evenodd" clip-rule="evenodd" fill-opacity=".5"><path d="M100.855 503.398v67.911h820.326c18.142 0 32.849-14.774 32.849-33V181.897h873.64V100H906.421c-18.142 0-32.849 14.775-32.849 33v337.398c0 18.225-14.707 33-32.849 33H100.855z" fill="url(#paint2_linear_765_2)"/><path d="M100.855 825.91V895H1584.55c18.14 0 32.84-14.775 32.84-33V691.721c0-18.225-14.7-33-32.84-33H100.855v73.289H1507.14c18.14 0 32.85 14.774 32.85 33v27.9c0 18.226-14.71 33-32.85 33H100.855z" fill="url(#paint3_linear_765_2)"/></g><defs><linearGradient id="paint0_linear_765_2" x1="786.908" y1="392.628" x2="786.908" y2="892" gradientUnits="userSpaceOnUse"><stop stop-color="#7CFF70" stop-opacity=".79"/><stop offset="1" stop-color="#D9FF6E" stop-opacity=".89"/></linearGradient><linearGradient id="paint1_linear_765_2" x1="786.908" y1="392.628" x2="786.908" y2="892" gradientUnits="userSpaceOnUse"><stop stop-color="#7CFF70" stop-opacity=".79"/><stop offset="1" stop-color="#D9FF6E" stop-opacity=".89"/></linearGradient><linearGradient id="paint2_linear_765_2" x1="789.74" y1="395.628" x2="789.74" y2="895" gradientUnits="userSpaceOnUse"><stop stop-color="#7CFF70" stop-opacity=".79"/><stop offset="1" stop-color="#D9FF6E" stop-opacity=".89"/></linearGradient><linearGradient id="paint3_linear_765_2" x1="789.74" y1="395.628" x2="789.74" y2="895" gradientUnits="userSpaceOnUse"><stop stop-color="#7CFF70" stop-opacity=".79"/><stop offset="1" stop-color="#D9FF6E" stop-opacity=".89"/></linearGradient><filter id="filter0_f_765_2" x=".855" y="0" width="1926.81" height="995" filterUnits="userSpaceOnUse" color-interpolation-filters="sRGB"><feFlood flood-opacity="0" result="BackgroundImageFix"/><feBlend in="SourceGraphic" in2="BackgroundImageFix" result="shape"/><feGaussianBlur stdDeviation="50" result="effect1_foregroundBlur_765_2"/></filter></defs></svg>