<svg width="840" height="857" fill="none" xmlns="http://www.w3.org/2000/svg"><g filter="url(#filter0_d_373_188)" shape-rendering="crispEdges"><path d="M347.001 786l-46.5-117.5-102.716 58.404-73.325-3.726 2.5-155.678-75.773-81 94.94-107.146-94.94-94.957 94.94-155.477h141.189L377.001 31l134 119 156.364-16.834 45.42 122.334 76.399 109.236-76.399 95.864 70.528 138.667-115.948 58.111L527.001 668.5l-85 54.678-95 62.822z" fill="url(#paint0_linear_373_188)" fill-opacity=".51"/><path d="M347.001 786l-46.5-117.5-102.716 58.404-73.325-3.726 2.5-155.678-75.773-81 94.94-107.146-94.94-94.957 94.94-155.477h141.189L377.001 31l134 119 156.364-16.834 45.42 122.334 76.399 109.236-76.399 95.864 70.528 138.667-115.948 58.111L527.001 668.5l-85 54.678-95 62.822z" stroke="url(#paint1_linear_373_188)"/></g><defs><linearGradient id="paint0_linear_373_188" x1="488.501" y1="134" x2="351.001" y2="733.5" gradientUnits="userSpaceOnUse"><stop stop-color="#FFFE00"/><stop offset="1" stop-color="#FBE67C"/></linearGradient><linearGradient id="paint1_linear_373_188" x1="290.001" y1="810.5" x2="520.84" y2="109.447" gradientUnits="userSpaceOnUse"><stop stop-color="#fff" stop-opacity="0"/><stop offset="1" stop-color="#fff"/></linearGradient><filter id="filter0_d_373_188" x=".511" y=".299" width="839.297" height="856.458" filterUnits="userSpaceOnUse" color-interpolation-filters="sRGB"><feFlood flood-opacity="0" result="BackgroundImageFix"/><feColorMatrix in="SourceAlpha" values="0 0 0 0 0 0 0 0 0 0 0 0 0 0 0 0 0 0 127 0" result="hardAlpha"/><feOffset dy="20"/><feGaussianBlur stdDeviation="25"/><feComposite in2="hardAlpha" operator="out"/><feColorMatrix values="0 0 0 0 0 0 0 0 0 0 0 0 0 0 0 0 0 0 0.46 0"/><feBlend in2="BackgroundImageFix" result="effect1_dropShadow_373_188"/><feBlend in="SourceGraphic" in2="effect1_dropShadow_373_188" result="shape"/></filter></defs></svg>