<svg width="1078" height="913" fill="none" xmlns="http://www.w3.org/2000/svg"><g filter="url(#filter0_d_373_187)" shape-rendering="crispEdges"><path d="M292.891 683.105L51 346.505l131.69-95.75 169.583-21.285 81.714-160.274h175.338L693.716 31l117.61 38.195 63.609 40.289h92.929l24.847 88.425-81.002 117.184L1027 573.585l-166.859 85.809L780.444 842l-285.187-69.157-257.841 34.624 55.475-124.362z" fill="url(#paint0_linear_373_187)" fill-opacity=".71"/><path d="M292.891 683.105L51 346.505l131.69-95.75 169.583-21.285 81.714-160.274h175.338L693.716 31l117.61 38.195 63.609 40.289h92.929l24.847 88.425-81.002 117.184L1027 573.585l-166.859 85.809L780.444 842l-285.187-69.157-257.841 34.624 55.475-124.362z" stroke="url(#paint1_linear_373_187)"/></g><defs><linearGradient id="paint0_linear_373_187" x1="517.135" y1="158.667" x2="517.135" y2="842" gradientUnits="userSpaceOnUse"><stop stop-color="#FF150B"/><stop offset=".977" stop-color="#FF6B00"/></linearGradient><linearGradient id="paint1_linear_373_187" x1="539" y1="31" x2="539" y2="842" gradientUnits="userSpaceOnUse"><stop stop-color="#fff" stop-opacity=".966"/><stop offset=".081" stop-color="#fff"/><stop offset="1" stop-color="#fff" stop-opacity="0"/></linearGradient><filter id="filter0_d_373_187" x=".304" y=".465" width="1077.35" height="912.12" filterUnits="userSpaceOnUse" color-interpolation-filters="sRGB"><feFlood flood-opacity="0" result="BackgroundImageFix"/><feColorMatrix in="SourceAlpha" values="0 0 0 0 0 0 0 0 0 0 0 0 0 0 0 0 0 0 127 0" result="hardAlpha"/><feOffset dy="20"/><feGaussianBlur stdDeviation="25"/><feComposite in2="hardAlpha" operator="out"/><feColorMatrix values="0 0 0 0 0 0 0 0 0 0 0 0 0 0 0 0 0 0 0.5 0"/><feBlend in2="BackgroundImageFix" result="effect1_dropShadow_373_187"/><feBlend in="SourceGraphic" in2="effect1_dropShadow_373_187" result="shape"/></filter></defs></svg>