<svg width="454" height="3087" fill="none" xmlns="http://www.w3.org/2000/svg"><path d="M453 508.935l-102.627 89.709m0 0l-28.296-206.612m28.296 206.612L453 674.225m-102.627-75.581l-51.947-35.291m23.651-171.321l-150.35-87.589m150.35 87.589l35.054 21.191m-35.054-21.191l-190.05 58.275M453 463.728l-95.869-50.505m-185.404-108.78l-14.782-88.649m14.782 88.649L84.303 437.239m87.424-132.796L31.09 290.624m140.637 13.819l150.35-68.164M2.794 287.843l28.296 2.781M1 265.24l155.945-49.446m0 0l165.132 20.485m-165.132-20.485L2.794 142.686m154.151 73.108L40.804 85.824m281.273 150.455l-114.03-60.748m114.03 60.748l83.199 42.735m-83.199-42.735l35.054 176.944M40.804 85.823L2.794 99.244m38.01-13.42L148.92 49.798M40.804 85.823l94.602 51.212M2.794 14.834L148.92 49.799m0 0L130.338 0m18.583 49.799L232.965 0m-84.044 49.799l35.476 2.71M342.982 0l-23.017 62.866m0 0L184.397 52.51m135.568 10.357L208.047 175.531M319.965 62.866l16.471 112.665M319.965 62.866l23.017-20.131m-158.585 9.774l-48.991 84.526m0 0l72.641 38.496m0 0h128.389m0 0l73.064-44.926m-73.064 44.926l68.84 103.483M453 131.384l-16.049-17.659-27.451 16.88m0 0l-66.518-87.87m0 0L393.029 0M453 209.437l-47.724 69.577m0 0L453 304.443m-95.869 108.78L453 345.765M132.027 450.307L63.61 468.673m68.417-18.366L47.983 643.851m84.044-193.544l166.399 113.046M63.61 468.673L2.793 488.451m60.816-19.778l20.693-31.434m0 0L31.09 290.624m53.213 146.615l-81.51-49.092m45.19 255.704l-45.19-65.692m45.19 65.692l250.443-80.498M47.983 643.851l149.084 114.078M47.983 643.851l-45.19 49.092m295.633-129.59L197.067 757.929m101.359-194.576l84.467 208.703h22.383L453 723.14m-255.933 34.789l-40.544 14.127m40.544-14.127l59.971 14.127" stroke="url(#paint0_linear_610_72)" stroke-opacity=".34"/><path d="M452.633 1034.34L350.089 944.7m0 0l-28.273 206.44m28.273-206.44l102.544-75.519M350.089 944.7l-51.904 35.262m23.631 171.178l-150.228 87.52m150.228-87.52l35.025-21.17m-35.025 21.17l-189.895-58.22m320.712-13.41l-95.792 50.46m-185.253 108.69l-14.77 88.58m14.77-88.58l-87.353-132.69m87.353 132.69l-140.522 13.81m140.522-13.81l150.228 68.11M2.792 1255.25l28.273-2.78M1 1277.83l155.818 49.41m0 0l164.998-20.47m-164.998 20.47L2.792 1400.29m154.026-73.05L40.771 1457.1m281.045-150.33l-113.937 60.7m113.937-60.7l83.132-42.7m-83.132 42.7l35.025-176.8M40.771 1457.1l-37.979-13.41m37.98 13.41l108.028 36m-108.029-36l94.526-51.17M2.792 1528.04L148.8 1493.1m0 0l-18.567 49.76m18.567-49.76l83.976 49.76M148.8 1493.1l35.448-2.71m158.456 52.47l-22.998-62.82m0 0l-135.458 10.35m135.458-10.35l-111.827-112.57m111.827 112.57l16.458-112.57m-16.458 112.57l22.998 20.12m-158.456-9.77l-48.951-84.46m0 0l72.582-38.46m0 0h128.285m0 0l73.004 44.89m-73.004-44.89l68.784-103.4m47.685 147.51l-16.036 17.64-27.429-16.86m0 0l-66.464 87.8m0 0l50.006 42.7m59.923-209.27l-47.685-69.52m0 0l47.685-25.41m-95.792-108.69l95.792 67.4m-320.712-104.45l-68.362-18.35m68.362 18.35L47.945 899.53m83.976 193.39l166.264-112.958M63.559 1074.57L2.792 1054.8m60.767 19.77l20.676 31.4m0 0l-53.17 146.5m53.17-146.5l-81.443 49.06m45.153-255.5L2.792 965.168m45.153-65.638l250.24 80.432M47.945 899.53l148.962-113.986M47.945 899.53L2.792 850.477m295.393 129.485L196.907 785.544m101.278 194.418l84.397-208.533h22.366l47.685 48.876m-255.726-34.761l-40.511-14.115m40.511 14.115l59.923-14.115" stroke="url(#paint1_linear_610_72)" stroke-opacity=".34"/><path d="M452.633 2577.19l-102.544-89.63m0 0L321.816 2694m28.273-206.44l102.544-75.52m-102.544 75.52l-51.904 35.26M321.816 2694l-150.228 87.52M321.816 2694l35.025-21.17M321.816 2694l-189.895-58.23m320.712-13.41l-95.792 50.47m-185.253 108.69l-14.77 88.58m14.77-88.58l-87.353-132.69m87.353 132.69l-140.522 13.81m140.522-13.81l150.228 68.11M2.792 2798.1l28.273-2.77M1 2820.69l155.818 49.41m0 0l164.998-20.47m-164.998 20.47L2.792 2943.14m154.026-73.04L40.771 2999.96m281.045-150.33l-113.937 60.7m113.937-60.7l83.132-42.7m-83.132 42.7l35.025-176.8m-316.07 327.13l-37.979-13.41m37.98 13.41l108.028 36m-108.029-36l94.526-51.17M2.792 3070.89l146.008-34.93m0 0l-18.567 49.75m18.567-49.75l83.976 49.75m-83.976-49.75l35.448-2.71m158.456 52.46l-22.998-62.81m0 0l-135.458 10.35m135.458-10.35l-111.827-112.57m111.827 112.57l16.458-112.57m-16.458 112.57l22.998 20.11m-158.456-9.76l-48.951-84.46m0 0l72.582-38.46m0 0h128.285m0 0l73.004 44.89m-73.004-44.89l68.784-103.4m47.685 147.51l-16.036 17.64-27.429-16.86m0 0l-66.464 87.79m0 0l50.006 42.7m59.923-209.26l-47.685-69.52m0 0l47.685-25.41m-95.792-108.69l95.792 67.4m-320.712-104.46l-68.362-18.35m68.362 18.35l-83.976-193.38m83.976 193.38l166.264-112.95m-234.626 94.6l-60.767-19.76m60.767 19.76l20.676 31.41m0 0l-53.17 146.5m53.17-146.5l-81.443 49.05m45.153-255.49l-45.153 65.64m45.153-65.64l250.24 80.43m-250.24-80.43l148.962-113.99M47.945 2442.39l-45.153-49.06m295.393 129.49L196.907 2328.4m101.278 194.42l84.397-208.53h22.366l47.685 48.87m-255.726-34.76l-40.511-14.11m40.511 14.11l59.923-14.11" stroke="url(#paint2_linear_610_72)" stroke-opacity=".34"/><path d="M453 2051.79l-102.627 89.71m0 0l-28.296-206.61m28.296 206.61L453 2217.08m-102.627-75.58l-51.947-35.29m23.651-171.32l-150.35-87.59m150.35 87.59l35.054 21.19m-35.054-21.19l-190.05 58.27M453 2006.59l-95.869-50.51M171.727 1847.3l-14.782-88.65m14.782 88.65l-87.424 132.8m87.424-132.8L31.09 1833.48m140.637 13.82l150.35-68.16M2.794 1830.7l28.296 2.78M1 1808.1l155.945-49.45m0 0l165.132 20.49m-165.132-20.49L2.794 1685.54m154.151 73.11L40.804 1628.68m281.273 150.46l-114.03-60.75m114.03 60.75l83.199 42.73m-83.199-42.73l35.054 176.94m-316.327-327.4l-38.01 13.42m38.01-13.42l108.117-36.02m-108.117 36.02l94.602 51.21M2.794 1557.69l146.127 34.97m0 0l-18.583-49.8m18.583 49.8l84.044-49.8m-84.044 49.8l35.476 2.71m158.585-52.51l-23.017 62.86m0 0l-135.568-10.35m135.568 10.35l-111.918 112.67m111.918-112.67l16.471 112.67m-16.471-112.67l23.017-20.13m-158.585 9.78l-48.991 84.52m0 0l72.641 38.5m0 0h128.389m0 0l73.064-44.93m-73.064 44.93l68.84 103.48M453 1674.24l-16.049-17.66-27.451 16.88m0 0l-66.518-87.87m0 0l50.047-42.73M453 1752.29l-47.724 69.58m0 0L453 1847.3m-95.869 108.78L453 1888.62m-320.973 104.54l-68.417 18.37m68.417-18.37l-84.044 193.55m84.044-193.55l166.399 113.05M63.61 2011.53l-60.816 19.78m60.816-19.78l20.693-31.43m0 0L31.09 1833.48m53.213 146.62L2.793 1931m45.19 255.71l-45.19-65.69m45.19 65.69l250.443-80.5m-250.443 80.5l149.084 114.08M47.983 2186.71l-45.19 49.09m295.633-129.59l-101.359 194.58m101.359-194.58l84.467 208.7h22.383L453 2266m-255.933 34.79l-40.544 14.12m40.544-14.12l59.971 14.12" stroke="url(#paint3_linear_610_72)" stroke-opacity=".34"/><defs><linearGradient id="paint0_linear_610_72" x1="227" y1="0" x2="227" y2="771.429" gradientUnits="userSpaceOnUse"><stop stop-color="#FFF500"/><stop offset=".534" stop-color="#FFA800"/><stop offset=".987" stop-color="#FF3D00"/></linearGradient><linearGradient id="paint1_linear_610_72" x1="226.816" y1="1542.86" x2="226.816" y2="772.056" gradientUnits="userSpaceOnUse"><stop stop-color="#FFF500"/><stop offset=".534" stop-color="#FFA800"/><stop offset=".987" stop-color="#FF3D00"/></linearGradient><linearGradient id="paint2_linear_610_72" x1="226.816" y1="3085.71" x2="226.816" y2="2314.91" gradientUnits="userSpaceOnUse"><stop stop-color="#FFF500"/><stop offset=".534" stop-color="#FFA800"/><stop offset=".987" stop-color="#FF3D00"/></linearGradient><linearGradient id="paint3_linear_610_72" x1="227" y1="1542.86" x2="227" y2="2314.29" gradientUnits="userSpaceOnUse"><stop stop-color="#FFF500"/><stop offset=".534" stop-color="#FFA800"/><stop offset=".987" stop-color="#FF3D00"/></linearGradient></defs></svg>