<svg width="307" height="353" fill="none" xmlns="http://www.w3.org/2000/svg"><path d="M104.991 62.265l1.151.63-5.269 9.628-6.653-3.64 2.227-4.07-12.52-6.85-2.274 4.154L75 58.477l5.314-9.713 1.404.768c.887.29 1.684.3 2.39.031.707-.27 1.466-.9 2.276-1.892.67-.825 1.896-2.866 3.678-6.122l3.105-5.742 20.225 11.102-8.401 15.356zm-13.264-8.826c-.4.463-.722.809-.97 1.038l7.131 3.902 5.407-9.882-6.289-3.44-.919 1.612a63.094 63.094 0 01-2.17 3.7 29.293 29.293 0 01-2.19 3.07zm35.744 32.579l-6.389-4.973L131.5 67.662l-5.657-4.403-1.165 1.445a63.351 63.351 0 01-2.735 3.305 29.29 29.29 0 01-2.653 2.68c-1.765 1.572-3.77 2.377-6.016 2.414-2.228.05-4.571-.882-7.029-2.795l3.833-4.925c.761.377 1.504.482 2.228.316.754-.17 1.632-.69 2.633-1.56.794-.707 2.33-2.525 4.61-5.454l3.985-5.171 18.187 14.196-14.25 18.308zm37.166 4.964a281.91 281.91 0 00-8.626 7.783 280.666 280.666 0 00-8.319 8.11l-5.167-5.508 5.415-5.08-3.218-3.43c-3.72.71-6.539 1.322-8.457 1.834l-5.955-6.348 8.798-1.145c.213-.053.532-.103.956-.15-1.083-1.997-1.472-3.768-1.166-5.312.321-1.53 1.158-2.929 2.512-4.199 1.727-1.62 3.68-2.282 5.859-1.985 2.179.296 4.742 2.015 7.69 5.159l4.488 4.784.024-.021 5.166 5.508zm-12.332 1.212l2.661-2.495-2.956-3.151c-1.255-1.338-2.242-2.313-2.962-2.925-.72-.612-1.29-.955-1.71-1.028-.421-.074-.802.05-1.144.37-.358.336-.506.724-.445 1.163.061.44.359 1.038.893 1.795.565.757 1.467 1.798 2.708 3.12l2.955 3.151zm23.418 29.314c1.536 2.487 2.477 4.601 2.825 6.341.366 1.73.268 3.157-.292 4.28-.56 1.123-1.503 2.093-2.828 2.911-1.924 1.188-3.85 1.399-5.777.633s-4.005-2.955-6.235-6.568l-2.992-4.847-.028.017-4.135-6.698a282.573 282.573 0 0010.019-5.884c3.068-1.894 6.318-4 9.75-6.32l12.388 20.069-5.473 3.378-8.253-13.37-1.961 1.211 2.992 4.847zm-8.269 3.6c.773 1.253 1.401 2.169 1.884 2.748.494.597.92.962 1.276 1.093.368.149.752.1 1.151-.147.399-.246.624-.573.674-.98.05-.406-.082-.965-.395-1.674-.312-.71-.844-1.673-1.595-2.889l-2.319-3.758-2.996 1.849 2.32 3.758zm28.245 14.794l-16.75 6.48 19.562.183 4.58 10.849a279.824 279.824 0 00-10.759 4.298 282.24 282.24 0 00-10.615 4.724l-3.198-7.577 16.321-6.264-19.109-.339-4.455-10.555c3.88-1.452 7.48-2.879 10.802-4.281a282.418 282.418 0 0010.572-4.741l3.049 7.223zm3.45 45.703a11.9 11.9 0 01.75 2.156c.305 1.265.335 2.344.09 3.238-.22.908-.619 1.619-1.198 2.132a4.27 4.27 0 01-1.894 1.016c-1.639.395-3.169.194-4.59-.605-1.401-.803-2.624-2.055-3.671-3.756-1.026-1.706-1.811-3.689-2.356-5.949-1.581-6.554-.322-11.345 3.775-14.374l.856 1.637a63.306 63.306 0 001.658 3.056 16.031 16.031 0 001.542 2.163c-.936.665-1.541 1.436-1.812 2.314-.245.893-.203 2.024.127 3.392.35 1.452.801 2.594 1.353 3.427.552.832 1.16 1.168 1.823 1.008.353-.085.58-.326.682-.724.101-.397.091-.987-.032-1.769-.102-.788-.321-1.876-.656-3.266l-.57-2.364 5.444-1.313.345 1.431c.38 1.576.752 2.847 1.117 3.813.385.96.806 1.385 1.262 1.275.519-.125.868-.494 1.049-1.109.207-.598.176-1.457-.094-2.577-.351-1.452-.936-2.562-1.758-3.329-.816-.747-1.855-1.231-3.116-1.454.357-2.434.419-4.951.188-7.55 2.479.455 4.579 1.562 6.297 3.32 1.724 1.779 2.979 4.296 3.764 7.552.51 2.115.688 4.08.533 5.895-.129 1.831-.566 3.341-1.311 4.53-.74 1.21-1.711 1.959-2.914 2.25-.705.17-1.377.156-2.017-.041-.62-.201-1.316-.725-2.091-1.569-.753-.85-1.612-2.135-2.575-3.856zm16.646 39.634c-3.607.128-7.473.351-11.599.668-4.127.318-7.982.69-11.565 1.115l-.577-7.498 8.678-.668-.903-11.741-8.679.668-.577-7.498c4.14-.147 8.007-.359 11.602-.636 3.594-.277 7.448-.659 11.562-1.147l.577 7.498-8.679.668.904 11.742 8.678-.668.578 7.497zm-17.681 13.485c-.581 8.086-.916 13.955-1.005 17.607a22.192 22.192 0 00-2.689-.497c-.913-.091-2.072-.191-3.476-.3l1.912-24.79c4.113.488 7.967.871 11.562 1.148 3.594.277 7.462.49 11.601.638l-1.911 24.79-5.775-.445 1.331-17.261-3.063-.236a236.33 236.33 0 00-.381 4.528 297.7 297.7 0 00-.618 10.512l-5.488-.423a300.29 300.29 0 001.318-15.015l-3.318-.256zm-10.82 33.979c1.114-4.69 2.932-7.909 5.452-9.657 2.52-1.747 5.628-2.182 9.322-1.304 3.715.883 6.388 2.691 8.019 5.425 1.631 2.733 1.889 6.446.775 11.136-1.559 6.559-4.854 10.414-9.885 11.564-.2-2.02-.645-4.439-1.335-7.257 1.305-.325 2.394-1.075 3.265-2.25a10.096 10.096 0 001.78-3.754c.473-1.993.297-3.602-.53-4.829-.806-1.223-1.977-2.016-3.513-2.381-1.66-.395-3.143-.199-4.448.588-1.29.812-2.191 2.297-2.704 4.455-.409 1.723-.454 3.16-.135 4.31.339 1.155 1.075 2.119 2.207 2.892-1.318 1.485-2.863 3.42-4.636 5.806-2.265-1.635-3.607-3.784-4.026-6.45-.419-2.665-.289-5.429.392-8.294zm-11.898 36.79c1.278.102 2.894.197 4.85.284l3.986-9.397-3.588-3.26 3.136-7.395 17.889 17.32-4.598 10.841-24.911-.763 3.236-7.63zm10.158.554c2.379.128 4.766.237 7.161.326l2.215.105a782.078 782.078 0 00-6.815-6.47l-2.561 6.039z" fill="#fff"/></svg>