<svg width="1017" height="921" fill="none" xmlns="http://www.w3.org/2000/svg"><g filter="url(#filter0_d_373_173)" shape-rendering="crispEdges"><path d="M118.511 664.448L51.365 348.641l122.302 49.263-15.918-273.475 205.984 35.808 72.554-127.14 124.904 52.335 95.796-54.755 67.87 106.922 241.11 34.968-103.752 158.782 61.417 135.149-34.758 143.934-209.901 61.694-96.279 177.402-235.248-186.762-228.935 1.682z" fill="url(#paint0_linear_373_173)"/><path d="M118.511 664.448L51.365 348.641l122.302 49.263-15.918-273.475 205.984 35.808 72.554-127.14 124.904 52.335 95.796-54.755 67.87 106.922 241.11 34.968-103.752 158.782 61.417 135.149-34.758 143.934-209.901 61.694-96.279 177.402-235.248-186.762-228.935 1.682z" stroke="url(#paint1_linear_373_173)"/></g><defs><linearGradient id="paint0_linear_373_173" x1="564.093" y1="12.66" x2="408.337" y2="815.711" gradientUnits="userSpaceOnUse"><stop stop-color="#FF9D0B"/><stop offset="1" stop-color="#FF8A00"/></linearGradient><linearGradient id="paint1_linear_373_173" x1="650.001" y1="-4.5" x2="510.501" y2="815.5" gradientUnits="userSpaceOnUse"><stop offset=".29" stop-color="#fff"/><stop offset="1" stop-color="#fff" stop-opacity="0"/></linearGradient><filter id="filter0_d_373_173" x=".681" y=".006" width="1016.13" height="920.284" filterUnits="userSpaceOnUse" color-interpolation-filters="sRGB"><feFlood flood-opacity="0" result="BackgroundImageFix"/><feColorMatrix in="SourceAlpha" values="0 0 0 0 0 0 0 0 0 0 0 0 0 0 0 0 0 0 127 0" result="hardAlpha"/><feOffset dy="20"/><feGaussianBlur stdDeviation="25"/><feComposite in2="hardAlpha" operator="out"/><feColorMatrix values="0 0 0 0 0 0 0 0 0 0 0 0 0 0 0 0 0 0 0.5 0"/><feBlend in2="BackgroundImageFix" result="effect1_dropShadow_373_173"/><feBlend in="SourceGraphic" in2="effect1_dropShadow_373_173" result="shape"/></filter></defs></svg>