<svg width="459" height="304" fill="none" xmlns="http://www.w3.org/2000/svg"><mask id="path-1-inside-1_843_3" fill="#fff"><path d="M43 226.355a35 35 0 1035 35H43v-35z"/></mask><path d="M43 226.355a35 35 0 1035 35H43v-35z" stroke="#FF946B" stroke-width="2" mask="url(#path-1-inside-1_843_3)"/><path d="M424 70.355a35.002 35.002 0 0034.327-41.828 34.994 34.994 0 00-27.499-27.5 35 35 0 00-35.929 14.883C391.053 21.666 389 30.441 389 37.364h35v32.991z" fill="url(#paint0_radial_843_3)"/><g filter="url(#filter0_f_843_3)"><path d="M43 226.355a35 35 0 1035 35H43v-35z" stroke="#FF8A00" stroke-width="3"/></g><defs><radialGradient id="paint0_radial_843_3" cx="0" cy="0" r="1" gradientUnits="userSpaceOnUse" gradientTransform="matrix(-17.78658 51.35877 -55.53086 -19.23145 441.787 17.005)"><stop stop-color="#FF5E36"/><stop offset="1" stop-color="#FF9A00"/></radialGradient><filter id="filter0_f_843_3" x=".5" y="218.855" width="85" height="85" filterUnits="userSpaceOnUse" color-interpolation-filters="sRGB"><feFlood flood-opacity="0" result="BackgroundImageFix"/><feBlend in="SourceGraphic" in2="BackgroundImageFix" result="shape"/><feGaussianBlur stdDeviation="3" result="effect1_foregroundBlur_843_3"/></filter></defs></svg>