<svg width="853" height="842" fill="none" xmlns="http://www.w3.org/2000/svg"><g filter="url(#filter0_d_350_28)" shape-rendering="crispEdges"><path d="M180.448 63.955l180.188 79.11-6.883-112.158 191.556 10.655L636.08 229.09l84.15 37.391 81.864 165.785-40.789 85.062 4.73 77.074-253.17 120.802-275.245 56.208L78.173 636.619 50.859 500.434l100.857-176.65-35.605-194.08 64.337-65.75z" fill="url(#paint0_linear_350_28)" fill-opacity=".7"/><path d="M180.448 63.955l180.188 79.11-6.883-112.158 191.556 10.655L636.08 229.09l84.15 37.391 81.864 165.785-40.789 85.062 4.73 77.074-253.17 120.802-275.245 56.208L78.173 636.619 50.859 500.434l100.857-176.65-35.605-194.08 64.337-65.75z" stroke="url(#paint1_linear_350_28)"/></g><defs><linearGradient id="paint0_linear_350_28" x1="363.869" y1="30.287" x2="407.137" y2="735.276" gradientUnits="userSpaceOnUse"><stop stop-color="#95FF00"/><stop offset="1" stop-color="#59F04B"/></linearGradient><linearGradient id="paint1_linear_350_28" x1="399.579" y1="28.095" x2="444.421" y2="758.72" gradientUnits="userSpaceOnUse"><stop stop-color="#FFFEFE"/><stop offset="1" stop-color="#FFFEFE" stop-opacity="0"/></linearGradient><filter id="filter0_d_350_28" x=".332" y=".377" width="852.318" height="841.574" filterUnits="userSpaceOnUse" color-interpolation-filters="sRGB"><feFlood flood-opacity="0" result="BackgroundImageFix"/><feColorMatrix in="SourceAlpha" values="0 0 0 0 0 0 0 0 0 0 0 0 0 0 0 0 0 0 127 0" result="hardAlpha"/><feOffset dy="20"/><feGaussianBlur stdDeviation="25"/><feComposite in2="hardAlpha" operator="out"/><feColorMatrix values="0 0 0 0 0 0 0 0 0 0 0 0 0 0 0 0 0 0 0.5 0"/><feBlend in2="BackgroundImageFix" result="effect1_dropShadow_350_28"/><feBlend in="SourceGraphic" in2="effect1_dropShadow_350_28" result="shape"/></filter></defs></svg>