<svg width="773" height="653" fill="none" xmlns="http://www.w3.org/2000/svg"><g filter="url(#filter0_d_350_27)" shape-rendering="crispEdges"><path d="M195.83 454.283L51 241.849l97.66-76.675 97.661-76.675 290.324-57.092 25.245 5.685 116.262 26.18L722 157.54v155.342L610.388 582.407l-242.49-55.764H172.577l23.253-72.36z" fill="url(#paint0_linear_350_27)" fill-opacity=".6"/><path d="M195.83 454.283L51 241.849l97.66-76.675 97.661-76.675 290.324-57.092 25.245 5.685 116.262 26.18L722 157.54v155.342L610.388 582.407l-242.49-55.764H172.577l23.253-72.36z" stroke="url(#paint1_linear_350_27)"/></g><defs><linearGradient id="paint0_linear_350_27" x1="386.5" y1="31.407" x2="386.5" y2="582.407" gradientUnits="userSpaceOnUse"><stop stop-color="#FFDD2A"/><stop offset=".519" stop-color="#FF8A00"/><stop offset="1" stop-color="#FF8700"/></linearGradient><linearGradient id="paint1_linear_350_27" x1="386.5" y1="31.407" x2="386.5" y2="582.407" gradientUnits="userSpaceOnUse"><stop stop-color="#fff"/><stop offset="1" stop-color="#fff" stop-opacity="0"/></linearGradient><filter id="filter0_d_350_27" x=".323" y=".896" width="772.177" height="652.093" filterUnits="userSpaceOnUse" color-interpolation-filters="sRGB"><feFlood flood-opacity="0" result="BackgroundImageFix"/><feColorMatrix in="SourceAlpha" values="0 0 0 0 0 0 0 0 0 0 0 0 0 0 0 0 0 0 127 0" result="hardAlpha"/><feOffset dy="20"/><feGaussianBlur stdDeviation="25"/><feComposite in2="hardAlpha" operator="out"/><feColorMatrix values="0 0 0 0 0 0 0 0 0 0 0 0 0 0 0 0 0 0 0.5 0"/><feBlend in2="BackgroundImageFix" result="effect1_dropShadow_350_27"/><feBlend in="SourceGraphic" in2="effect1_dropShadow_350_27" result="shape"/></filter></defs></svg>