<svg width="260" height="226" fill="none" xmlns="http://www.w3.org/2000/svg"><path d="M30.468 109.344c3.893 1.694 6.3 3.567 7.222 5.62.93 2.033.85 4.301-.239 6.805-.749 1.722-1.69 3.057-2.825 4.006-1.125.929-2.6 1.405-4.423 1.425-1.816.002-4.063-.581-6.743-1.747l-6.104-2.655-2.247 5.165-7.218-3.141a282.923 282.923 0 004.869-10.549 283.092 283.092 0 004.4-10.754l7.218 3.14-.013.03 6.103 2.655zm-6.599 9.553c1.624.706 2.863 1.175 3.716 1.407.88.22 1.55.232 2.008.036.477-.188.856-.605 1.137-1.25.28-.646.333-1.193.156-1.643-.149-.46-.608-.927-1.379-1.402-.75-.466-1.958-1.061-3.62-1.785l-4.05-1.761-2.017 4.636 4.05 1.762zm30.149 23.525c-4.74-1.185-7.97-3.081-9.693-5.689-1.718-2.629-2.11-5.806-1.18-9.531.922-3.684 2.749-6.284 5.48-7.8 2.754-1.51 6.51-1.67 11.27-.48 4.78 1.195 8.02 3.105 9.717 5.728 1.717 2.629 2.115 5.785 1.194 9.469-.937 3.746-2.768 6.367-5.495 7.862-2.727 1.495-6.491 1.642-11.293.441zm1.584-6.333c2.297.575 4.062.554 5.293-.061 1.237-.637 2.088-1.886 2.554-3.749.455-1.821.287-3.304-.505-4.447-.791-1.144-2.335-2.003-4.633-2.577-2.276-.569-4.033-.536-5.27.1-1.236.637-2.082 1.866-2.538 3.687-.46 1.842-.295 3.334.497 4.478.791 1.144 2.325 2 4.602 2.569zm40.731.974a11.82 11.82 0 012.283-.045c1.297.102 2.332.407 3.106.917.796.491 1.348 1.091 1.656 1.8.31.687.436 1.393.379 2.116-.131 1.68-.797 3.072-1.996 4.176-1.198 1.083-2.768 1.859-4.709 2.327-1.94.447-4.068.58-6.387.398-6.72-.528-10.886-3.208-12.497-8.043l1.822-.306a64.523 64.523 0 003.42-.63c.959-.225 1.803-.49 2.534-.797.342 1.097.888 1.91 1.638 2.44.773.51 1.862.82 3.265.93 1.489.117 2.715.042 3.677-.225.963-.267 1.47-.74 1.524-1.421.028-.361-.13-.652-.477-.872-.347-.22-.911-.392-1.693-.518-.78-.147-1.883-.276-3.308-.388l-2.424-.19.438-5.583 1.467.115c1.617.127 2.94.167 3.971.119 1.033-.069 1.567-.337 1.604-.805.042-.531-.202-.979-.73-1.341-.504-.382-1.331-.618-2.48-.708-1.488-.117-2.725.096-3.709.64-.963.545-1.745 1.382-2.348 2.512-2.204-1.093-4.577-1.932-7.12-2.517 1.2-2.217 2.903-3.87 5.107-4.96 2.225-1.088 5.007-1.501 8.346-1.239 2.17.171 4.093.61 5.77 1.32 1.701.69 3.002 1.573 3.902 2.649.921 1.078 1.333 2.234 1.236 3.467-.057.724-.278 1.359-.663 1.906-.384.527-1.097 1.027-2.14 1.502-1.041.453-2.53.871-4.464 1.254zm39.18-12.508c.132 3.606.359 7.472.681 11.598.322 4.126.698 7.98 1.128 11.563l-7.497.586-.678-8.678-11.74.917.678 8.678-7.498.585a282.239 282.239 0 00-.649-11.6 282.313 282.313 0 00-1.16-11.561l7.497-.586.678 8.678 11.74-.917-.677-8.678 7.497-.585zm12.613-2.231l3.724 17.57 3.303-19.283 11.441-2.789a279.635 279.635 0 002.526 11.307c.98 4.021 1.97 7.765 2.969 11.233l-7.99 1.948-3.579-17.112-3.385 18.81-11.13 2.713a283.966 283.966 0 00-2.503-11.346 282.769 282.769 0 00-2.992-11.194l7.616-1.857zm54.642-.842l4.962 11.765-6.398 2.698-2.425-5.749-18.634 7.859a283.66 283.66 0 00-4.279-10.802 282.076 282.076 0 00-4.75-10.604l6.929-2.922 6.517 15.45 9.965-4.203-6.516-15.451 6.929-2.922a285.15 285.15 0 004.333 10.849 280.25 280.25 0 001.982 4.617l1.385-.585zm27.462-8.424a148.01 148.01 0 00-3.824-2.997l-8.63 5.451 1.09 4.723-6.791 4.289-4.829-24.427 9.956-6.288 20.035 14.824-7.007 4.425zm-8.031-6.244a426.956 426.956 0 00-5.699-4.349l-1.76-1.349c.405 2.04 1.043 5.107 1.912 9.201l5.547-3.503z" fill="#fff"/></svg>