<svg width="640" height="772" fill="none" xmlns="http://www.w3.org/2000/svg"><path d="M459.474 0H639.86v771.627H459.474V0zm0 256.081H0v85.736h459.474v-85.736z" fill="#5F43C1" fill-opacity=".7"/><path fill-rule="evenodd" clip-rule="evenodd" d="M492.374 139.886h-7.941l-15.883 18.049v8.461l23.824-26.51zm-2.269 40.612h-7.941l34.035-40.612h7.941l-34.035 40.612zm23.258 0h9.076l34.602-40.612h-9.076l-34.602 40.612zm40.842 0h-8.509l33.468-40.612h9.076l-34.035 40.612zm23.257 0h8.509l34.602-40.612h-7.658l-35.453 40.612zm40.842 0h-8.509l27.796-32.152v9.589l-19.287 22.563z" fill="#fff"/><path d="M464.009 552.197l-26.277 26.48 49.788 48.849-49.126 49.507 26.631 26.129 49.126-49.508 49.787 48.849 26.277-26.48-49.788-48.849 49.125-49.507-26.63-26.128-49.126 49.507-49.787-48.849z" stroke="#fff" stroke-width="3"/></svg>