<svg width="1600" height="2306" fill="none" xmlns="http://www.w3.org/2000/svg"><path d="M781.144 813.278v-98.684h562.026V580.471H-89.493V475.789H1511v337.489H892.649v142.809h581.471v338.403h-388.65v170.91h292.49v359.5h-356.6v380.6H-94v-85h986.649v-412.6h356.591v-121H947.321v-395.5h395.849v-117.5H781.144V813.278zM-89.493 253.933v97.002H947.322V100H781.144v153.933H-89.493z" fill="#FF65B8"/><g filter="url(#filter0_f_701_5)" fill="#FF1091"><path d="M781.645 813.278v-98.684h562.025V580.471H-88.992V475.789H1511.5v337.489H893.15v142.809h581.47v338.403h-388.65v170.91h292.49v359.5h-356.6v380.6H-93.5v-85h986.65v-412.6h356.6v-121H947.822v-395.5h395.848v-117.5H781.645V813.278zM-88.992 253.933v97.002H947.822V100H781.645v153.933H-88.992z"/></g><defs><filter id="filter0_f_701_5" x="-193.499" y="0" width="1805" height="2305.5" filterUnits="userSpaceOnUse" color-interpolation-filters="sRGB"><feFlood flood-opacity="0" result="BackgroundImageFix"/><feBlend in="SourceGraphic" in2="BackgroundImageFix" result="shape"/><feGaussianBlur stdDeviation="50" result="effect1_foregroundBlur_701_5"/></filter></defs></svg>