<svg width="401" height="2058" fill="none" xmlns="http://www.w3.org/2000/svg"><path d="M399.675 233.641l-90.746-79.658m0 0l-25.021 183.463m25.021-183.463l90.746-67.113m-90.746 67.113l-45.934 31.337m20.913 152.126l-132.945 77.776m132.945-77.776l30.996-18.817m-30.996 18.817L115.859 285.7m283.816-11.917l-84.771 44.846m-163.941 96.593l-13.071 78.716m13.071-78.716L73.66 297.304m77.303 117.918L26.607 427.493m124.356-12.271l132.945 60.527M1.586 429.961l25.02-2.468M0 450.033l137.892 43.905m0 0l146.016-18.189m-146.016 18.189L1.586 558.856m136.306-64.918L35.196 609.347m248.712-133.598L183.079 529.69m100.829-53.941l73.568-37.947m-73.568 37.947l30.996-157.12M35.196 609.347L1.586 597.43m33.61 11.917l95.601 31.989m-95.601-31.989l83.651-45.473M1.586 672.383l129.211-31.047m0 0l-16.432 44.219m16.432-44.219l74.315 44.219m-74.315-44.219l31.369-2.407m140.227 46.626l-20.352-55.823m0 0l-119.875 9.197m119.875-9.197L183.079 529.69m98.962 100.042l14.564-100.042m-14.564 100.042l20.352 17.876m-140.227-8.679l-43.319-75.055m0 0l64.232-34.184m0 0h113.526m0 0l64.605 39.893m-64.605-39.893l60.871-91.888m42.199 131.089l-14.191 15.681-24.274-14.989m0 0l-58.817 78.025m0 0l44.253 37.947m53.029-185.972l-42.199-61.781m0 0l42.199-22.58m-84.771-96.593l84.771 59.9M115.859 285.7l-60.497-16.308m60.497 16.308L41.544 113.841M115.86 285.7l147.136-100.38M55.362 269.392L1.586 251.83m53.776 17.562l18.297 27.912m0 0L26.607 427.493m47.052-130.189L1.587 340.896m39.958-227.055L1.586 172.173m39.958-58.332l221.451 71.479m-221.45-71.479L173.368 12.544M41.544 113.841L1.586 70.249M262.995 185.32L173.369 12.544m89.626 172.776L337.684 0h19.792l42.199 43.435m-226.306-30.89L137.519 0m35.85 12.544L226.398 0" stroke="url(#paint0_linear_406_2019)" stroke-opacity=".23"/><path d="M399.675 1604.75l-90.746-79.66m0 0l-25.021 183.47m25.021-183.47l90.746-67.11m-90.746 67.11l-45.934 31.34m20.913 152.13l-132.945 77.77m132.945-77.77l30.996-18.82m-30.996 18.82l-168.049-51.75m283.816-11.92l-84.771 44.85m-163.941 96.59l-13.071 78.72m13.071-78.72L73.66 1668.41m77.303 117.92L26.607 1798.6m124.356-12.27l132.945 60.53M1.586 1801.07l25.02-2.47M0 1821.14l137.892 43.91m0 0l146.016-18.19m-146.016 18.19L1.586 1929.97m136.306-64.92L35.196 1980.46m248.712-133.6l-100.829 53.94m100.829-53.94l73.568-37.95m-73.568 37.95l30.996-157.12M35.196 1980.46l-33.61-11.92m33.61 11.92l95.601 31.99m-95.601-31.99l83.651-45.48M1.586 2043.49l129.211-31.04m0 0l-16.432 44.21m16.432-44.21l74.315 44.21m-74.315-44.21l31.369-2.41m140.227 46.62l-20.352-55.82m0 0l-119.875 9.2m119.875-9.2l-98.962-100.04m98.962 100.04l14.564-100.04m-14.564 100.04l20.352 17.88m-140.227-8.68l-43.319-75.06m0 0l64.232-34.18m0 0h113.526m0 0l64.605 39.89m-64.605-39.89l60.871-91.89M399.675 1940l-14.191 15.68-24.274-14.99m0 0l-58.817 78.03m0 0l44.253 37.94m53.029-185.97l-42.199-61.78m0 0l42.199-22.58m-84.771-96.59l84.771 59.9m-283.816-92.83l-60.497-16.31m60.497 16.31l-74.315-171.86m74.315 171.86l147.136-100.38M55.362 1640.5l-53.776-17.56m53.776 17.56l18.297 27.91m0 0L26.607 1798.6m47.052-130.19l-72.073 43.6m39.958-227.06l-39.958 58.33m39.958-58.33l221.451 71.48m-221.45-71.48l131.824-101.3m-131.825 101.3l-39.958-43.59m261.409 115.07l-89.626-172.78m89.626 172.78l74.689-185.32h19.792l42.199 43.44m-226.306-30.9l-35.85-12.54m35.85 12.54l53.029-12.54" stroke="url(#paint1_linear_406_2019)" stroke-opacity=".23"/><path d="M400 1137.84l-90.82 79.72m0 0l-25.041-183.61m25.041 183.61l90.82 67.17m-90.82-67.17l-45.971-31.36m20.93-152.25l-133.053-77.842m133.053 77.842l31.021 18.83m-31.021-18.83l-168.186 51.78M400 1097.66l-84.84-44.88m-164.074-96.672l-13.082-78.781m13.082 78.781L73.719 1074.12m77.367-118.012L26.628 943.827m124.458 12.281l133.053-60.576M1.587 941.356l25.041 2.471M0 921.269l138.004-43.942m0 0l146.135 18.205m-146.135-18.205L1.587 812.357m136.417 64.97L35.224 761.825M284.14 895.532l-100.911-53.985m100.911 53.985l73.628 37.978m-73.628-37.978l31.021 157.248M35.224 761.825L1.587 773.751m33.637-11.926l95.679-32.015m-95.679 32.015l83.719 45.51M1.587 698.737l129.316 31.073m0 0l-16.445-44.255m16.445 44.255l74.376-44.255m-74.376 44.255l31.395 2.409m140.341-46.664l-20.369 55.868m0 0l-119.972-9.204m119.972 9.204l-99.042 100.124m99.042-100.124l14.576 100.124M282.27 741.423l20.369-17.89m-140.341 8.686l-43.355 75.116m0 0l64.285 34.212m0 0h113.618m0 0l64.658-39.926m-64.658 39.926l60.921 91.963M400 802.313l-14.202-15.693-24.294 15.001m0 0l-58.865-78.088m0 0l44.289-37.978M400 871.678l-42.233 61.832m0 0L400 956.108m-84.84 96.672L400 992.83m-284.047 92.9l-60.546 16.33m60.546-16.33l-74.375 172m74.375-172l147.256 100.47m-207.802-84.14l-53.82 17.57m53.82-17.57l18.312-27.94m0 0L26.63 943.827m47.09 130.293l-72.132-43.63m39.991 227.24l-39.99-58.38m39.99 58.38l221.631-71.53m-221.63 71.53l131.931 101.38M41.578 1257.73l-39.99 43.63m261.621-115.16l-89.699 172.91m89.699-172.91l74.749 185.47h19.809L400 1328.2m-226.49 30.91l-35.879 12.56m35.879-12.56l53.072 12.56" stroke="url(#paint2_linear_406_2019)" stroke-opacity=".23"/><defs><linearGradient id="paint0_linear_406_2019" x1="199.837" y1="685.555" x2="199.837" y2=".557" gradientUnits="userSpaceOnUse"><stop stop-color="#6201FA"/><stop offset=".534" stop-color="#FF00A9"/><stop offset=".987" stop-color="#E826EC"/></linearGradient><linearGradient id="paint1_linear_406_2019" x1="199.837" y1="2056.66" x2="199.837" y2="1371.67" gradientUnits="userSpaceOnUse"><stop stop-color="#6201FA"/><stop offset=".534" stop-color="#FF00A9"/><stop offset=".987" stop-color="#E826EC"/></linearGradient><linearGradient id="paint2_linear_406_2019" x1="200" y1="685.555" x2="200" y2="1371.11" gradientUnits="userSpaceOnUse"><stop stop-color="#6201FA"/><stop offset=".534" stop-color="#FF00A9"/><stop offset=".987" stop-color="#E826EC"/></linearGradient></defs></svg>