<svg width="426" height="578" fill="none" xmlns="http://www.w3.org/2000/svg"><path d="M13.179 493.897h355.816V47.166m43.638-34.579V256.31h-88.534m0 95.369h88.534m0 24.54h-88.534" stroke="#fff" stroke-width="3" stroke-linecap="round"/><g filter="url(#filter0_f_793_3)"><path d="M13.179 493.897h355.816V47.166m43.638-34.579V256.31h-88.534m0 95.369h88.534m0 24.54h-88.534" stroke="#fff" stroke-width="3" stroke-linecap="round"/></g><path d="M282 355.731h-11.5v21.5H249v11.5h21.5v21.5H282v-21.5h21.5v-11.5H282v-21.5z" stroke="#fff" stroke-width="3"/><g filter="url(#filter1_f_793_3)"><path d="M282 355.731h-11.5v21.5H249v11.5h21.5v21.5H282v-21.5h21.5v-11.5H282v-21.5z" stroke="#fff" stroke-width="3"/></g><path d="M145.275 490.731h-10.55v19.725H115v10.551h19.725v19.724h10.55v-19.724H165v-10.551h-19.725v-19.725z" stroke="#fff" stroke-width="3"/><g filter="url(#filter2_f_793_3)"><path d="M145.275 490.731h-10.55v19.725H115v10.551h19.725v19.724h10.55v-19.724H165v-10.551h-19.725v-19.725z" stroke="#fff" stroke-width="3"/></g><path d="M322.256 243.814l-9.847 3.789 7.083 18.409-18.409 7.083 3.788 9.847 18.41-7.083 7.083 18.409 9.846-3.788-7.083-18.41 18.41-7.083-3.789-9.846-18.409 7.083-7.083-18.41z" fill="#fff"/><g filter="url(#filter3_f_793_3)"><path d="M322.256 243.814l-9.847 3.789 7.083 18.409-18.409 7.083 3.788 9.847 18.41-7.083 7.083 18.409 9.846-3.788-7.083-18.41 18.41-7.083-3.789-9.846-18.409 7.083-7.083-18.41z" fill="#fff"/></g><path d="M335.749 93.427l-5.383-12.09L307.761 91.4l-10.065-22.605-12.091 5.384 10.065 22.605-22.605 10.065 5.383 12.091 22.605-10.065 10.065 22.605 12.091-5.384-10.065-22.605 22.605-10.065z" fill="#fff" stroke="#fff"/><g filter="url(#filter4_f_793_3)"><path d="M335.749 93.427l-5.383-12.09L307.761 91.4l-10.065-22.605-12.091 5.384 10.065 22.605-22.605 10.065 5.383 12.091 22.605-10.065 10.065 22.605 12.091-5.384-10.065-22.605 22.605-10.065z" fill="#fff"/><path d="M335.749 93.427l-5.383-12.09L307.761 91.4l-10.065-22.605-12.091 5.384 10.065 22.605-22.605 10.065 5.383 12.091 22.605-10.065 10.065 22.605 12.091-5.384-10.065-22.605 22.605-10.065z" stroke="#fff"/></g><path d="M188.178 552.72l1.014-8.078-15.101-1.897 1.897-15.102-8.078-1.014-1.897 15.101-15.101-1.897-1.015 8.078 15.102 1.897-1.897 15.101 8.077 1.015 1.897-15.102 15.102 1.898z" fill="#fff" stroke="#fff"/><g filter="url(#filter5_f_793_3)"><path d="M188.178 552.72l1.014-8.078-15.101-1.897 1.897-15.102-8.078-1.014-1.897 15.101-15.101-1.897-1.015 8.078 15.102 1.897-1.897 15.101 8.077 1.015 1.897-15.102 15.102 1.898z" fill="#fff"/><path d="M188.178 552.72l1.014-8.078-15.101-1.897 1.897-15.102-8.078-1.014-1.897 15.101-15.101-1.897-1.015 8.078 15.102 1.897-1.897 15.101 8.077 1.015 1.897-15.102 15.102 1.898z" stroke="#fff"/></g><path d="M293.779 57.39l-.082-12.774-23.884.153-.154-23.884-12.775.082.154 23.884-23.885.154.082 12.775 23.885-.154.153 23.884 12.775-.082-.153-23.884 23.884-.153z" stroke="#fff" stroke-width="3"/><g filter="url(#filter6_f_793_3)"><path d="M293.779 57.39l-.082-12.774-23.884.153-.154-23.884-12.775.082.154 23.884-23.885.154.082 12.775 23.885-.154.153 23.884 12.775-.082-.153-23.884 23.884-.153z" stroke="#fff" stroke-width="3"/></g><defs><filter id="filter0_f_793_3" x=".679" y=".087" width="424.454" height="506.31" filterUnits="userSpaceOnUse" color-interpolation-filters="sRGB"><feFlood flood-opacity="0" result="BackgroundImageFix"/><feBlend in="SourceGraphic" in2="BackgroundImageFix" result="shape"/><feGaussianBlur stdDeviation="5.5" result="effect1_foregroundBlur_793_3"/></filter><filter id="filter1_f_793_3" x="236.5" y="343.231" width="79.5" height="79.5" filterUnits="userSpaceOnUse" color-interpolation-filters="sRGB"><feFlood flood-opacity="0" result="BackgroundImageFix"/><feBlend in="SourceGraphic" in2="BackgroundImageFix" result="shape"/><feGaussianBlur stdDeviation="5.5" result="effect1_foregroundBlur_793_3"/></filter><filter id="filter2_f_793_3" x="102.5" y="478.231" width="75" height="75" filterUnits="userSpaceOnUse" color-interpolation-filters="sRGB"><feFlood flood-opacity="0" result="BackgroundImageFix"/><feBlend in="SourceGraphic" in2="BackgroundImageFix" result="shape"/><feGaussianBlur stdDeviation="5.5" result="effect1_foregroundBlur_793_3"/></filter><filter id="filter3_f_793_3" x="290.083" y="232.814" width="72.454" height="72.454" filterUnits="userSpaceOnUse" color-interpolation-filters="sRGB"><feFlood flood-opacity="0" result="BackgroundImageFix"/><feBlend in="SourceGraphic" in2="BackgroundImageFix" result="shape"/><feGaussianBlur stdDeviation="5.5" result="effect1_foregroundBlur_793_3"/></filter><filter id="filter4_f_793_3" x="261.405" y="57.136" width="86.005" height="86.005" filterUnits="userSpaceOnUse" color-interpolation-filters="sRGB"><feFlood flood-opacity="0" result="BackgroundImageFix"/><feBlend in="SourceGraphic" in2="BackgroundImageFix" result="shape"/><feGaussianBlur stdDeviation="5.5" result="effect1_foregroundBlur_793_3"/></filter><filter id="filter5_f_793_3" x="138.339" y="515.07" width="62.412" height="62.412" filterUnits="userSpaceOnUse" color-interpolation-filters="sRGB"><feFlood flood-opacity="0" result="BackgroundImageFix"/><feBlend in="SourceGraphic" in2="BackgroundImageFix" result="shape"/><feGaussianBlur stdDeviation="5.5" result="effect1_foregroundBlur_793_3"/></filter><filter id="filter6_f_793_3" x="220.644" y="8.375" width="85.645" height="85.645" filterUnits="userSpaceOnUse" color-interpolation-filters="sRGB"><feFlood flood-opacity="0" result="BackgroundImageFix"/><feBlend in="SourceGraphic" in2="BackgroundImageFix" result="shape"/><feGaussianBlur stdDeviation="5.5" result="effect1_foregroundBlur_793_3"/></filter></defs></svg>