<svg width="858" height="775" fill="none" xmlns="http://www.w3.org/2000/svg"><g filter="url(#filter0_d_373_165)" shape-rendering="crispEdges"><path d="M266.933 137.198L331.604 31l405.604 42.438L807 233.172l-69.792 164.689 26.231 224.744H583.104L419.164 704 266.933 508.034 51 345.822l119.911-184.715 96.022-23.909z" fill="url(#paint0_linear_373_165)" fill-opacity=".6"/><path d="M266.933 137.198L331.604 31l405.604 42.438L807 233.172l-69.792 164.689 26.231 224.744H583.104L419.164 704 266.933 508.034 51 345.822l119.911-184.715 96.022-23.909z" stroke="url(#paint1_linear_373_165)"/></g><defs><linearGradient id="paint0_linear_373_165" x1="458.041" y1="52.81" x2="458.041" y2="636.959" gradientUnits="userSpaceOnUse"><stop stop-color="#DE00CC"/><stop offset="1" stop-color="#8A0098"/></linearGradient><linearGradient id="paint1_linear_373_165" x1="429" y1="44.5" x2="420.5" y2="704" gradientUnits="userSpaceOnUse"><stop offset=".409" stop-color="#fff"/><stop offset="1" stop-color="#fff" stop-opacity="0"/></linearGradient><filter id="filter0_d_373_165" x=".326" y=".47" width="857.218" height="774.16" filterUnits="userSpaceOnUse" color-interpolation-filters="sRGB"><feFlood flood-opacity="0" result="BackgroundImageFix"/><feColorMatrix in="SourceAlpha" values="0 0 0 0 0 0 0 0 0 0 0 0 0 0 0 0 0 0 127 0" result="hardAlpha"/><feOffset dy="20"/><feGaussianBlur stdDeviation="25"/><feComposite in2="hardAlpha" operator="out"/><feColorMatrix values="0 0 0 0 0 0 0 0 0 0 0 0 0 0 0 0 0 0 0.5 0"/><feBlend in2="BackgroundImageFix" result="effect1_dropShadow_373_165"/><feBlend in="SourceGraphic" in2="effect1_dropShadow_373_165" result="shape"/></filter></defs></svg>