<svg width="127" height="545" fill="none" xmlns="http://www.w3.org/2000/svg"><path d="M123.977 512.732a3.022 3.022 0 013.023 3.022v25.955a3.022 3.022 0 01-6.045 0v-25.955a3.022 3.022 0 013.022-3.022zm0-64a3.022 3.022 0 013.023 3.022v25.955a3.022 3.022 0 01-6.045 0v-25.955a3.022 3.022 0 013.022-3.022zm0-64a3.022 3.022 0 013.023 3.022v25.955a3.022 3.022 0 01-6.045 0v-25.955a3.022 3.022 0 013.022-3.022zm0-64.001a3.023 3.023 0 013.023 3.023v25.955a3.022 3.022 0 01-6.045 0v-25.955a3.023 3.023 0 013.022-3.023zm0-64a3.023 3.023 0 013.023 3.023v25.955a3.022 3.022 0 01-6.045 0v-25.955a3.023 3.023 0 013.022-3.023zm0-64a3.023 3.023 0 013.023 3.023v25.955a3.022 3.022 0 01-6.045 0v-25.955a3.023 3.023 0 013.022-3.023zm0-64a3.023 3.023 0 013.023 3.023v25.955a3.022 3.022 0 01-6.045 0v-25.955a3.023 3.023 0 013.022-3.023zm0-64A3.023 3.023 0 01127 67.754V93.71a3.023 3.023 0 11-6.045 0V67.754a3.022 3.022 0 013.022-3.023zm0-64A3.023 3.023 0 01127 3.754V29.71a3.022 3.022 0 11-6.045 0V3.754a3.022 3.022 0 013.022-3.023zm-15.113 3.023a3.022 3.022 0 116.045 0V29.71a3.022 3.022 0 11-6.045 0V3.754zm-12.091 0a3.023 3.023 0 116.045 0V29.71a3.022 3.022 0 11-6.045 0V3.754zm-12.091 0a3.023 3.023 0 116.045 0V29.71a3.023 3.023 0 11-6.045 0V3.754zm-12.092 0a3.023 3.023 0 116.046 0V29.71a3.023 3.023 0 11-6.045 0V3.754zm-12.09 0a3.023 3.023 0 116.046 0V29.71a3.023 3.023 0 01-6.046 0V3.754zm-12.09 0a3.023 3.023 0 116.045 0V29.71a3.023 3.023 0 11-6.046 0V3.754zm-12.092 0a3.023 3.023 0 116.046 0V29.71a3.023 3.023 0 11-6.046 0V3.754zm-12.091 0a3.023 3.023 0 116.046 0V29.71a3.023 3.023 0 11-6.046 0V3.754zm-12.091 0a3.023 3.023 0 116.046 0V29.71a3.023 3.023 0 11-6.046 0V3.754zm-12.091 0a3.023 3.023 0 116.046 0V29.71a3.023 3.023 0 11-6.046 0V3.754zm3.023 60.977a3.023 3.023 0 00-3.023 3.023V93.71a3.023 3.023 0 106.046 0V67.754a3.023 3.023 0 00-3.023-3.023zm12.092 0a3.023 3.023 0 00-3.024 3.023V93.71a3.023 3.023 0 106.046 0V67.754a3.023 3.023 0 00-3.023-3.023zm12.09 0a3.023 3.023 0 00-3.023 3.023V93.71a3.023 3.023 0 006.046 0V67.754a3.023 3.023 0 00-3.023-3.023zm12.09 0a3.023 3.023 0 00-3.022 3.023V93.71a3.023 3.023 0 106.046 0V67.754a3.023 3.023 0 00-3.023-3.023zm12.092 0a3.023 3.023 0 00-3.023 3.023V93.71a3.023 3.023 0 006.046 0V67.754a3.023 3.023 0 00-3.023-3.023zm12.091 0a3.023 3.023 0 00-3.023 3.023V93.71a3.023 3.023 0 106.046 0V67.754a3.023 3.023 0 00-3.023-3.023zm12.091 0a3.023 3.023 0 00-3.023 3.023V93.71a3.023 3.023 0 006.045 0V67.754a3.023 3.023 0 00-3.022-3.023zm12.09 0a3.023 3.023 0 00-3.022 3.023V93.71a3.023 3.023 0 106.045 0V67.754a3.023 3.023 0 00-3.023-3.023zm12.091 0a3.023 3.023 0 00-3.022 3.023V93.71a3.023 3.023 0 106.045 0V67.754a3.022 3.022 0 00-3.023-3.023zm12.091 0a3.022 3.022 0 00-3.022 3.023V93.71a3.022 3.022 0 106.045 0V67.754a3.023 3.023 0 00-3.023-3.023zm3.023 67.023a3.023 3.023 0 00-6.045 0v25.955a3.022 3.022 0 006.045 0v-25.955zm0 64a3.023 3.023 0 00-6.045 0v25.955a3.022 3.022 0 006.045 0v-25.955zm0 64a3.023 3.023 0 00-6.045 0v25.955a3.022 3.022 0 006.045 0v-25.955zm0 64a3.023 3.023 0 00-6.045 0v25.955a3.022 3.022 0 006.045 0v-25.955zm0 64a3.022 3.022 0 00-6.045 0v25.955a3.022 3.022 0 006.045 0v-25.955zm0 64a3.022 3.022 0 00-6.045 0v25.955a3.022 3.022 0 006.045 0v-25.955zm0 64a3.022 3.022 0 00-6.045 0v25.955a3.022 3.022 0 006.045 0v-25.955zM3.068 128.731a3.023 3.023 0 00-3.023 3.023v25.955a3.022 3.022 0 006.046 0v-25.955a3.023 3.023 0 00-3.023-3.023zm12.092 0a3.023 3.023 0 00-3.024 3.023v25.955a3.022 3.022 0 006.046 0v-25.955a3.023 3.023 0 00-3.023-3.023zm12.09 0a3.023 3.023 0 00-3.023 3.023v25.955a3.022 3.022 0 006.046 0v-25.955a3.023 3.023 0 00-3.023-3.023zm12.09 0a3.023 3.023 0 00-3.022 3.023v25.955a3.022 3.022 0 006.046 0v-25.955a3.023 3.023 0 00-3.023-3.023zm12.092 0a3.023 3.023 0 00-3.023 3.023v25.955a3.022 3.022 0 006.046 0v-25.955a3.023 3.023 0 00-3.023-3.023zm12.091 0a3.023 3.023 0 00-3.023 3.023v25.955a3.022 3.022 0 006.046 0v-25.955a3.023 3.023 0 00-3.023-3.023zm12.091 0a3.023 3.023 0 00-3.023 3.023v25.955a3.022 3.022 0 006.045 0v-25.955a3.023 3.023 0 00-3.022-3.023zm12.09 0a3.023 3.023 0 00-3.022 3.023v25.955a3.022 3.022 0 006.045 0v-25.955a3.023 3.023 0 00-3.023-3.023zm12.091 0a3.023 3.023 0 00-3.022 3.023v25.955a3.022 3.022 0 006.045 0v-25.955a3.023 3.023 0 00-3.023-3.023zm3.023 67.023a3.023 3.023 0 10-6.045 0v25.955a3.022 3.022 0 006.045 0v-25.955zm0 64a3.023 3.023 0 10-6.045 0v25.955a3.022 3.022 0 006.045 0v-25.955zm0 64a3.023 3.023 0 10-6.045 0v25.955a3.022 3.022 0 006.045 0v-25.955zm0 64a3.022 3.022 0 00-6.045 0v25.955a3.022 3.022 0 006.045 0v-25.955zm0 64a3.022 3.022 0 00-6.045 0v25.955a3.022 3.022 0 006.045 0v-25.955zm0 64a3.022 3.022 0 00-6.045 0v25.955a3.022 3.022 0 006.045 0v-25.955zM3.068 192.731a3.023 3.023 0 00-3.023 3.023v25.955a3.022 3.022 0 006.046 0v-25.955a3.023 3.023 0 00-3.023-3.023zm12.092 0a3.023 3.023 0 00-3.024 3.023v25.955a3.022 3.022 0 006.046 0v-25.955a3.023 3.023 0 00-3.023-3.023zm12.09 0a3.023 3.023 0 00-3.023 3.023v25.955a3.022 3.022 0 006.046 0v-25.955a3.023 3.023 0 00-3.023-3.023zm12.09 0a3.023 3.023 0 00-3.022 3.023v25.955a3.022 3.022 0 006.046 0v-25.955a3.023 3.023 0 00-3.023-3.023zm12.092 0a3.023 3.023 0 00-3.023 3.023v25.955a3.022 3.022 0 006.046 0v-25.955a3.023 3.023 0 00-3.023-3.023zm12.091 0a3.023 3.023 0 00-3.023 3.023v25.955a3.022 3.022 0 006.046 0v-25.955a3.023 3.023 0 00-3.023-3.023zm12.091 0a3.023 3.023 0 00-3.023 3.023v25.955a3.022 3.022 0 006.045 0v-25.955a3.023 3.023 0 00-3.022-3.023zm12.09 0a3.023 3.023 0 00-3.022 3.023v25.955a3.022 3.022 0 006.045 0v-25.955a3.023 3.023 0 00-3.023-3.023zm3.023 67.023a3.023 3.023 0 00-6.045 0v25.955a3.022 3.022 0 006.045 0v-25.955zm0 64a3.023 3.023 0 00-6.045 0v25.955a3.022 3.022 0 006.045 0v-25.955zm0 64a3.022 3.022 0 00-6.045 0v25.955a3.022 3.022 0 006.045 0v-25.955zm0 64a3.022 3.022 0 00-6.045 0v25.955a3.022 3.022 0 006.045 0v-25.955zm0 64a3.022 3.022 0 00-6.045 0v25.955a3.022 3.022 0 006.045 0v-25.955zM3.068 256.731a3.023 3.023 0 00-3.023 3.023v25.955a3.022 3.022 0 006.046 0v-25.955a3.023 3.023 0 00-3.023-3.023zm12.092 0a3.023 3.023 0 00-3.024 3.023v25.955a3.022 3.022 0 006.046 0v-25.955a3.023 3.023 0 00-3.023-3.023zm12.09 0a3.023 3.023 0 00-3.023 3.023v25.955a3.022 3.022 0 006.046 0v-25.955a3.023 3.023 0 00-3.023-3.023zm12.09 0a3.023 3.023 0 00-3.022 3.023v25.955a3.022 3.022 0 006.046 0v-25.955a3.023 3.023 0 00-3.023-3.023zm12.092 0a3.023 3.023 0 00-3.023 3.023v25.955a3.022 3.022 0 006.046 0v-25.955a3.023 3.023 0 00-3.023-3.023zm12.091 0a3.023 3.023 0 00-3.023 3.023v25.955a3.022 3.022 0 006.046 0v-25.955a3.023 3.023 0 00-3.023-3.023zm12.091 0a3.023 3.023 0 00-3.023 3.023v25.955a3.022 3.022 0 006.045 0v-25.955a3.023 3.023 0 00-3.022-3.023zm3.022 67.023a3.023 3.023 0 00-6.045 0v25.955a3.022 3.022 0 006.045 0v-25.955zm0 64a3.022 3.022 0 00-6.045 0v25.955a3.022 3.022 0 006.045 0v-25.955zm0 64a3.022 3.022 0 00-6.045 0v25.955a3.022 3.022 0 006.045 0v-25.955zm0 64a3.022 3.022 0 00-6.045 0v25.955a3.022 3.022 0 006.045 0v-25.955zM3.068 320.731a3.023 3.023 0 00-3.023 3.023v25.955a3.022 3.022 0 006.046 0v-25.955a3.023 3.023 0 00-3.023-3.023zm12.092 0a3.023 3.023 0 00-3.024 3.023v25.955a3.022 3.022 0 006.046 0v-25.955a3.023 3.023 0 00-3.023-3.023zm12.09 0a3.023 3.023 0 00-3.023 3.023v25.955a3.022 3.022 0 006.046 0v-25.955a3.023 3.023 0 00-3.023-3.023zm12.09 0a3.023 3.023 0 00-3.022 3.023v25.955a3.022 3.022 0 006.046 0v-25.955a3.023 3.023 0 00-3.023-3.023zm12.092 0a3.023 3.023 0 00-3.023 3.023v25.955a3.022 3.022 0 006.046 0v-25.955a3.023 3.023 0 00-3.023-3.023zm12.091 0a3.023 3.023 0 00-3.023 3.023v25.955a3.022 3.022 0 006.046 0v-25.955a3.023 3.023 0 00-3.023-3.023zm3.023 67.023a3.022 3.022 0 00-6.046 0v25.955a3.022 3.022 0 006.046 0v-25.955zm0 64a3.022 3.022 0 00-6.046 0v25.955a3.022 3.022 0 006.046 0v-25.955zm0 64a3.022 3.022 0 00-6.046 0v25.955a3.022 3.022 0 006.046 0v-25.955zM3.068 384.732a3.022 3.022 0 00-3.023 3.022v25.955a3.022 3.022 0 006.046 0v-25.955a3.022 3.022 0 00-3.023-3.022zm12.092 0a3.022 3.022 0 00-3.024 3.022v25.955a3.022 3.022 0 006.046 0v-25.955a3.022 3.022 0 00-3.023-3.022zm12.09 0a3.022 3.022 0 00-3.023 3.022v25.955a3.022 3.022 0 006.046 0v-25.955a3.022 3.022 0 00-3.023-3.022zm12.09 0a3.022 3.022 0 00-3.022 3.022v25.955a3.022 3.022 0 006.046 0v-25.955a3.022 3.022 0 00-3.023-3.022zm12.092 0a3.022 3.022 0 00-3.023 3.022v25.955a3.022 3.022 0 006.046 0v-25.955a3.022 3.022 0 00-3.023-3.022zm3.023 67.022a3.022 3.022 0 00-6.046 0v25.955a3.022 3.022 0 006.046 0v-25.955zm0 64a3.022 3.022 0 00-6.046 0v25.955a3.022 3.022 0 006.046 0v-25.955zM3.068 448.732a3.022 3.022 0 00-3.023 3.022v25.955a3.022 3.022 0 006.046 0v-25.955a3.022 3.022 0 00-3.023-3.022zm12.092 0a3.022 3.022 0 00-3.024 3.022v25.955a3.022 3.022 0 006.046 0v-25.955a3.022 3.022 0 00-3.023-3.022zm12.09 0a3.022 3.022 0 00-3.023 3.022v25.955a3.022 3.022 0 006.046 0v-25.955a3.022 3.022 0 00-3.023-3.022zm12.09 0a3.022 3.022 0 00-3.022 3.022v25.955a3.022 3.022 0 006.046 0v-25.955a3.022 3.022 0 00-3.023-3.022zm3.024 67.022a3.022 3.022 0 00-6.046 0v25.955a3.022 3.022 0 006.046 0v-25.955zm-39.296-3.022a3.022 3.022 0 00-3.023 3.022v25.955a3.022 3.022 0 006.046 0v-25.955a3.022 3.022 0 00-3.023-3.022zm12.092 0a3.022 3.022 0 00-3.024 3.022v25.955a3.022 3.022 0 006.046 0v-25.955a3.022 3.022 0 00-3.023-3.022zm12.09 0a3.022 3.022 0 00-3.023 3.022v25.955a3.022 3.022 0 006.046 0v-25.955a3.022 3.022 0 00-3.023-3.022z" fill="#fff" fill-opacity=".88"/></svg>