<svg width="1084" height="877" fill="none" xmlns="http://www.w3.org/2000/svg"><g filter="url(#filter0_d_373_167)" shape-rendering="crispEdges"><path d="M294.378 654.158L51 332.5 183.5 241l170.625-20.34L697.667 31 816 67.5l64 38.5h93.5l25 84.5L917 302.482 1033 549.5l-167.885 82L784.929 806l-286.941-66.087L238.562 773l55.816-118.842z" fill="url(#paint0_linear_373_167)" fill-opacity=".71"/><path d="M294.378 654.158L51 332.5 183.5 241l170.625-20.34L697.667 31 816 67.5l64 38.5h93.5l25 84.5L917 302.482 1033 549.5l-167.885 82L784.929 806l-286.941-66.087L238.562 773l55.816-118.842z" stroke="url(#paint1_linear_373_167)"/></g><defs><linearGradient id="paint0_linear_373_167" x1="520" y1="153" x2="520" y2="806" gradientUnits="userSpaceOnUse"><stop stop-color="#7500C8"/><stop offset=".977" stop-color="#AE3CFF"/></linearGradient><linearGradient id="paint1_linear_373_167" x1="542" y1="31" x2="542" y2="806" gradientUnits="userSpaceOnUse"><stop offset=".081" stop-color="#fff"/><stop offset="1" stop-color="#fff" stop-opacity="0"/></linearGradient><filter id="filter0_d_373_167" x=".286" y=".459" width="1083.38" height="876.119" filterUnits="userSpaceOnUse" color-interpolation-filters="sRGB"><feFlood flood-opacity="0" result="BackgroundImageFix"/><feColorMatrix in="SourceAlpha" values="0 0 0 0 0 0 0 0 0 0 0 0 0 0 0 0 0 0 127 0" result="hardAlpha"/><feOffset dy="20"/><feGaussianBlur stdDeviation="25"/><feComposite in2="hardAlpha" operator="out"/><feColorMatrix values="0 0 0 0 0 0 0 0 0 0 0 0 0 0 0 0 0 0 0.5 0"/><feBlend in2="BackgroundImageFix" result="effect1_dropShadow_373_167"/><feBlend in="SourceGraphic" in2="effect1_dropShadow_373_167" result="shape"/></filter></defs></svg>