<svg width="1080" height="900" viewBox="0 0 1080 900" fill="none" xmlns="http://www.w3.org/2000/svg">
<g filter="url(#filter0_d_375_205)">
<path d="M245.881 671.782L51 317.675L188.119 222.935H307.711L629.412 31.0005L732.022 80.8446H836.516L865.712 155.364L940.203 222.935L908.956 307.654L1029 563.418L836.516 648.322L836.516 829L539.571 760.574L331.448 794.832H188.12L245.881 671.782Z" fill="url(#paint0_linear_375_205)" fill-opacity="0.71" shape-rendering="crispEdges"/>
<path d="M245.881 671.782L51 317.675L188.119 222.935H307.711L629.412 31.0005L732.022 80.8446H836.516L865.712 155.364L940.203 222.935L908.956 307.654L1029 563.418L836.516 648.322L836.516 829L539.571 760.574L331.448 794.832H188.12L245.881 671.782Z" stroke="url(#paint1_linear_375_205)" shape-rendering="crispEdges"/>
</g>
<defs>
<filter id="filter0_d_375_205" x="0.344238" y="0.432617" width="1079.33" height="899.196" filterUnits="userSpaceOnUse" color-interpolation-filters="sRGB">
<feFlood flood-opacity="0" result="BackgroundImageFix"/>
<feColorMatrix in="SourceAlpha" type="matrix" values="0 0 0 0 0 0 0 0 0 0 0 0 0 0 0 0 0 0 127 0" result="hardAlpha"/>
<feOffset dy="20"/>
<feGaussianBlur stdDeviation="25"/>
<feComposite in2="hardAlpha" operator="out"/>
<feColorMatrix type="matrix" values="0 0 0 0 0 0 0 0 0 0 0 0 0 0 0 0 0 0 0.5 0"/>
<feBlend mode="normal" in2="BackgroundImageFix" result="effect1_dropShadow_375_205"/>
<feBlend mode="normal" in="SourceGraphic" in2="effect1_dropShadow_375_205" result="shape"/>
</filter>
<linearGradient id="paint0_linear_375_205" x1="479.369" y1="152.879" x2="479.369" y2="829.001" gradientUnits="userSpaceOnUse">
<stop offset="0.0395832" stop-color="#04B535"/>
<stop offset="0.977083" stop-color="#059763"/>
</linearGradient>
<linearGradient id="paint1_linear_375_205" x1="502.136" y1="26.5589" x2="502.136" y2="829.001" gradientUnits="userSpaceOnUse">
<stop offset="0.0968749" stop-color="white"/>
<stop offset="1" stop-color="white" stop-opacity="0"/>
</linearGradient>
</defs>
</svg>
