<svg width="414" height="386" viewBox="0 0 414 386" fill="none" xmlns="http://www.w3.org/2000/svg">
<path d="M143.538 357.655C142.071 355.127 141.187 352.989 140.886 351.239C140.567 349.5 140.703 348.077 141.293 346.969C141.883 345.862 142.852 344.917 144.199 344.135C146.154 342.999 148.085 342.841 149.991 343.658C151.896 344.476 153.915 346.72 156.046 350.392L158.907 355.318L158.934 355.302L162.887 362.109C159.222 364.04 155.831 365.91 152.713 367.721C149.595 369.531 146.29 371.549 142.796 373.775L130.954 353.38L136.516 350.15L144.406 363.737L146.398 362.581L143.538 357.655ZM151.902 354.279C151.163 353.006 150.559 352.073 150.092 351.481C149.614 350.87 149.199 350.495 148.846 350.354C148.482 350.195 148.098 350.234 147.692 350.469C147.286 350.705 147.053 351.026 146.992 351.431C146.931 351.836 147.048 352.398 147.341 353.115C147.634 353.833 148.14 354.81 148.858 356.046L151.075 359.865L154.119 358.097L151.902 354.279Z" fill="white"/>
<path d="M121.439 331.969C119.893 328.015 119.522 324.987 120.327 322.886C121.112 320.792 122.776 319.248 125.319 318.254C127.068 317.57 128.678 317.296 130.151 317.43C131.604 317.572 132.981 318.282 134.282 319.56C135.564 320.845 136.736 322.849 137.801 325.571L140.225 331.77L145.47 329.719L148.337 337.051C144.42 338.399 140.783 339.729 137.425 341.042C134.067 342.355 130.492 343.845 126.7 345.511L123.833 338.179L123.863 338.168L121.439 331.969ZM132.865 329.906C132.22 328.257 131.678 327.049 131.241 326.281C130.775 325.501 130.312 325.018 129.85 324.832C129.38 324.626 128.817 324.651 128.161 324.908C127.506 325.164 127.081 325.513 126.887 325.956C126.666 326.386 126.659 327.041 126.866 327.922C127.066 328.784 127.495 330.059 128.156 331.747L129.764 335.86L134.473 334.019L132.865 329.906Z" fill="white"/>
<path d="M130.108 302.857C128.314 294.951 126.929 289.238 125.952 285.718C126.839 285.675 127.745 285.573 128.67 285.411C129.571 285.234 130.708 284.993 132.083 284.689L137.458 308.965C133.38 309.693 129.581 310.446 126.061 311.226C122.541 312.005 118.779 312.926 114.775 313.987L109.4 289.711L115.055 288.459L118.798 305.361L121.797 304.697C121.597 303.693 121.28 302.212 120.846 300.254C120.113 296.942 119.292 293.53 118.383 290.016L123.756 288.826C124.416 292.395 125.112 295.835 125.845 299.147C126.279 301.105 126.616 302.581 126.859 303.577L130.108 302.857Z" fill="white"/>
<path d="M106.332 255.462C109.939 255.387 113.808 255.221 117.939 254.964C122.07 254.708 125.93 254.393 129.519 254.02L129.985 261.526L121.298 262.066L122.029 273.819L130.716 273.279L131.183 280.784C127.042 280.871 123.172 281.026 119.573 281.25C115.975 281.473 112.116 281.799 107.996 282.226L107.529 274.72L116.216 274.18L115.485 262.427L106.798 262.967L106.332 255.462Z" fill="white"/>
<path d="M126.341 222.42L126.476 221.114L137.394 222.237L136.618 229.781L132.003 229.307L130.543 243.504L135.255 243.988L134.479 251.532L123.465 250.4L123.629 248.809C123.553 247.879 123.253 247.14 122.731 246.593C122.208 246.046 121.332 245.592 120.104 245.229C119.084 244.932 116.728 244.593 113.035 244.213L106.538 243.578L108.929 220.63L126.341 222.42ZM123.35 238.068C123.931 238.256 124.375 238.42 124.682 238.559L125.514 230.473L114.309 229.321L113.576 236.452L115.419 236.673C117.031 236.839 118.449 237.028 119.671 237.239C120.874 237.427 122.1 237.703 123.35 238.068Z" fill="white"/>
<path d="M112.277 204.265L129.474 209.446L114.153 197.28L117.207 185.907C120.651 186.987 124.361 188.06 128.337 189.128C132.334 190.202 136.093 191.134 139.614 191.925L137.48 199.867L120.756 194.779L135.621 206.79L132.65 217.854C128.697 216.616 124.98 215.529 121.498 214.594C118.036 213.664 114.285 212.745 110.244 211.836L112.277 204.265Z" fill="white"/>
<path d="M125.69 164.977C127.433 161.106 129.337 158.723 131.401 157.828C133.446 156.924 135.714 157.032 138.203 158.154C139.915 158.924 141.238 159.883 142.173 161.029C143.088 162.166 143.544 163.647 143.542 165.471C143.52 167.286 142.909 169.526 141.708 172.191L138.975 178.26L144.111 180.573L140.878 187.75C137.175 185.895 133.679 184.227 130.392 182.747C127.104 181.266 123.539 179.754 119.695 178.211L122.928 171.033L122.957 171.046L125.69 164.977ZM135.157 171.697C135.884 170.083 136.369 168.85 136.612 168C136.843 167.122 136.864 166.453 136.674 165.993C136.492 165.513 136.08 165.129 135.438 164.84C134.796 164.551 134.249 164.492 133.798 164.663C133.336 164.806 132.863 165.259 132.378 166.024C131.902 166.769 131.292 167.968 130.547 169.621L128.734 173.648L133.344 175.724L135.157 171.697Z" fill="white"/>
<path d="M161.256 148.747C158.554 152.816 155.685 155.226 152.651 155.977C149.599 156.716 146.474 156.024 143.275 153.899C140.112 151.798 138.273 149.207 137.759 146.125C137.256 143.026 138.363 139.432 141.077 135.345C143.803 131.24 146.687 128.827 149.727 128.105C152.778 127.366 155.886 128.047 159.049 130.148C162.266 132.284 164.122 134.887 164.619 137.957C165.115 141.027 163.994 144.624 161.256 148.747ZM155.818 145.135C157.128 143.163 157.699 141.493 157.531 140.126C157.345 138.748 156.453 137.528 154.853 136.466C153.29 135.427 151.836 135.089 150.494 135.453C149.151 135.816 147.825 136.984 146.515 138.957C145.217 140.911 144.661 142.578 144.846 143.956C145.032 145.335 145.907 146.543 147.471 147.582C149.053 148.632 150.515 148.976 151.857 148.612C153.2 148.249 154.52 147.09 155.818 145.135Z" fill="white"/>
<path d="M176.061 111.292C179.385 107.741 182.176 107.022 184.434 109.136C185.493 110.128 186.17 111.215 186.466 112.397C186.746 113.566 186.513 114.969 185.767 116.609C185.006 118.234 183.59 120.152 181.52 122.364L171.678 132.876C168.774 129.923 166.005 127.215 163.373 124.751C160.741 122.287 157.856 119.703 154.718 116.999L159.858 111.509L159.881 111.531L164.539 106.555C166.347 104.624 167.932 103.259 169.294 102.459C170.656 101.629 171.851 101.273 172.881 101.39C173.926 101.491 174.916 101.979 175.85 102.854C176.8 103.743 177.336 104.873 177.456 106.242C177.576 107.582 177.111 109.265 176.061 111.292ZM164.133 115.511L166.305 117.545L170.504 113.06C171.408 112.094 171.949 111.344 172.128 110.81C172.321 110.26 172.192 109.774 171.74 109.351C171.382 109.016 170.943 108.985 170.424 109.259C169.904 109.502 169.206 110.091 168.332 111.026L164.133 115.511ZM176.742 118.899C177.5 118.089 178.044 117.445 178.376 116.966C178.706 116.457 178.873 116.029 178.877 115.681C178.865 115.32 178.703 114.993 178.392 114.701C177.987 114.322 177.487 114.278 176.893 114.57C176.298 114.831 175.461 115.538 174.382 116.69L170.183 121.175L172.543 123.384L176.742 118.899Z" fill="white"/>
<path d="M208.14 98.6563C207.076 97.9413 205.713 97.066 204.052 96.0306L195.971 102.267L197.499 106.867L191.141 111.774L184.041 87.9078L193.364 80.7135L214.701 93.593L208.14 98.6563ZM199.558 93.1928C197.548 91.9147 195.521 90.6496 193.477 89.3976L191.598 88.2201C192.193 90.2132 193.115 93.2067 194.365 97.2005L199.558 93.1928Z" fill="white"/>
<path d="M231.002 57.8885C232.572 61.1376 234.333 64.5867 236.286 68.2356C238.239 71.8845 240.132 75.2631 241.965 78.3713L235.335 81.9198L231.227 74.2458L220.845 79.8026L224.952 87.4766L218.322 91.0251C216.519 87.2956 214.768 83.8416 213.066 80.6629C211.365 77.4842 209.463 74.1106 207.359 70.5422L213.989 66.9937L218.097 74.6678L228.479 69.111L224.372 61.4369L231.002 57.8885Z" fill="white"/>
<path d="M245.619 51.9638L250.938 69.1186L252.459 49.614L263.596 45.7878C264.626 49.246 265.81 52.9221 267.148 56.816C268.493 60.7301 269.821 64.3678 271.134 67.729L263.356 70.4011L258.224 53.69L256.577 72.7301L245.743 76.4524C244.559 72.4829 243.382 68.7932 242.211 65.3835C241.046 61.994 239.711 58.3699 238.205 54.5112L245.619 51.9638Z" fill="white"/>
<path d="M281.63 59.4657C289.608 58.0274 295.377 56.8994 298.937 56.082C298.941 56.9693 299.003 57.8789 299.122 58.8109C299.259 59.7182 299.449 60.8653 299.692 62.2523L275.199 66.535C274.654 62.4288 274.072 58.6 273.451 55.0485C272.83 51.4971 272.079 47.6976 271.198 43.6502L295.69 39.3675L296.688 45.0729L279.634 48.0549L280.163 51.081C281.176 50.9256 282.67 50.6752 284.645 50.3298C287.986 49.7455 291.432 49.078 294.983 48.3273L295.931 53.749C292.336 54.2476 288.868 54.789 285.527 55.3733C283.552 55.7187 282.061 55.9901 281.056 56.1875L281.63 59.4657Z" fill="white"/>
</svg>
