<svg width="431" height="4818" viewBox="0 0 431 4818" fill="none" xmlns="http://www.w3.org/2000/svg">
<path d="M415.251 524.935L324.601 614.644M324.601 614.644L299.607 408.032M324.601 614.644L415.251 690.225M324.601 614.644L278.717 579.353M299.607 408.032L166.803 320.443M299.607 408.032L330.57 429.223M299.607 408.032L131.736 466.307M415.251 479.728L330.57 429.223M166.803 320.443L153.746 231.794M166.803 320.443L89.5814 453.239M166.803 320.443L42.5784 306.624M166.803 320.443L299.607 252.279M17.5843 303.843L42.5784 306.624M16 281.24L153.746 231.794M153.746 231.794L299.607 252.279M153.746 231.794L17.5843 158.686M153.746 231.794L51.1585 101.823M299.607 252.279L198.885 191.532M299.607 252.279L373.097 295.014M299.607 252.279L330.57 429.223M51.1585 101.823L17.5843 115.244M51.1585 101.823L146.658 65.7987M51.1585 101.823L134.721 153.035M17.5843 30.8336L146.658 65.7987M146.658 65.7987L130.244 16M146.658 65.7987L220.894 16M146.658 65.7987L177.994 68.509M318.073 16L297.742 78.8664M297.742 78.8664L177.994 68.509M297.742 78.8664L198.885 191.532M297.742 78.8664L312.291 191.532M297.742 78.8664L318.073 58.735M177.994 68.509L134.721 153.035M134.721 153.035L198.885 191.532M198.885 191.532H312.291M312.291 191.532L376.828 146.605M312.291 191.532L373.097 295.014M415.251 147.384L401.076 129.725L376.828 146.605M376.828 146.605L318.073 58.735M318.073 58.735L362.279 16M415.251 225.437L373.097 295.014M373.097 295.014L415.251 320.443M330.57 429.223L415.251 361.765M131.736 466.307L71.303 484.673M131.736 466.307L57.5003 659.851M131.736 466.307L278.717 579.353M71.303 484.673L17.5843 504.451M71.303 484.673L89.5814 453.239M89.5814 453.239L42.5784 306.624M89.5814 453.239L17.5843 404.147M57.5003 659.851L17.5843 594.159M57.5003 659.851L278.717 579.353M57.5003 659.851L189.185 773.929M57.5003 659.851L17.5843 708.943M278.717 579.353L189.185 773.929M278.717 579.353L353.326 788.056H373.097L415.251 739.14M189.185 773.929L153.373 788.056M189.185 773.929L242.158 788.056" stroke="url(#paint0_linear_406_2106)" stroke-opacity="0.48"/>
<g filter="url(#filter0_f_406_2106)">
<path d="M415.251 524.935L324.601 614.644M324.601 614.644L299.607 408.032M324.601 614.644L415.251 690.225M324.601 614.644L278.717 579.353M299.607 408.032L166.803 320.443M299.607 408.032L330.57 429.223M299.607 408.032L131.736 466.307M415.251 479.728L330.57 429.223M166.803 320.443L153.746 231.794M166.803 320.443L89.5814 453.239M166.803 320.443L42.5784 306.624M166.803 320.443L299.607 252.279M17.5843 303.843L42.5784 306.624M16 281.24L153.746 231.794M153.746 231.794L299.607 252.279M153.746 231.794L17.5843 158.686M153.746 231.794L51.1585 101.823M299.607 252.279L198.885 191.532M299.607 252.279L373.097 295.014M299.607 252.279L330.57 429.223M51.1585 101.823L17.5843 115.244M51.1585 101.823L146.658 65.7987M51.1585 101.823L134.721 153.035M17.5843 30.8336L146.658 65.7987M146.658 65.7987L130.244 16M146.658 65.7987L220.894 16M146.658 65.7987L177.994 68.509M318.073 16L297.742 78.8664M297.742 78.8664L177.994 68.509M297.742 78.8664L198.885 191.532M297.742 78.8664L312.291 191.532M297.742 78.8664L318.073 58.735M177.994 68.509L134.721 153.035M134.721 153.035L198.885 191.532M198.885 191.532H312.291M312.291 191.532L376.828 146.605M312.291 191.532L373.097 295.014M415.251 147.384L401.076 129.725L376.828 146.605M376.828 146.605L318.073 58.735M318.073 58.735L362.279 16M415.251 225.437L373.097 295.014M373.097 295.014L415.251 320.443M330.57 429.223L415.251 361.765M131.736 466.307L71.303 484.673M131.736 466.307L57.5003 659.851M131.736 466.307L278.717 579.353M71.303 484.673L17.5843 504.451M71.303 484.673L89.5814 453.239M89.5814 453.239L42.5784 306.624M89.5814 453.239L17.5843 404.147M57.5003 659.851L17.5843 594.159M57.5003 659.851L278.717 579.353M57.5003 659.851L189.185 773.929M57.5003 659.851L17.5843 708.943M278.717 579.353L189.185 773.929M278.717 579.353L353.326 788.056H373.097L415.251 739.14M189.185 773.929L153.373 788.056M189.185 773.929L242.158 788.056" stroke="url(#paint1_linear_406_2106)" stroke-opacity="0.46"/>
</g>
<path d="M414.927 1050.34L324.35 960.7M324.35 960.7L299.377 1167.14M324.35 960.7L414.927 885.181M324.35 960.7L278.503 995.962M299.377 1167.14L166.68 1254.66M299.377 1167.14L330.314 1145.97M299.377 1167.14L131.642 1108.92M414.927 1095.51L330.314 1145.97M166.68 1254.66L153.634 1343.24M166.68 1254.66L89.5216 1121.97M166.68 1254.66L42.5568 1268.47M166.68 1254.66L299.377 1322.77M17.583 1271.25L42.5568 1268.47M16 1293.83L153.634 1343.24M153.634 1343.24L299.377 1322.77M153.634 1343.24L17.583 1416.29M153.634 1343.24L51.1299 1473.1M299.377 1322.77L198.736 1383.47M299.377 1322.77L372.807 1280.07M299.377 1322.77L330.314 1145.97M51.1299 1473.1L17.583 1459.69M51.1299 1473.1L146.552 1509.1M51.1299 1473.1L134.624 1421.93M17.583 1544.04L146.552 1509.1M146.552 1509.1L130.151 1558.86M146.552 1509.1L220.728 1558.86M146.552 1509.1L177.862 1506.39M317.827 1558.86L297.513 1496.04M297.513 1496.04L177.862 1506.39M297.513 1496.04L198.736 1383.47M297.513 1496.04L312.05 1383.47M297.513 1496.04L317.827 1516.16M177.862 1506.39L134.624 1421.93M134.624 1421.93L198.736 1383.47M198.736 1383.47H312.05M312.05 1383.47L376.534 1428.36M312.05 1383.47L372.807 1280.07M414.927 1427.58L400.763 1445.22L376.534 1428.36M376.534 1428.36L317.827 1516.16M317.827 1516.16L361.997 1558.86M414.927 1349.59L372.807 1280.07M372.807 1280.07L414.927 1254.66M330.314 1145.97L414.927 1213.37M131.642 1108.92L71.258 1090.57M131.642 1108.92L57.4665 915.53M131.642 1108.92L278.503 995.962M71.258 1090.57L17.583 1070.8M71.258 1090.57L89.5216 1121.97M89.5216 1121.97L42.5568 1268.47M89.5216 1121.97L17.583 1171.03M57.4665 915.53L17.583 981.168M57.4665 915.53L278.503 995.962M57.4665 915.53L189.045 801.544M57.4665 915.53L17.583 866.477M278.503 995.962L189.045 801.544M278.503 995.962L353.052 787.429H372.807L414.927 836.305M189.045 801.544L153.261 787.429M189.045 801.544L241.974 787.429" stroke="url(#paint2_linear_406_2106)" stroke-opacity="0.48"/>
<g filter="url(#filter1_f_406_2106)">
<path d="M414.927 1050.34L324.35 960.7M324.35 960.7L299.377 1167.14M324.35 960.7L414.927 885.181M324.35 960.7L278.503 995.962M299.377 1167.14L166.68 1254.66M299.377 1167.14L330.314 1145.97M299.377 1167.14L131.642 1108.92M414.927 1095.51L330.314 1145.97M166.68 1254.66L153.634 1343.24M166.68 1254.66L89.5216 1121.97M166.68 1254.66L42.5568 1268.47M166.68 1254.66L299.377 1322.77M17.583 1271.25L42.5568 1268.47M16 1293.83L153.634 1343.24M153.634 1343.24L299.377 1322.77M153.634 1343.24L17.583 1416.29M153.634 1343.24L51.1299 1473.1M299.377 1322.77L198.736 1383.47M299.377 1322.77L372.807 1280.07M299.377 1322.77L330.314 1145.97M51.1299 1473.1L17.583 1459.69M51.1299 1473.1L146.552 1509.1M51.1299 1473.1L134.624 1421.93M17.583 1544.04L146.552 1509.1M146.552 1509.1L130.151 1558.86M146.552 1509.1L220.728 1558.86M146.552 1509.1L177.862 1506.39M317.827 1558.86L297.513 1496.04M297.513 1496.04L177.862 1506.39M297.513 1496.04L198.736 1383.47M297.513 1496.04L312.05 1383.47M297.513 1496.04L317.827 1516.16M177.862 1506.39L134.624 1421.93M134.624 1421.93L198.736 1383.47M198.736 1383.47H312.05M312.05 1383.47L376.534 1428.36M312.05 1383.47L372.807 1280.07M414.927 1427.58L400.763 1445.22L376.534 1428.36M376.534 1428.36L317.827 1516.16M317.827 1516.16L361.997 1558.86M414.927 1349.59L372.807 1280.07M372.807 1280.07L414.927 1254.66M330.314 1145.97L414.927 1213.37M131.642 1108.92L71.258 1090.57M131.642 1108.92L57.4665 915.53M131.642 1108.92L278.503 995.962M71.258 1090.57L17.583 1070.8M71.258 1090.57L89.5216 1121.97M89.5216 1121.97L42.5568 1268.47M89.5216 1121.97L17.583 1171.03M57.4665 915.53L17.583 981.168M57.4665 915.53L278.503 995.962M57.4665 915.53L189.045 801.544M57.4665 915.53L17.583 866.477M278.503 995.962L189.045 801.544M278.503 995.962L353.052 787.429H372.807L414.927 836.305M189.045 801.544L153.261 787.429M189.045 801.544L241.974 787.429" stroke="url(#paint3_linear_406_2106)" stroke-opacity="0.46"/>
</g>
<path d="M414.927 2593.19L324.35 2503.56M324.35 2503.56L299.377 2710M324.35 2503.56L414.927 2428.04M324.35 2503.56L278.503 2538.82M299.377 2710L166.68 2797.52M299.377 2710L330.314 2688.83M299.377 2710L131.642 2651.77M414.927 2638.36L330.314 2688.83M166.68 2797.52L153.634 2886.1M166.68 2797.52L89.5216 2664.83M166.68 2797.52L42.5568 2811.33M166.68 2797.52L299.377 2865.63M17.583 2814.1L42.5568 2811.33M16 2836.69L153.634 2886.1M153.634 2886.1L299.377 2865.63M153.634 2886.1L17.583 2959.14M153.634 2886.1L51.1299 3015.96M299.377 2865.63L198.736 2926.33M299.377 2865.63L372.807 2822.93M299.377 2865.63L330.314 2688.83M51.1299 3015.96L17.583 3002.55M51.1299 3015.96L146.552 3051.96M51.1299 3015.96L134.624 2964.79M17.583 3086.89L146.552 3051.96M146.552 3051.96L130.151 3101.71M146.552 3051.96L220.728 3101.71M146.552 3051.96L177.862 3049.25M317.827 3101.71L297.513 3038.9M297.513 3038.9L177.862 3049.25M297.513 3038.9L198.736 2926.33M297.513 3038.9L312.05 2926.33M297.513 3038.9L317.827 3059.01M177.862 3049.25L134.624 2964.79M134.624 2964.79L198.736 2926.33M198.736 2926.33H312.05M312.05 2926.33L376.534 2971.22M312.05 2926.33L372.807 2822.93M414.927 2970.44L400.763 2988.08L376.534 2971.22M376.534 2971.22L317.827 3059.01M317.827 3059.01L361.997 3101.71M414.927 2892.45L372.807 2822.93M372.807 2822.93L414.927 2797.52M330.314 2688.83L414.927 2756.23M131.642 2651.77L71.258 2633.42M131.642 2651.77L57.4665 2458.39M131.642 2651.77L278.503 2538.82M71.258 2633.42L17.583 2613.66M71.258 2633.42L89.5216 2664.83M89.5216 2664.83L42.5568 2811.33M89.5216 2664.83L17.583 2713.88M57.4665 2458.39L17.583 2524.03M57.4665 2458.39L278.503 2538.82M57.4665 2458.39L189.045 2344.4M57.4665 2458.39L17.583 2409.33M278.503 2538.82L189.045 2344.4M278.503 2538.82L353.052 2330.29H372.807L414.927 2379.16M189.045 2344.4L153.261 2330.29M189.045 2344.4L241.974 2330.29" stroke="url(#paint4_linear_406_2106)" stroke-opacity="0.48"/>
<g filter="url(#filter2_f_406_2106)">
<path d="M414.927 2593.19L324.35 2503.56M324.35 2503.56L299.377 2710M324.35 2503.56L414.927 2428.04M324.35 2503.56L278.503 2538.82M299.377 2710L166.68 2797.52M299.377 2710L330.314 2688.83M299.377 2710L131.642 2651.77M414.927 2638.36L330.314 2688.83M166.68 2797.52L153.634 2886.1M166.68 2797.52L89.5216 2664.83M166.68 2797.52L42.5568 2811.33M166.68 2797.52L299.377 2865.63M17.583 2814.1L42.5568 2811.33M16 2836.69L153.634 2886.1M153.634 2886.1L299.377 2865.63M153.634 2886.1L17.583 2959.14M153.634 2886.1L51.1299 3015.96M299.377 2865.63L198.736 2926.33M299.377 2865.63L372.807 2822.93M299.377 2865.63L330.314 2688.83M51.1299 3015.96L17.583 3002.55M51.1299 3015.96L146.552 3051.96M51.1299 3015.96L134.624 2964.79M17.583 3086.89L146.552 3051.96M146.552 3051.96L130.151 3101.71M146.552 3051.96L220.728 3101.71M146.552 3051.96L177.862 3049.25M317.827 3101.71L297.513 3038.9M297.513 3038.9L177.862 3049.25M297.513 3038.9L198.736 2926.33M297.513 3038.9L312.05 2926.33M297.513 3038.9L317.827 3059.01M177.862 3049.25L134.624 2964.79M134.624 2964.79L198.736 2926.33M198.736 2926.33H312.05M312.05 2926.33L376.534 2971.22M312.05 2926.33L372.807 2822.93M414.927 2970.44L400.763 2988.08L376.534 2971.22M376.534 2971.22L317.827 3059.01M317.827 3059.01L361.997 3101.71M414.927 2892.45L372.807 2822.93M372.807 2822.93L414.927 2797.52M330.314 2688.83L414.927 2756.23M131.642 2651.77L71.258 2633.42M131.642 2651.77L57.4665 2458.39M131.642 2651.77L278.503 2538.82M71.258 2633.42L17.583 2613.66M71.258 2633.42L89.5216 2664.83M89.5216 2664.83L42.5568 2811.33M89.5216 2664.83L17.583 2713.88M57.4665 2458.39L17.583 2524.03M57.4665 2458.39L278.503 2538.82M57.4665 2458.39L189.045 2344.4M57.4665 2458.39L17.583 2409.33M278.503 2538.82L189.045 2344.4M278.503 2538.82L353.052 2330.29H372.807L414.927 2379.16M189.045 2344.4L153.261 2330.29M189.045 2344.4L241.974 2330.29" stroke="url(#paint5_linear_406_2106)" stroke-opacity="0.46"/>
</g>
<path d="M415.251 2067.79L324.601 2157.5M324.601 2157.5L299.607 1950.89M324.601 2157.5L415.251 2233.08M324.601 2157.5L278.717 2122.21M299.607 1950.89L166.803 1863.3M299.607 1950.89L330.57 1972.08M299.607 1950.89L131.736 2009.16M415.251 2022.59L330.57 1972.08M166.803 1863.3L153.746 1774.65M166.803 1863.3L89.5814 1996.1M166.803 1863.3L42.5784 1849.48M166.803 1863.3L299.607 1795.14M17.5843 1846.7L42.5784 1849.48M16 1824.1L153.746 1774.65M153.746 1774.65L299.607 1795.14M153.746 1774.65L17.5843 1701.54M153.746 1774.65L51.1585 1644.68M299.607 1795.14L198.885 1734.39M299.607 1795.14L373.097 1837.87M299.607 1795.14L330.57 1972.08M51.1585 1644.68L17.5843 1658.1M51.1585 1644.68L146.658 1608.66M51.1585 1644.68L134.721 1695.89M17.5843 1573.69L146.658 1608.66M146.658 1608.66L130.244 1558.86M146.658 1608.66L220.894 1558.86M146.658 1608.66L177.994 1611.37M318.073 1558.86L297.742 1621.72M297.742 1621.72L177.994 1611.37M297.742 1621.72L198.885 1734.39M297.742 1621.72L312.291 1734.39M297.742 1621.72L318.073 1601.59M177.994 1611.37L134.721 1695.89M134.721 1695.89L198.885 1734.39M198.885 1734.39H312.291M312.291 1734.39L376.828 1689.46M312.291 1734.39L373.097 1837.87M415.251 1690.24L401.076 1672.58L376.828 1689.46M376.828 1689.46L318.073 1601.59M318.073 1601.59L362.279 1558.86M415.251 1768.29L373.097 1837.87M373.097 1837.87L415.251 1863.3M330.57 1972.08L415.251 1904.62M131.736 2009.16L71.303 2027.53M131.736 2009.16L57.5003 2202.71M131.736 2009.16L278.717 2122.21M71.303 2027.53L17.5843 2047.31M71.303 2027.53L89.5814 1996.1M89.5814 1996.1L42.5784 1849.48M89.5814 1996.1L17.5843 1947M57.5003 2202.71L17.5843 2137.02M57.5003 2202.71L278.717 2122.21M57.5003 2202.71L189.185 2316.79M57.5003 2202.71L17.5843 2251.8M278.717 2122.21L189.185 2316.79M278.717 2122.21L353.326 2330.91H373.097L415.251 2282M189.185 2316.79L153.373 2330.91M189.185 2316.79L242.158 2330.91" stroke="url(#paint6_linear_406_2106)" stroke-opacity="0.48"/>
<g filter="url(#filter3_f_406_2106)">
<path d="M415.251 2067.79L324.601 2157.5M324.601 2157.5L299.607 1950.89M324.601 2157.5L415.251 2233.08M324.601 2157.5L278.717 2122.21M299.607 1950.89L166.803 1863.3M299.607 1950.89L330.57 1972.08M299.607 1950.89L131.736 2009.16M415.251 2022.59L330.57 1972.08M166.803 1863.3L153.746 1774.65M166.803 1863.3L89.5814 1996.1M166.803 1863.3L42.5784 1849.48M166.803 1863.3L299.607 1795.14M17.5843 1846.7L42.5784 1849.48M16 1824.1L153.746 1774.65M153.746 1774.65L299.607 1795.14M153.746 1774.65L17.5843 1701.54M153.746 1774.65L51.1585 1644.68M299.607 1795.14L198.885 1734.39M299.607 1795.14L373.097 1837.87M299.607 1795.14L330.57 1972.08M51.1585 1644.68L17.5843 1658.1M51.1585 1644.68L146.658 1608.66M51.1585 1644.68L134.721 1695.89M17.5843 1573.69L146.658 1608.66M146.658 1608.66L130.244 1558.86M146.658 1608.66L220.894 1558.86M146.658 1608.66L177.994 1611.37M318.073 1558.86L297.742 1621.72M297.742 1621.72L177.994 1611.37M297.742 1621.72L198.885 1734.39M297.742 1621.72L312.291 1734.39M297.742 1621.72L318.073 1601.59M177.994 1611.37L134.721 1695.89M134.721 1695.89L198.885 1734.39M198.885 1734.39H312.291M312.291 1734.39L376.828 1689.46M312.291 1734.39L373.097 1837.87M415.251 1690.24L401.076 1672.58L376.828 1689.46M376.828 1689.46L318.073 1601.59M318.073 1601.59L362.279 1558.86M415.251 1768.29L373.097 1837.87M373.097 1837.87L415.251 1863.3M330.57 1972.08L415.251 1904.62M131.736 2009.16L71.303 2027.53M131.736 2009.16L57.5003 2202.71M131.736 2009.16L278.717 2122.21M71.303 2027.53L17.5843 2047.31M71.303 2027.53L89.5814 1996.1M89.5814 1996.1L42.5784 1849.48M89.5814 1996.1L17.5843 1947M57.5003 2202.71L17.5843 2137.02M57.5003 2202.71L278.717 2122.21M57.5003 2202.71L189.185 2316.79M57.5003 2202.71L17.5843 2251.8M278.717 2122.21L189.185 2316.79M278.717 2122.21L353.326 2330.91H373.097L415.251 2282M189.185 2316.79L153.373 2330.91M189.185 2316.79L242.158 2330.91" stroke="url(#paint7_linear_406_2106)" stroke-opacity="0.46"/>
</g>
<path d="M415.251 3610.65L324.601 3700.36M324.601 3700.36L299.607 3493.75M324.601 3700.36L415.251 3775.94M324.601 3700.36L278.717 3665.07M299.607 3493.75L166.803 3406.16M299.607 3493.75L330.57 3514.94M299.607 3493.75L131.736 3552.02M415.251 3565.44L330.57 3514.94M166.803 3406.16L153.746 3317.51M166.803 3406.16L89.5814 3538.95M166.803 3406.16L42.5784 3392.34M166.803 3406.16L299.607 3337.99M17.5843 3389.56L42.5784 3392.34M16 3366.95L153.746 3317.51M153.746 3317.51L299.607 3337.99M153.746 3317.51L17.5843 3244.4M153.746 3317.51L51.1585 3187.54M299.607 3337.99L198.885 3277.25M299.607 3337.99L373.097 3380.73M299.607 3337.99L330.57 3514.94M51.1585 3187.54L17.5843 3200.96M51.1585 3187.54L146.658 3151.51M51.1585 3187.54L134.721 3238.75M17.5843 3116.55L146.658 3151.51M146.658 3151.51L130.244 3101.71M146.658 3151.51L220.894 3101.71M146.658 3151.51L177.994 3154.22M318.073 3101.71L297.742 3164.58M297.742 3164.58L177.994 3154.22M297.742 3164.58L198.885 3277.25M297.742 3164.58L312.291 3277.25M297.742 3164.58L318.073 3144.45M177.994 3154.22L134.721 3238.75M134.721 3238.75L198.885 3277.25M198.885 3277.25H312.291M312.291 3277.25L376.828 3232.32M312.291 3277.25L373.097 3380.73M415.251 3233.1L401.076 3215.44L376.828 3232.32M376.828 3232.32L318.073 3144.45M318.073 3144.45L362.279 3101.71M415.251 3311.15L373.097 3380.73M373.097 3380.73L415.251 3406.16M330.57 3514.94L415.251 3447.48M131.736 3552.02L71.303 3570.39M131.736 3552.02L57.5003 3745.57M131.736 3552.02L278.717 3665.07M71.303 3570.39L17.5843 3590.17M71.303 3570.39L89.5814 3538.95M89.5814 3538.95L42.5784 3392.34M89.5814 3538.95L17.5843 3489.86M57.5003 3745.57L17.5843 3679.87M57.5003 3745.57L278.717 3665.07M57.5003 3745.57L189.185 3859.64M57.5003 3745.57L17.5843 3794.66M278.717 3665.07L189.185 3859.64M278.717 3665.07L353.326 3873.77H373.097L415.251 3824.85M189.185 3859.64L153.373 3873.77M189.185 3859.64L242.158 3873.77" stroke="url(#paint8_linear_406_2106)" stroke-opacity="0.48"/>
<g filter="url(#filter4_f_406_2106)">
<path d="M415.251 3610.65L324.601 3700.36M324.601 3700.36L299.607 3493.75M324.601 3700.36L415.251 3775.94M324.601 3700.36L278.717 3665.07M299.607 3493.75L166.803 3406.16M299.607 3493.75L330.57 3514.94M299.607 3493.75L131.736 3552.02M415.251 3565.44L330.57 3514.94M166.803 3406.16L153.746 3317.51M166.803 3406.16L89.5814 3538.95M166.803 3406.16L42.5784 3392.34M166.803 3406.16L299.607 3337.99M17.5843 3389.56L42.5784 3392.34M16 3366.95L153.746 3317.51M153.746 3317.51L299.607 3337.99M153.746 3317.51L17.5843 3244.4M153.746 3317.51L51.1585 3187.54M299.607 3337.99L198.885 3277.25M299.607 3337.99L373.097 3380.73M299.607 3337.99L330.57 3514.94M51.1585 3187.54L17.5843 3200.96M51.1585 3187.54L146.658 3151.51M51.1585 3187.54L134.721 3238.75M17.5843 3116.55L146.658 3151.51M146.658 3151.51L130.244 3101.71M146.658 3151.51L220.894 3101.71M146.658 3151.51L177.994 3154.22M318.073 3101.71L297.742 3164.58M297.742 3164.58L177.994 3154.22M297.742 3164.58L198.885 3277.25M297.742 3164.58L312.291 3277.25M297.742 3164.58L318.073 3144.45M177.994 3154.22L134.721 3238.75M134.721 3238.75L198.885 3277.25M198.885 3277.25H312.291M312.291 3277.25L376.828 3232.32M312.291 3277.25L373.097 3380.73M415.251 3233.1L401.076 3215.44L376.828 3232.32M376.828 3232.32L318.073 3144.45M318.073 3144.45L362.279 3101.71M415.251 3311.15L373.097 3380.73M373.097 3380.73L415.251 3406.16M330.57 3514.94L415.251 3447.48M131.736 3552.02L71.303 3570.39M131.736 3552.02L57.5003 3745.57M131.736 3552.02L278.717 3665.07M71.303 3570.39L17.5843 3590.17M71.303 3570.39L89.5814 3538.95M89.5814 3538.95L42.5784 3392.34M89.5814 3538.95L17.5843 3489.86M57.5003 3745.57L17.5843 3679.87M57.5003 3745.57L278.717 3665.07M57.5003 3745.57L189.185 3859.64M57.5003 3745.57L17.5843 3794.66M278.717 3665.07L189.185 3859.64M278.717 3665.07L353.326 3873.77H373.097L415.251 3824.85M189.185 3859.64L153.373 3873.77M189.185 3859.64L242.158 3873.77" stroke="url(#paint9_linear_406_2106)" stroke-opacity="0.46"/>
</g>
<path d="M414.927 4136.05L324.35 4046.41M324.35 4046.41L299.377 4252.86M324.35 4046.41L414.927 3970.89M324.35 4046.41L278.503 4081.68M299.377 4252.86L166.68 4340.38M299.377 4252.86L330.314 4231.68M299.377 4252.86L131.642 4194.63M414.927 4181.22L330.314 4231.68M166.68 4340.38L153.634 4428.95M166.68 4340.38L89.5216 4207.69M166.68 4340.38L42.5568 4354.18M166.68 4340.38L299.377 4408.48M17.583 4356.96L42.5568 4354.18M16 4379.55L153.634 4428.95M153.634 4428.95L299.377 4408.48M153.634 4428.95L17.583 4502M153.634 4428.95L51.1299 4558.82M299.377 4408.48L198.736 4469.18M299.377 4408.48L372.807 4365.78M299.377 4408.48L330.314 4231.68M51.1299 4558.82L17.583 4545.41M51.1299 4558.82L146.552 4594.81M51.1299 4558.82L134.624 4507.65M17.583 4629.75L146.552 4594.81M146.552 4594.81L130.151 4644.57M146.552 4594.81L220.728 4644.57M146.552 4594.81L177.862 4592.11M317.827 4644.57L297.513 4581.76M297.513 4581.76L177.862 4592.11M297.513 4581.76L198.736 4469.18M297.513 4581.76L312.05 4469.18M297.513 4581.76L317.827 4601.87M177.862 4592.11L134.624 4507.65M134.624 4507.65L198.736 4469.18M198.736 4469.18H312.05M312.05 4469.18L376.534 4514.07M312.05 4469.18L372.807 4365.78M414.927 4513.29L400.763 4530.94L376.534 4514.07M376.534 4514.07L317.827 4601.87M317.827 4601.87L361.997 4644.57M414.927 4435.3L372.807 4365.78M372.807 4365.78L414.927 4340.38M330.314 4231.68L414.927 4299.09M131.642 4194.63L71.258 4176.28M131.642 4194.63L57.4665 4001.24M131.642 4194.63L278.503 4081.68M71.258 4176.28L17.583 4156.52M71.258 4176.28L89.5216 4207.69M89.5216 4207.69L42.5568 4354.18M89.5216 4207.69L17.583 4256.74M57.4665 4001.24L17.583 4066.88M57.4665 4001.24L278.503 4081.68M57.4665 4001.24L189.045 3887.26M57.4665 4001.24L17.583 3952.19M278.503 4081.68L189.045 3887.26M278.503 4081.68L353.052 3873.14H372.807L414.927 3922.02M189.045 3887.26L153.261 3873.14M189.045 3887.26L241.974 3873.14" stroke="url(#paint10_linear_406_2106)" stroke-opacity="0.48"/>
<g filter="url(#filter5_f_406_2106)">
<path d="M414.927 4136.05L324.35 4046.41M324.35 4046.41L299.377 4252.86M324.35 4046.41L414.927 3970.89M324.35 4046.41L278.503 4081.68M299.377 4252.86L166.68 4340.38M299.377 4252.86L330.314 4231.68M299.377 4252.86L131.642 4194.63M414.927 4181.22L330.314 4231.68M166.68 4340.38L153.634 4428.95M166.68 4340.38L89.5216 4207.69M166.68 4340.38L42.5568 4354.18M166.68 4340.38L299.377 4408.48M17.583 4356.96L42.5568 4354.18M16 4379.55L153.634 4428.95M153.634 4428.95L299.377 4408.48M153.634 4428.95L17.583 4502M153.634 4428.95L51.1299 4558.82M299.377 4408.48L198.736 4469.18M299.377 4408.48L372.807 4365.78M299.377 4408.48L330.314 4231.68M51.1299 4558.82L17.583 4545.41M51.1299 4558.82L146.552 4594.81M51.1299 4558.82L134.624 4507.65M17.583 4629.75L146.552 4594.81M146.552 4594.81L130.151 4644.57M146.552 4594.81L220.728 4644.57M146.552 4594.81L177.862 4592.11M317.827 4644.57L297.513 4581.76M297.513 4581.76L177.862 4592.11M297.513 4581.76L198.736 4469.18M297.513 4581.76L312.05 4469.18M297.513 4581.76L317.827 4601.87M177.862 4592.11L134.624 4507.65M134.624 4507.65L198.736 4469.18M198.736 4469.18H312.05M312.05 4469.18L376.534 4514.07M312.05 4469.18L372.807 4365.78M414.927 4513.29L400.763 4530.94L376.534 4514.07M376.534 4514.07L317.827 4601.87M317.827 4601.87L361.997 4644.57M414.927 4435.3L372.807 4365.78M372.807 4365.78L414.927 4340.38M330.314 4231.68L414.927 4299.09M131.642 4194.63L71.258 4176.28M131.642 4194.63L57.4665 4001.24M131.642 4194.63L278.503 4081.68M71.258 4176.28L17.583 4156.52M71.258 4176.28L89.5216 4207.69M89.5216 4207.69L42.5568 4354.18M89.5216 4207.69L17.583 4256.74M57.4665 4001.24L17.583 4066.88M57.4665 4001.24L278.503 4081.68M57.4665 4001.24L189.045 3887.26M57.4665 4001.24L17.583 3952.19M278.503 4081.68L189.045 3887.26M278.503 4081.68L353.052 3873.14H372.807L414.927 3922.02M189.045 3887.26L153.261 3873.14M189.045 3887.26L241.974 3873.14" stroke="url(#paint11_linear_406_2106)" stroke-opacity="0.46"/>
</g>
<rect x="16" y="16" width="397.255" height="4802" fill="black" fill-opacity="0.68"/>
<defs>
<filter id="filter0_f_406_2106" x="0.831055" y="0.584717" width="429.848" height="802.971" filterUnits="userSpaceOnUse" color-interpolation-filters="sRGB">
<feFlood flood-opacity="0" result="BackgroundImageFix"/>
<feBlend mode="normal" in="SourceGraphic" in2="BackgroundImageFix" result="shape"/>
<feGaussianBlur stdDeviation="7.5" result="effect1_foregroundBlur_406_2106"/>
</filter>
<filter id="filter1_f_406_2106" x="0.831055" y="771.929" width="429.523" height="802.344" filterUnits="userSpaceOnUse" color-interpolation-filters="sRGB">
<feFlood flood-opacity="0" result="BackgroundImageFix"/>
<feBlend mode="normal" in="SourceGraphic" in2="BackgroundImageFix" result="shape"/>
<feGaussianBlur stdDeviation="7.5" result="effect1_foregroundBlur_406_2106"/>
</filter>
<filter id="filter2_f_406_2106" x="0.831055" y="2314.79" width="429.523" height="802.344" filterUnits="userSpaceOnUse" color-interpolation-filters="sRGB">
<feFlood flood-opacity="0" result="BackgroundImageFix"/>
<feBlend mode="normal" in="SourceGraphic" in2="BackgroundImageFix" result="shape"/>
<feGaussianBlur stdDeviation="7.5" result="effect1_foregroundBlur_406_2106"/>
</filter>
<filter id="filter3_f_406_2106" x="0.831055" y="1543.44" width="429.848" height="802.971" filterUnits="userSpaceOnUse" color-interpolation-filters="sRGB">
<feFlood flood-opacity="0" result="BackgroundImageFix"/>
<feBlend mode="normal" in="SourceGraphic" in2="BackgroundImageFix" result="shape"/>
<feGaussianBlur stdDeviation="7.5" result="effect1_foregroundBlur_406_2106"/>
</filter>
<filter id="filter4_f_406_2106" x="0.831055" y="3086.3" width="429.848" height="802.971" filterUnits="userSpaceOnUse" color-interpolation-filters="sRGB">
<feFlood flood-opacity="0" result="BackgroundImageFix"/>
<feBlend mode="normal" in="SourceGraphic" in2="BackgroundImageFix" result="shape"/>
<feGaussianBlur stdDeviation="7.5" result="effect1_foregroundBlur_406_2106"/>
</filter>
<filter id="filter5_f_406_2106" x="0.831055" y="3857.64" width="429.523" height="802.344" filterUnits="userSpaceOnUse" color-interpolation-filters="sRGB">
<feFlood flood-opacity="0" result="BackgroundImageFix"/>
<feBlend mode="normal" in="SourceGraphic" in2="BackgroundImageFix" result="shape"/>
<feGaussianBlur stdDeviation="7.5" result="effect1_foregroundBlur_406_2106"/>
</filter>
<linearGradient id="paint0_linear_406_2106" x1="215.626" y1="16" x2="215.626" y2="787.429" gradientUnits="userSpaceOnUse">
<stop stop-color="#00FF75"/>
<stop offset="0.453125" stop-color="#CBFE00"/>
<stop offset="0.987181" stop-color="#00FF05"/>
</linearGradient>
<linearGradient id="paint1_linear_406_2106" x1="215.626" y1="16" x2="215.626" y2="788.056" gradientUnits="userSpaceOnUse">
<stop stop-color="#B986FF"/>
<stop offset="0.513542" stop-color="#DAFF4C"/>
<stop offset="1" stop-color="#37FFAB"/>
</linearGradient>
<linearGradient id="paint2_linear_406_2106" x1="215.463" y1="1558.86" x2="215.463" y2="788.056" gradientUnits="userSpaceOnUse">
<stop stop-color="#00FF75"/>
<stop offset="0.453125" stop-color="#CBFE00"/>
<stop offset="0.987181" stop-color="#00FF05"/>
</linearGradient>
<linearGradient id="paint3_linear_406_2106" x1="215.463" y1="1558.86" x2="215.463" y2="787.429" gradientUnits="userSpaceOnUse">
<stop stop-color="#B986FF"/>
<stop offset="0.513542" stop-color="#DAFF4C"/>
<stop offset="1" stop-color="#37FFAB"/>
</linearGradient>
<linearGradient id="paint4_linear_406_2106" x1="215.463" y1="3101.71" x2="215.463" y2="2330.91" gradientUnits="userSpaceOnUse">
<stop stop-color="#00FF75"/>
<stop offset="0.453125" stop-color="#CBFE00"/>
<stop offset="0.987181" stop-color="#00FF05"/>
</linearGradient>
<linearGradient id="paint5_linear_406_2106" x1="215.463" y1="3101.71" x2="215.463" y2="2330.29" gradientUnits="userSpaceOnUse">
<stop stop-color="#B986FF"/>
<stop offset="0.513542" stop-color="#DAFF4C"/>
<stop offset="1" stop-color="#37FFAB"/>
</linearGradient>
<linearGradient id="paint6_linear_406_2106" x1="215.626" y1="1558.86" x2="215.626" y2="2330.29" gradientUnits="userSpaceOnUse">
<stop stop-color="#00FF75"/>
<stop offset="0.453125" stop-color="#CBFE00"/>
<stop offset="0.987181" stop-color="#00FF05"/>
</linearGradient>
<linearGradient id="paint7_linear_406_2106" x1="215.626" y1="1558.86" x2="215.626" y2="2330.91" gradientUnits="userSpaceOnUse">
<stop stop-color="#B986FF"/>
<stop offset="0.513542" stop-color="#DAFF4C"/>
<stop offset="1" stop-color="#37FFAB"/>
</linearGradient>
<linearGradient id="paint8_linear_406_2106" x1="215.626" y1="3101.71" x2="215.626" y2="3873.14" gradientUnits="userSpaceOnUse">
<stop stop-color="#00FF75"/>
<stop offset="0.453125" stop-color="#CBFE00"/>
<stop offset="0.987181" stop-color="#00FF05"/>
</linearGradient>
<linearGradient id="paint9_linear_406_2106" x1="215.626" y1="3101.71" x2="215.626" y2="3873.77" gradientUnits="userSpaceOnUse">
<stop stop-color="#B986FF"/>
<stop offset="0.513542" stop-color="#DAFF4C"/>
<stop offset="1" stop-color="#37FFAB"/>
</linearGradient>
<linearGradient id="paint10_linear_406_2106" x1="215.463" y1="4644.57" x2="215.463" y2="3873.77" gradientUnits="userSpaceOnUse">
<stop stop-color="#00FF75"/>
<stop offset="0.453125" stop-color="#CBFE00"/>
<stop offset="0.987181" stop-color="#00FF05"/>
</linearGradient>
<linearGradient id="paint11_linear_406_2106" x1="215.463" y1="4644.57" x2="215.463" y2="3873.14" gradientUnits="userSpaceOnUse">
<stop stop-color="#B986FF"/>
<stop offset="0.513542" stop-color="#DAFF4C"/>
<stop offset="1" stop-color="#37FFAB"/>
</linearGradient>
</defs>
</svg>
