<svg width="1059" height="923" viewBox="0 0 1059 923" fill="none" xmlns="http://www.w3.org/2000/svg">
<g filter="url(#filter0_d_375_192)">
<path d="M247.694 132.258L437.906 189.461L364.583 98.8586L408.759 31.0737L590.277 69.2137L724.444 241.986L857 241.986L1008 395.663L884.903 515.07L942.088 569.584L884.903 736.804L659.839 743.244L564.5 817.501L437.906 852L333.064 736.804L114 657.001L51.0001 515.07L250.379 395.663L191.168 205.857L247.694 132.258Z" fill="url(#paint0_linear_375_192)" fill-opacity="0.68" shape-rendering="crispEdges"/>
<path d="M247.694 132.258L437.906 189.461L364.583 98.8586L408.759 31.0737L590.277 69.2137L724.444 241.986L857 241.986L1008 395.663L884.903 515.07L942.088 569.584L884.903 736.804L659.839 743.244L564.5 817.501L437.906 852L333.064 736.804L114 657.001L51.0001 515.07L250.379 395.663L191.168 205.857L247.694 132.258Z" stroke="url(#paint1_linear_375_192)" shape-rendering="crispEdges"/>
</g>
<defs>
<filter id="filter0_d_375_192" x="0.363525" y="0.51416" width="1058.35" height="922.049" filterUnits="userSpaceOnUse" color-interpolation-filters="sRGB">
<feFlood flood-opacity="0" result="BackgroundImageFix"/>
<feColorMatrix in="SourceAlpha" type="matrix" values="0 0 0 0 0 0 0 0 0 0 0 0 0 0 0 0 0 0 127 0" result="hardAlpha"/>
<feOffset dy="20"/>
<feGaussianBlur stdDeviation="25"/>
<feComposite in2="hardAlpha" operator="out"/>
<feColorMatrix type="matrix" values="0 0 0 0 0 0 0 0 0 0 0 0 0 0 0 0 0 0 0.5 0"/>
<feBlend mode="normal" in2="BackgroundImageFix" result="effect1_dropShadow_375_192"/>
<feBlend mode="normal" in="SourceGraphic" in2="effect1_dropShadow_375_192" result="shape"/>
</filter>
<linearGradient id="paint0_linear_375_192" x1="427.48" y1="76.2551" x2="556.287" y2="776.189" gradientUnits="userSpaceOnUse">
<stop stop-color="#00FF00"/>
<stop offset="1" stop-color="#B2FF66"/>
</linearGradient>
<linearGradient id="paint1_linear_375_192" x1="292.802" y1="68.4546" x2="616.467" y2="819.518" gradientUnits="userSpaceOnUse">
<stop stop-color="white"/>
<stop offset="1" stop-color="white" stop-opacity="0"/>
</linearGradient>
</defs>
</svg>
