<svg width="1364" height="794" viewBox="0 0 1364 794" fill="none" xmlns="http://www.w3.org/2000/svg">
<path d="M1325.36 553H1311.64V578.642H1286V592.358H1311.64V618H1325.36V592.358H1351V578.642H1325.36V553Z" stroke="white" stroke-width="3"/>
<g filter="url(#filter0_f_527_34)">
<path d="M1325.36 553H1311.64V578.642H1286V592.358H1311.64V618H1325.36V592.358H1351V578.642H1325.36V553Z" stroke="white" stroke-width="3"/>
</g>
<path d="M571.835 702H555.165V733.165H524V749.835H555.165V781H571.835V749.835H603V733.165H571.835V702Z" stroke="white" stroke-width="3"/>
<g filter="url(#filter1_f_527_34)">
<path d="M571.835 702H555.165V733.165H524V749.835H555.165V781H571.835V749.835H603V733.165H571.835V702Z" stroke="white" stroke-width="3"/>
</g>
<path d="M660.499 431.152L646.386 436.582L656.538 462.968L630.152 473.12L635.582 487.234L661.968 477.082L672.12 503.468L686.234 498.037L676.082 471.651L702.468 461.499L697.037 447.386L670.651 457.538L660.499 431.152Z" fill="white"/>
<g filter="url(#filter2_f_527_34)">
<path d="M660.499 431.152L646.386 436.582L656.538 462.968L630.152 473.12L635.582 487.234L661.968 477.082L672.12 503.468L686.234 498.037L676.082 471.651L702.468 461.499L697.037 447.386L670.651 457.538L660.499 431.152Z" fill="white"/>
</g>
<path d="M1320.75 85.696L1315.37 73.605L1292.76 83.6698L1282.7 61.0648L1270.6 66.4483L1280.67 89.0533L1258.06 99.1182L1263.45 111.209L1286.05 101.144L1296.12 123.749L1308.21 118.366L1298.14 95.7609L1320.75 85.696Z" fill="white" stroke="white"/>
<g filter="url(#filter3_f_527_34)">
<path d="M1320.75 85.696L1315.37 73.605L1292.76 83.6698L1282.7 61.0648L1270.6 66.4483L1280.67 89.0533L1258.06 99.1182L1263.45 111.209L1286.05 101.144L1296.12 123.749L1308.21 118.366L1298.14 95.7609L1320.75 85.696Z" fill="white"/>
<path d="M1320.75 85.696L1315.37 73.605L1292.76 83.6698L1282.7 61.0648L1270.6 66.4483L1280.67 89.0533L1258.06 99.1182L1263.45 111.209L1286.05 101.144L1296.12 123.749L1308.21 118.366L1298.14 95.7609L1320.75 85.696Z" stroke="white"/>
</g>
<path d="M76.1345 650.766L77.8301 637.269L52.5963 634.099L55.7663 608.865L42.2692 607.17L39.0992 632.404L13.8655 629.234L12.1699 642.731L37.4037 645.901L34.2337 671.134L47.7308 672.83L50.9008 647.596L76.1345 650.766Z" fill="white" stroke="white"/>
<g filter="url(#filter4_f_527_34)">
<path d="M76.1345 650.766L77.8301 637.269L52.5963 634.099L55.7663 608.865L42.2692 607.17L39.0992 632.404L13.8655 629.234L12.1699 642.731L37.4037 645.901L34.2337 671.134L47.7308 672.83L50.9008 647.596L76.1345 650.766Z" fill="white"/>
<path d="M76.1345 650.766L77.8301 637.269L52.5963 634.099L55.7663 608.865L42.2692 607.17L39.0992 632.404L13.8655 629.234L12.1699 642.731L37.4037 645.901L34.2337 671.134L47.7308 672.83L50.9008 647.596L76.1345 650.766Z" stroke="white"/>
</g>
<path d="M1278.78 49.6594L1278.7 36.8841L1254.81 37.0376L1254.66 13.1534L1241.88 13.2355L1242.04 37.1196L1218.15 37.273L1218.24 50.0483L1242.12 49.8948L1242.27 73.779L1255.05 73.6969L1254.89 49.8128L1278.78 49.6594Z" stroke="white" stroke-width="3"/>
<g filter="url(#filter5_f_527_34)">
<path d="M1278.78 49.6594L1278.7 36.8841L1254.81 37.0376L1254.66 13.1534L1241.88 13.2355L1242.04 37.1196L1218.15 37.273L1218.24 50.0483L1242.12 49.8948L1242.27 73.779L1255.05 73.6969L1254.89 49.8128L1278.78 49.6594Z" stroke="white" stroke-width="3"/>
</g>
<defs>
<filter id="filter0_f_527_34" x="1273.5" y="540.5" width="90" height="90" filterUnits="userSpaceOnUse" color-interpolation-filters="sRGB">
<feFlood flood-opacity="0" result="BackgroundImageFix"/>
<feBlend mode="normal" in="SourceGraphic" in2="BackgroundImageFix" result="shape"/>
<feGaussianBlur stdDeviation="5.5" result="effect1_foregroundBlur_527_34"/>
</filter>
<filter id="filter1_f_527_34" x="511.5" y="689.5" width="104" height="104" filterUnits="userSpaceOnUse" color-interpolation-filters="sRGB">
<feFlood flood-opacity="0" result="BackgroundImageFix"/>
<feBlend mode="normal" in="SourceGraphic" in2="BackgroundImageFix" result="shape"/>
<feGaussianBlur stdDeviation="5.5" result="effect1_foregroundBlur_527_34"/>
</filter>
<filter id="filter2_f_527_34" x="619.152" y="420.152" width="94.3157" height="94.3156" filterUnits="userSpaceOnUse" color-interpolation-filters="sRGB">
<feFlood flood-opacity="0" result="BackgroundImageFix"/>
<feBlend mode="normal" in="SourceGraphic" in2="BackgroundImageFix" result="shape"/>
<feGaussianBlur stdDeviation="5.5" result="effect1_foregroundBlur_527_34"/>
</filter>
<filter id="filter3_f_527_34" x="1246.4" y="49.4048" width="86.0049" height="86.0046" filterUnits="userSpaceOnUse" color-interpolation-filters="sRGB">
<feFlood flood-opacity="0" result="BackgroundImageFix"/>
<feBlend mode="normal" in="SourceGraphic" in2="BackgroundImageFix" result="shape"/>
<feGaussianBlur stdDeviation="5.5" result="effect1_foregroundBlur_527_34"/>
</filter>
<filter id="filter4_f_527_34" x="0.611572" y="595.611" width="88.7769" height="88.777" filterUnits="userSpaceOnUse" color-interpolation-filters="sRGB">
<feFlood flood-opacity="0" result="BackgroundImageFix"/>
<feBlend mode="normal" in="SourceGraphic" in2="BackgroundImageFix" result="shape"/>
<feGaussianBlur stdDeviation="5.5" result="effect1_foregroundBlur_527_34"/>
</filter>
<filter id="filter5_f_527_34" x="1205.64" y="0.643799" width="85.6448" height="85.6448" filterUnits="userSpaceOnUse" color-interpolation-filters="sRGB">
<feFlood flood-opacity="0" result="BackgroundImageFix"/>
<feBlend mode="normal" in="SourceGraphic" in2="BackgroundImageFix" result="shape"/>
<feGaussianBlur stdDeviation="5.5" result="effect1_foregroundBlur_527_34"/>
</filter>
</defs>
</svg>
