<svg width="459" height="304" viewBox="0 0 459 304" fill="none" xmlns="http://www.w3.org/2000/svg">
<mask id="path-1-inside-1_843_3" fill="white">
<path d="M43 226.355C36.0777 226.355 29.3108 228.408 23.555 232.254C17.7993 236.1 13.3133 241.566 10.6642 247.961C8.01515 254.357 7.32203 261.394 8.67252 268.183C10.023 274.973 13.3564 281.209 18.2513 286.104C23.1461 290.999 29.3825 294.332 36.1718 295.683C42.9612 297.033 49.9985 296.34 56.3939 293.691C62.7893 291.042 68.2556 286.556 72.1014 280.8C75.9473 275.044 78 268.278 78 261.355H43V226.355Z"/>
</mask>
<path d="M43 226.355C36.0777 226.355 29.3108 228.408 23.555 232.254C17.7993 236.1 13.3133 241.566 10.6642 247.961C8.01515 254.357 7.32203 261.394 8.67252 268.183C10.023 274.973 13.3564 281.209 18.2513 286.104C23.1461 290.999 29.3825 294.332 36.1718 295.683C42.9612 297.033 49.9985 296.34 56.3939 293.691C62.7893 291.042 68.2556 286.556 72.1014 280.8C75.9473 275.044 78 268.278 78 261.355H43V226.355Z" stroke="#FF946B" stroke-width="2" mask="url(#path-1-inside-1_843_3)"/>
<path d="M424 70.3552C430.922 70.3552 437.689 68.3025 443.445 64.4567C449.201 60.6108 453.687 55.1446 456.336 48.7491C458.985 42.3537 459.678 35.3164 458.327 28.5271C456.977 21.7377 453.644 15.5013 448.749 10.6065C443.854 5.71165 437.618 2.37822 430.828 1.02774C424.039 -0.322743 417.001 0.370373 410.606 3.01944C404.211 5.6685 398.744 10.1545 394.899 15.9103C391.053 21.666 389 30.4412 389 37.3635L424 37.3635V70.3552Z" fill="url(#paint0_radial_843_3)"/>
<g filter="url(#filter0_f_843_3)">
<path d="M43 226.355C36.0777 226.355 29.3108 228.408 23.555 232.254C17.7993 236.1 13.3133 241.566 10.6642 247.961C8.01515 254.357 7.32203 261.394 8.67252 268.183C10.023 274.973 13.3564 281.209 18.2513 286.104C23.1461 290.999 29.3825 294.332 36.1718 295.683C42.9612 297.033 49.9985 296.34 56.3939 293.691C62.7893 291.042 68.2556 286.556 72.1014 280.8C75.9473 275.044 78 268.278 78 261.355H43L43 226.355Z" stroke="#FF8A00" stroke-width="3"/>
</g>
<defs>
<filter id="filter0_f_843_3" x="0.5" y="218.855" width="85" height="85" filterUnits="userSpaceOnUse" color-interpolation-filters="sRGB">
<feFlood flood-opacity="0" result="BackgroundImageFix"/>
<feBlend mode="normal" in="SourceGraphic" in2="BackgroundImageFix" result="shape"/>
<feGaussianBlur stdDeviation="3" result="effect1_foregroundBlur_843_3"/>
</filter>
<radialGradient id="paint0_radial_843_3" cx="0" cy="0" r="1" gradientUnits="userSpaceOnUse" gradientTransform="translate(441.787 17.0048) rotate(109.102) scale(54.3515 58.7667)">
<stop stop-color="#FF5E36"/>
<stop offset="1" stop-color="#FF9A00"/>
</radialGradient>
</defs>
</svg>
