<svg width="454" height="3087" viewBox="0 0 454 3087" fill="none" xmlns="http://www.w3.org/2000/svg">
<path d="M453 508.935L350.373 598.644M350.373 598.644L322.077 392.032M350.373 598.644L453 674.225M350.373 598.644L298.426 563.353M322.077 392.032L171.727 304.443M322.077 392.032L357.131 413.223M322.077 392.032L132.027 450.307M453 463.728L357.131 413.223M171.727 304.443L156.945 215.794M171.727 304.443L84.3029 437.239M171.727 304.443L31.0899 290.624M171.727 304.443L322.077 236.279M2.79365 287.843L31.0899 290.624M1 265.24L156.945 215.794M156.945 215.794L322.077 236.279M156.945 215.794L2.79365 142.686M156.945 215.794L40.8036 85.8232M322.077 236.279L208.047 175.531M322.077 236.279L405.276 279.014M322.077 236.279L357.131 413.223M40.8036 85.8232L2.79365 99.2442M40.8036 85.8232L148.921 49.7987M40.8036 85.8232L135.406 137.035M2.79365 14.8336L148.921 49.7987M148.921 49.7987L130.338 0M148.921 49.7987L232.965 0M148.921 49.7987L184.397 52.509M342.982 0L319.965 62.8664M319.965 62.8664L184.397 52.509M319.965 62.8664L208.047 175.531M319.965 62.8664L336.436 175.531M319.965 62.8664L342.982 42.735M184.397 52.509L135.406 137.035M135.406 137.035L208.047 175.531M208.047 175.531H336.436M336.436 175.531L409.5 130.605M336.436 175.531L405.276 279.014M453 131.384L436.951 113.725L409.5 130.605M409.5 130.605L342.982 42.735M342.982 42.735L393.029 0M453 209.437L405.276 279.014M405.276 279.014L453 304.443M357.131 413.223L453 345.765M132.027 450.307L63.6095 468.673M132.027 450.307L47.9832 643.851M132.027 450.307L298.426 563.353M63.6095 468.673L2.79365 488.451M63.6095 468.673L84.3029 437.239M84.3029 437.239L31.0899 290.624M84.3029 437.239L2.79365 388.147M47.9832 643.851L2.79365 578.159M47.9832 643.851L298.426 563.353M47.9832 643.851L197.067 757.929M47.9832 643.851L2.79365 692.943M298.426 563.353L197.067 757.929M298.426 563.353L382.893 772.056H405.276L453 723.14M197.067 757.929L156.523 772.056M197.067 757.929L257.038 772.056" stroke="url(#paint0_linear_610_72)" stroke-opacity="0.34"/>
<path d="M452.633 1034.34L350.089 944.7M350.089 944.7L321.816 1151.14M350.089 944.7L452.633 869.181M350.089 944.7L298.185 979.962M321.816 1151.14L171.588 1238.66M321.816 1151.14L356.841 1129.97M321.816 1151.14L131.921 1092.92M452.633 1079.51L356.841 1129.97M171.588 1238.66L156.818 1327.24M171.588 1238.66L84.2352 1105.97M171.588 1238.66L31.0655 1252.47M171.588 1238.66L321.816 1306.77M2.79219 1255.25L31.0655 1252.47M1 1277.83L156.818 1327.24M156.818 1327.24L321.816 1306.77M156.818 1327.24L2.79219 1400.29M156.818 1327.24L40.7712 1457.1M321.816 1306.77L207.879 1367.47M321.816 1306.77L404.948 1264.07M321.816 1306.77L356.841 1129.97M40.7712 1457.1L2.79219 1443.69M40.7712 1457.1L148.8 1493.1M40.7712 1457.1L135.297 1405.93M2.79219 1528.04L148.8 1493.1M148.8 1493.1L130.233 1542.86M148.8 1493.1L232.776 1542.86M148.8 1493.1L184.248 1490.39M342.704 1542.86L319.706 1480.04M319.706 1480.04L184.248 1490.39M319.706 1480.04L207.879 1367.47M319.706 1480.04L336.164 1367.47M319.706 1480.04L342.704 1500.16M184.248 1490.39L135.297 1405.93M135.297 1405.93L207.879 1367.47M207.879 1367.47H336.164M336.164 1367.47L409.168 1412.36M336.164 1367.47L404.948 1264.07M452.633 1411.58L436.597 1429.22L409.168 1412.36M409.168 1412.36L342.704 1500.16M342.704 1500.16L392.71 1542.86M452.633 1333.59L404.948 1264.07M404.948 1264.07L452.633 1238.66M356.841 1129.97L452.633 1197.37M131.921 1092.92L63.5586 1074.57M131.921 1092.92L47.945 899.53M131.921 1092.92L298.185 979.962M63.5586 1074.57L2.79219 1054.8M63.5586 1074.57L84.2352 1105.97M84.2352 1105.97L31.0655 1252.47M84.2352 1105.97L2.79219 1155.03M47.945 899.53L2.79219 965.168M47.945 899.53L298.185 979.962M47.945 899.53L196.907 785.544M47.945 899.53L2.79219 850.477M298.185 979.962L196.907 785.544M298.185 979.962L382.582 771.429H404.948L452.633 820.305M196.907 785.544L156.396 771.429M196.907 785.544L256.83 771.429" stroke="url(#paint1_linear_610_72)" stroke-opacity="0.34"/>
<path d="M452.633 2577.19L350.089 2487.56M350.089 2487.56L321.816 2694M350.089 2487.56L452.633 2412.04M350.089 2487.56L298.185 2522.82M321.816 2694L171.588 2781.52M321.816 2694L356.841 2672.83M321.816 2694L131.921 2635.77M452.633 2622.36L356.841 2672.83M171.588 2781.52L156.818 2870.1M171.588 2781.52L84.2352 2648.83M171.588 2781.52L31.0655 2795.33M171.588 2781.52L321.816 2849.63M2.79219 2798.1L31.0655 2795.33M1 2820.69L156.818 2870.1M156.818 2870.1L321.816 2849.63M156.818 2870.1L2.79219 2943.14M156.818 2870.1L40.7712 2999.96M321.816 2849.63L207.879 2910.33M321.816 2849.63L404.948 2806.93M321.816 2849.63L356.841 2672.83M40.7712 2999.96L2.79219 2986.55M40.7712 2999.96L148.8 3035.96M40.7712 2999.96L135.297 2948.79M2.79219 3070.89L148.8 3035.96M148.8 3035.96L130.233 3085.71M148.8 3035.96L232.776 3085.71M148.8 3035.96L184.248 3033.25M342.704 3085.71L319.706 3022.9M319.706 3022.9L184.248 3033.25M319.706 3022.9L207.879 2910.33M319.706 3022.9L336.164 2910.33M319.706 3022.9L342.704 3043.01M184.248 3033.25L135.297 2948.79M135.297 2948.79L207.879 2910.33M207.879 2910.33H336.164M336.164 2910.33L409.168 2955.22M336.164 2910.33L404.948 2806.93M452.633 2954.44L436.597 2972.08L409.168 2955.22M409.168 2955.22L342.704 3043.01M342.704 3043.01L392.71 3085.71M452.633 2876.45L404.948 2806.93M404.948 2806.93L452.633 2781.52M356.841 2672.83L452.633 2740.23M131.921 2635.77L63.5586 2617.42M131.921 2635.77L47.945 2442.39M131.921 2635.77L298.185 2522.82M63.5586 2617.42L2.79219 2597.66M63.5586 2617.42L84.2352 2648.83M84.2352 2648.83L31.0655 2795.33M84.2352 2648.83L2.79219 2697.88M47.945 2442.39L2.79219 2508.03M47.945 2442.39L298.185 2522.82M47.945 2442.39L196.907 2328.4M47.945 2442.39L2.79219 2393.33M298.185 2522.82L196.907 2328.4M298.185 2522.82L382.582 2314.29H404.948L452.633 2363.16M196.907 2328.4L156.396 2314.29M196.907 2328.4L256.83 2314.29" stroke="url(#paint2_linear_610_72)" stroke-opacity="0.34"/>
<path d="M453 2051.79L350.373 2141.5M350.373 2141.5L322.077 1934.89M350.373 2141.5L453 2217.08M350.373 2141.5L298.426 2106.21M322.077 1934.89L171.727 1847.3M322.077 1934.89L357.131 1956.08M322.077 1934.89L132.027 1993.16M453 2006.59L357.131 1956.08M171.727 1847.3L156.945 1758.65M171.727 1847.3L84.3029 1980.1M171.727 1847.3L31.0899 1833.48M171.727 1847.3L322.077 1779.14M2.79365 1830.7L31.0899 1833.48M1 1808.1L156.945 1758.65M156.945 1758.65L322.077 1779.14M156.945 1758.65L2.79365 1685.54M156.945 1758.65L40.8036 1628.68M322.077 1779.14L208.047 1718.39M322.077 1779.14L405.276 1821.87M322.077 1779.14L357.131 1956.08M40.8036 1628.68L2.79365 1642.1M40.8036 1628.68L148.921 1592.66M40.8036 1628.68L135.406 1679.89M2.79365 1557.69L148.921 1592.66M148.921 1592.66L130.338 1542.86M148.921 1592.66L232.965 1542.86M148.921 1592.66L184.397 1595.37M342.982 1542.86L319.965 1605.72M319.965 1605.72L184.397 1595.37M319.965 1605.72L208.047 1718.39M319.965 1605.72L336.436 1718.39M319.965 1605.72L342.982 1585.59M184.397 1595.37L135.406 1679.89M135.406 1679.89L208.047 1718.39M208.047 1718.39H336.436M336.436 1718.39L409.5 1673.46M336.436 1718.39L405.276 1821.87M453 1674.24L436.951 1656.58L409.5 1673.46M409.5 1673.46L342.982 1585.59M342.982 1585.59L393.029 1542.86M453 1752.29L405.276 1821.87M405.276 1821.87L453 1847.3M357.131 1956.08L453 1888.62M132.027 1993.16L63.6095 2011.53M132.027 1993.16L47.9832 2186.71M132.027 1993.16L298.426 2106.21M63.6095 2011.53L2.79365 2031.31M63.6095 2011.53L84.3029 1980.1M84.3029 1980.1L31.0899 1833.48M84.3029 1980.1L2.79365 1931M47.9832 2186.71L2.79365 2121.02M47.9832 2186.71L298.426 2106.21M47.9832 2186.71L197.067 2300.79M47.9832 2186.71L2.79365 2235.8M298.426 2106.21L197.067 2300.79M298.426 2106.21L382.893 2314.91H405.276L453 2266M197.067 2300.79L156.523 2314.91M197.067 2300.79L257.038 2314.91" stroke="url(#paint3_linear_610_72)" stroke-opacity="0.34"/>
<defs>
<linearGradient id="paint0_linear_610_72" x1="227" y1="0" x2="227" y2="771.429" gradientUnits="userSpaceOnUse">
<stop stop-color="#FFF500"/>
<stop offset="0.534375" stop-color="#FFA800"/>
<stop offset="0.987181" stop-color="#FF3D00"/>
</linearGradient>
<linearGradient id="paint1_linear_610_72" x1="226.816" y1="1542.86" x2="226.816" y2="772.056" gradientUnits="userSpaceOnUse">
<stop stop-color="#FFF500"/>
<stop offset="0.534375" stop-color="#FFA800"/>
<stop offset="0.987181" stop-color="#FF3D00"/>
</linearGradient>
<linearGradient id="paint2_linear_610_72" x1="226.816" y1="3085.71" x2="226.816" y2="2314.91" gradientUnits="userSpaceOnUse">
<stop stop-color="#FFF500"/>
<stop offset="0.534375" stop-color="#FFA800"/>
<stop offset="0.987181" stop-color="#FF3D00"/>
</linearGradient>
<linearGradient id="paint3_linear_610_72" x1="227" y1="1542.86" x2="227" y2="2314.29" gradientUnits="userSpaceOnUse">
<stop stop-color="#FFF500"/>
<stop offset="0.534375" stop-color="#FFA800"/>
<stop offset="0.987181" stop-color="#FF3D00"/>
</linearGradient>
</defs>
</svg>
