<svg width="1078" height="913" viewBox="0 0 1078 913" fill="none" xmlns="http://www.w3.org/2000/svg">
<g filter="url(#filter0_d_373_187)">
<path d="M292.891 683.105L51 346.505L182.69 250.755L352.273 229.47L433.987 69.1955H609.325L693.716 31L811.326 69.1955L874.935 109.484H967.864L992.711 197.909L911.709 315.093L1027 573.585L860.141 659.394L780.444 842L495.257 772.843L237.416 807.467L292.891 683.105Z" fill="url(#paint0_linear_373_187)" fill-opacity="0.71" shape-rendering="crispEdges"/>
<path d="M292.891 683.105L51 346.505L182.69 250.755L352.273 229.47L433.987 69.1955H609.325L693.716 31L811.326 69.1955L874.935 109.484H967.864L992.711 197.909L911.709 315.093L1027 573.585L860.141 659.394L780.444 842L495.257 772.843L237.416 807.467L292.891 683.105Z" stroke="url(#paint1_linear_373_187)" shape-rendering="crispEdges"/>
</g>
<defs>
<filter id="filter0_d_373_187" x="0.303711" y="0.464844" width="1077.35" height="912.12" filterUnits="userSpaceOnUse" color-interpolation-filters="sRGB">
<feFlood flood-opacity="0" result="BackgroundImageFix"/>
<feColorMatrix in="SourceAlpha" type="matrix" values="0 0 0 0 0 0 0 0 0 0 0 0 0 0 0 0 0 0 127 0" result="hardAlpha"/>
<feOffset dy="20"/>
<feGaussianBlur stdDeviation="25"/>
<feComposite in2="hardAlpha" operator="out"/>
<feColorMatrix type="matrix" values="0 0 0 0 0 0 0 0 0 0 0 0 0 0 0 0 0 0 0.5 0"/>
<feBlend mode="normal" in2="BackgroundImageFix" result="effect1_dropShadow_373_187"/>
<feBlend mode="normal" in="SourceGraphic" in2="effect1_dropShadow_373_187" result="shape"/>
</filter>
<linearGradient id="paint0_linear_373_187" x1="517.135" y1="158.667" x2="517.135" y2="842" gradientUnits="userSpaceOnUse">
<stop stop-color="#FF150B"/>
<stop offset="0.977083" stop-color="#FF6B00"/>
</linearGradient>
<linearGradient id="paint1_linear_373_187" x1="539" y1="31" x2="539" y2="842" gradientUnits="userSpaceOnUse">
<stop stop-color="white" stop-opacity="0.965986"/>
<stop offset="0.0812499" stop-color="white"/>
<stop offset="1" stop-color="white" stop-opacity="0"/>
</linearGradient>
</defs>
</svg>
