<svg width="307" height="353" viewBox="0 0 307 353" fill="none" xmlns="http://www.w3.org/2000/svg">
<path d="M104.991 62.2646L106.142 62.8944L100.873 72.5234L94.2201 68.8833L96.4472 64.8127L83.9266 57.9625L81.6534 62.1173L75.0001 58.4771L80.3144 48.7639L81.7181 49.5318C82.6048 49.8224 83.4016 49.8328 84.1085 49.563C84.8154 49.2932 85.5739 48.6625 86.3839 47.6709C87.054 46.846 88.28 44.8053 90.0616 41.5489L93.1668 35.8066L113.392 46.9087L104.991 62.2646ZM91.7268 53.4393C91.3279 53.9019 91.0048 54.248 90.7576 54.4775L97.8881 58.3787L103.295 48.497L97.0062 45.0566L96.0873 46.6694C95.3091 48.0918 94.5857 49.3253 93.9169 50.3698C93.2771 51.4059 92.5471 52.429 91.7268 53.4393Z" fill="white"/>
<path d="M127.471 86.0181L121.082 81.0454L131.5 67.6617L125.843 63.2589L124.678 64.7039C123.682 65.9834 122.77 67.0851 121.943 68.0091C121.146 68.9294 120.261 69.8225 119.29 70.6884C117.525 72.2614 115.52 73.0662 113.274 73.1028C111.046 73.1525 108.703 72.2208 106.245 70.3077L110.078 65.3835C110.839 65.7599 111.582 65.8649 112.306 65.6987C113.06 65.5287 113.938 65.0088 114.939 64.1391C115.733 63.4322 117.269 61.614 119.549 58.6848L123.534 53.5136L141.721 67.7102L127.471 86.0181Z" fill="white"/>
<path d="M164.637 90.9819C161.905 93.3394 159.03 95.9338 156.011 98.765C152.992 101.596 150.219 104.3 147.692 106.875L142.525 101.367L147.94 96.2879L144.722 92.8569C141.002 93.5678 138.183 94.1793 136.265 94.6914L130.31 88.3428L139.108 87.1984C139.321 87.1448 139.64 87.0947 140.064 87.0479C138.981 85.0511 138.592 83.2804 138.898 81.7357C139.219 80.2065 140.056 78.807 141.41 77.5373C143.137 75.9174 145.09 75.2555 147.269 75.5517C149.448 75.8479 152.011 77.5675 154.959 80.7107L159.447 85.4954L159.471 85.4736L164.637 90.9819ZM152.305 92.1942L154.966 89.6986L152.01 86.5477C150.755 85.2095 149.768 84.2346 149.048 83.6229C148.328 83.0112 147.758 82.6684 147.338 82.5946C146.917 82.5208 146.536 82.6444 146.194 82.9655C145.836 83.3011 145.688 83.6888 145.749 84.1285C145.81 84.5681 146.108 85.1663 146.642 85.9229C147.207 86.6805 148.109 87.7207 149.35 89.0433L152.305 92.1942Z" fill="white"/>
<path d="M175.723 121.508C177.259 123.995 178.2 126.109 178.548 127.849C178.914 129.579 178.816 131.006 178.256 132.129C177.696 133.252 176.753 134.222 175.428 135.04C173.504 136.228 171.578 136.439 169.651 135.673C167.724 134.907 165.646 132.718 163.416 129.105L160.424 124.258L160.396 124.275L156.261 117.577C159.873 115.548 163.212 113.587 166.28 111.693C169.348 109.799 172.598 107.693 176.03 105.373L188.418 125.442L182.945 128.82L174.692 115.45L172.731 116.661L175.723 121.508ZM167.454 125.108C168.227 126.361 168.855 127.277 169.338 127.856C169.832 128.453 170.258 128.818 170.614 128.949C170.982 129.098 171.366 129.049 171.765 128.802C172.164 128.556 172.389 128.229 172.439 127.822C172.489 127.416 172.357 126.857 172.044 126.148C171.732 125.438 171.2 124.475 170.449 123.259L168.13 119.501L165.134 121.35L167.454 125.108Z" fill="white"/>
<path d="M195.699 139.902L178.949 146.382L198.511 146.565L203.091 157.414C199.711 158.678 196.125 160.111 192.332 161.712C188.519 163.322 184.981 164.896 181.717 166.436L178.519 158.859L194.84 152.595L175.731 152.256L171.276 141.701C175.156 140.249 178.756 138.822 182.078 137.42C185.379 136.026 188.904 134.446 192.65 132.679L195.699 139.902Z" fill="white"/>
<path d="M199.149 185.605C199.474 186.317 199.724 187.035 199.899 187.761C200.204 189.026 200.234 190.105 199.989 190.999C199.769 191.907 199.37 192.618 198.791 193.131C198.233 193.638 197.602 193.977 196.897 194.147C195.258 194.542 193.728 194.341 192.307 193.542C190.906 192.739 189.683 191.487 188.636 189.786C187.61 188.08 186.825 186.097 186.28 183.837C184.699 177.283 185.958 172.492 190.055 169.463L190.911 171.1C191.532 172.311 192.085 173.33 192.569 174.156C193.08 174.999 193.594 175.72 194.111 176.319C193.175 176.984 192.57 177.755 192.299 178.633C192.054 179.526 192.096 180.657 192.426 182.025C192.776 183.477 193.227 184.619 193.779 185.452C194.331 186.284 194.939 186.62 195.602 186.46C195.955 186.375 196.182 186.134 196.284 185.736C196.385 185.339 196.375 184.749 196.252 183.967C196.15 183.179 195.931 182.091 195.596 180.701L195.026 178.337L200.47 177.024L200.815 178.455C201.195 180.031 201.567 181.302 201.932 182.268C202.317 183.228 202.738 183.653 203.194 183.543C203.713 183.418 204.062 183.049 204.243 182.434C204.45 181.836 204.419 180.977 204.149 179.857C203.798 178.405 203.213 177.295 202.391 176.528C201.575 175.781 200.536 175.297 199.275 175.074C199.632 172.64 199.694 170.123 199.463 167.524C201.942 167.979 204.042 169.086 205.76 170.844C207.484 172.623 208.739 175.14 209.524 178.396C210.034 180.511 210.212 182.476 210.057 184.291C209.928 186.122 209.491 187.632 208.746 188.821C208.006 190.031 207.035 190.78 205.832 191.071C205.127 191.241 204.455 191.227 203.815 191.03C203.195 190.829 202.499 190.305 201.724 189.461C200.971 188.611 200.112 187.326 199.149 185.605Z" fill="white"/>
<path d="M215.795 225.239C212.188 225.367 208.322 225.59 204.196 225.907C200.069 226.225 196.214 226.597 192.631 227.022L192.054 219.524L200.732 218.856L199.829 207.115L191.15 207.783L190.573 200.285C194.713 200.138 198.58 199.926 202.175 199.649C205.769 199.372 209.623 198.99 213.737 198.502L214.314 206L205.635 206.668L206.539 218.41L215.217 217.742L215.795 225.239Z" fill="white"/>
<path d="M198.114 238.724C197.533 246.81 197.198 252.679 197.109 256.331C196.249 256.115 195.352 255.949 194.42 255.834C193.507 255.743 192.348 255.643 190.944 255.534L192.856 230.744C196.969 231.232 200.823 231.615 204.418 231.892C208.012 232.169 211.88 232.382 216.019 232.53L214.108 257.32L208.333 256.875L209.664 239.614L206.601 239.378C206.501 240.397 206.374 241.907 206.22 243.906C205.959 247.288 205.753 250.792 205.602 254.418L200.114 253.995C200.52 250.389 200.854 246.895 201.115 243.513C201.269 241.513 201.375 240.002 201.432 238.98L198.114 238.724Z" fill="white"/>
<path d="M187.294 272.703C188.408 268.013 190.226 264.794 192.746 263.046C195.266 261.299 198.374 260.864 202.068 261.742C205.783 262.625 208.456 264.433 210.087 267.167C211.718 269.9 211.976 273.613 210.862 278.303C209.303 284.862 206.008 288.717 200.977 289.867C200.777 287.847 200.332 285.428 199.642 282.61C200.947 282.285 202.036 281.535 202.907 280.36C203.773 279.206 204.366 277.955 204.687 276.606C205.16 274.613 204.984 273.004 204.157 271.777C203.351 270.554 202.18 269.761 200.644 269.396C198.984 269.001 197.501 269.197 196.196 269.984C194.906 270.796 194.005 272.281 193.492 274.439C193.083 276.162 193.038 277.599 193.357 278.749C193.696 279.904 194.432 280.868 195.564 281.641C194.246 283.126 192.701 285.061 190.928 287.447C188.663 285.812 187.321 283.663 186.902 280.997C186.483 278.332 186.613 275.568 187.294 272.703Z" fill="white"/>
<path d="M175.396 309.493C176.674 309.595 178.29 309.69 180.246 309.777L184.232 300.38L180.644 297.12L183.78 289.725L201.669 307.045L197.071 317.886L172.16 317.123L175.396 309.493ZM185.554 310.047C187.933 310.175 190.32 310.284 192.715 310.373L194.93 310.478C193.434 309.033 191.163 306.876 188.115 304.008L185.554 310.047Z" fill="white"/>
</svg>
