<svg width="1017" height="921" viewBox="0 0 1017 921" fill="none" xmlns="http://www.w3.org/2000/svg">
<g filter="url(#filter0_d_373_173)">
<path d="M118.511 664.448L51.3649 348.641L173.667 397.904L157.749 124.429L363.733 160.237L436.287 33.0966L561.191 85.4317L656.987 30.6772L724.857 137.599L965.967 172.567L862.215 331.349L923.632 466.498L888.874 610.432L678.973 672.126L582.694 849.528L347.446 662.766L118.511 664.448Z" fill="url(#paint0_linear_373_173)" shape-rendering="crispEdges"/>
<path d="M118.511 664.448L51.3649 348.641L173.667 397.904L157.749 124.429L363.733 160.237L436.287 33.0966L561.191 85.4317L656.987 30.6772L724.857 137.599L965.967 172.567L862.215 331.349L923.632 466.498L888.874 610.432L678.973 672.126L582.694 849.528L347.446 662.766L118.511 664.448Z" stroke="url(#paint1_linear_373_173)" shape-rendering="crispEdges"/>
</g>
<defs>
<filter id="filter0_d_373_173" x="0.680664" y="0.00634766" width="1016.13" height="920.284" filterUnits="userSpaceOnUse" color-interpolation-filters="sRGB">
<feFlood flood-opacity="0" result="BackgroundImageFix"/>
<feColorMatrix in="SourceAlpha" type="matrix" values="0 0 0 0 0 0 0 0 0 0 0 0 0 0 0 0 0 0 127 0" result="hardAlpha"/>
<feOffset dy="20"/>
<feGaussianBlur stdDeviation="25"/>
<feComposite in2="hardAlpha" operator="out"/>
<feColorMatrix type="matrix" values="0 0 0 0 0 0 0 0 0 0 0 0 0 0 0 0 0 0 0.5 0"/>
<feBlend mode="normal" in2="BackgroundImageFix" result="effect1_dropShadow_373_173"/>
<feBlend mode="normal" in="SourceGraphic" in2="effect1_dropShadow_373_173" result="shape"/>
</filter>
<linearGradient id="paint0_linear_373_173" x1="564.093" y1="12.6599" x2="408.337" y2="815.711" gradientUnits="userSpaceOnUse">
<stop stop-color="#FF9D0B"/>
<stop offset="1" stop-color="#FF8A00"/>
</linearGradient>
<linearGradient id="paint1_linear_373_173" x1="650.001" y1="-4.50001" x2="510.501" y2="815.5" gradientUnits="userSpaceOnUse">
<stop offset="0.289583" stop-color="white"/>
<stop offset="1" stop-color="white" stop-opacity="0"/>
</linearGradient>
</defs>
</svg>
