<svg width="773" height="653" viewBox="0 0 773 653" fill="none" xmlns="http://www.w3.org/2000/svg">
<g filter="url(#filter0_d_350_27)">
<path d="M195.83 454.283L51 241.849L148.66 165.174L246.321 88.4988L536.645 31.4072L561.89 37.0921L678.152 63.2723L722 157.54V312.882L610.388 582.407L367.898 526.643H172.577L195.83 454.283Z" fill="url(#paint0_linear_350_27)" fill-opacity="0.6" shape-rendering="crispEdges"/>
<path d="M195.83 454.283L51 241.849L148.66 165.174L246.321 88.4988L536.645 31.4072L561.89 37.0921L678.152 63.2723L722 157.54V312.882L610.388 582.407L367.898 526.643H172.577L195.83 454.283Z" stroke="url(#paint1_linear_350_27)" shape-rendering="crispEdges"/>
</g>
<defs>
<filter id="filter0_d_350_27" x="0.323486" y="0.896484" width="772.177" height="652.093" filterUnits="userSpaceOnUse" color-interpolation-filters="sRGB">
<feFlood flood-opacity="0" result="BackgroundImageFix"/>
<feColorMatrix in="SourceAlpha" type="matrix" values="0 0 0 0 0 0 0 0 0 0 0 0 0 0 0 0 0 0 127 0" result="hardAlpha"/>
<feOffset dy="20"/>
<feGaussianBlur stdDeviation="25"/>
<feComposite in2="hardAlpha" operator="out"/>
<feColorMatrix type="matrix" values="0 0 0 0 0 0 0 0 0 0 0 0 0 0 0 0 0 0 0.5 0"/>
<feBlend mode="normal" in2="BackgroundImageFix" result="effect1_dropShadow_350_27"/>
<feBlend mode="normal" in="SourceGraphic" in2="effect1_dropShadow_350_27" result="shape"/>
</filter>
<linearGradient id="paint0_linear_350_27" x1="386.5" y1="31.4072" x2="386.5" y2="582.407" gradientUnits="userSpaceOnUse">
<stop stop-color="#FFDD2A"/>
<stop offset="0.51875" stop-color="#FF8A00"/>
<stop offset="1" stop-color="#FF8700"/>
</linearGradient>
<linearGradient id="paint1_linear_350_27" x1="386.5" y1="31.4072" x2="386.5" y2="582.407" gradientUnits="userSpaceOnUse">
<stop stop-color="white"/>
<stop offset="1" stop-color="white" stop-opacity="0"/>
</linearGradient>
</defs>
</svg>
