<svg width="1084" height="877" viewBox="0 0 1084 877" fill="none" xmlns="http://www.w3.org/2000/svg">
<g filter="url(#filter0_d_373_167)">
<path d="M294.378 654.158L51 332.5L183.5 241L354.125 220.66L697.667 31L816 67.5L880 106H973.5L998.5 190.5L917 302.482L1033 549.5L865.115 631.5L784.929 806L497.988 739.913L238.562 773L294.378 654.158Z" fill="url(#paint0_linear_373_167)" fill-opacity="0.71" shape-rendering="crispEdges"/>
<path d="M294.378 654.158L51 332.5L183.5 241L354.125 220.66L697.667 31L816 67.5L880 106H973.5L998.5 190.5L917 302.482L1033 549.5L865.115 631.5L784.929 806L497.988 739.913L238.562 773L294.378 654.158Z" stroke="url(#paint1_linear_373_167)" shape-rendering="crispEdges"/>
</g>
<defs>
<filter id="filter0_d_373_167" x="0.286194" y="0.459473" width="1083.38" height="876.119" filterUnits="userSpaceOnUse" color-interpolation-filters="sRGB">
<feFlood flood-opacity="0" result="BackgroundImageFix"/>
<feColorMatrix in="SourceAlpha" type="matrix" values="0 0 0 0 0 0 0 0 0 0 0 0 0 0 0 0 0 0 127 0" result="hardAlpha"/>
<feOffset dy="20"/>
<feGaussianBlur stdDeviation="25"/>
<feComposite in2="hardAlpha" operator="out"/>
<feColorMatrix type="matrix" values="0 0 0 0 0 0 0 0 0 0 0 0 0 0 0 0 0 0 0.5 0"/>
<feBlend mode="normal" in2="BackgroundImageFix" result="effect1_dropShadow_373_167"/>
<feBlend mode="normal" in="SourceGraphic" in2="effect1_dropShadow_373_167" result="shape"/>
</filter>
<linearGradient id="paint0_linear_373_167" x1="520" y1="153" x2="520" y2="806" gradientUnits="userSpaceOnUse">
<stop stop-color="#7500C8"/>
<stop offset="0.977083" stop-color="#AE3CFF"/>
</linearGradient>
<linearGradient id="paint1_linear_373_167" x1="542" y1="31" x2="542" y2="806" gradientUnits="userSpaceOnUse">
<stop offset="0.0812499" stop-color="white"/>
<stop offset="1" stop-color="white" stop-opacity="0"/>
</linearGradient>
</defs>
</svg>
