<svg width="260" height="226" viewBox="0 0 260 226" fill="none" xmlns="http://www.w3.org/2000/svg">
<path d="M30.4682 109.344C34.3611 111.038 36.7683 112.911 37.6899 114.964C38.62 116.997 38.5404 119.265 37.451 121.769C36.702 123.491 35.7605 124.826 34.6264 125.775C33.5009 126.704 32.0262 127.18 30.2025 127.2C28.3873 127.202 26.1396 126.619 23.4596 125.453L17.3562 122.798L15.1094 127.963L7.89095 124.822C9.69853 121.095 11.3215 117.579 12.7598 114.273C14.1981 110.967 15.6645 107.382 17.1591 103.519L24.3776 106.659L24.3648 106.689L30.4682 109.344ZM23.8695 118.897C25.4931 119.603 26.7315 120.072 27.5846 120.304C28.4658 120.524 29.1352 120.536 29.5929 120.34C30.0701 120.152 30.4492 119.735 30.73 119.09C31.0109 118.444 31.0629 117.897 30.8861 117.447C30.7373 116.987 30.2777 116.52 29.5071 116.045C28.7562 115.579 27.5493 114.984 25.8865 114.26L21.8371 112.499L19.8201 117.135L23.8695 118.897Z" fill="white"/>
<path d="M54.0182 142.422C49.2789 141.237 46.0478 139.341 44.325 136.733C42.6073 134.104 42.2143 130.927 43.1459 127.202C44.0672 123.518 45.8938 120.918 48.6258 119.402C51.3785 117.892 55.1349 117.732 59.895 118.922C64.6758 120.117 67.9147 122.027 69.6116 124.65C71.3292 127.279 71.7274 130.435 70.8062 134.119C69.8694 137.865 68.0376 140.486 65.3107 141.981C62.5839 143.476 58.8197 143.623 54.0182 142.422ZM55.6019 136.089C57.8992 136.664 59.6636 136.643 60.8951 136.028C62.1317 135.391 62.9829 134.142 63.4487 132.279C63.9042 130.458 63.7361 128.975 62.9445 127.832C62.153 126.688 60.6086 125.829 58.3113 125.255C56.0348 124.686 54.2782 124.719 53.0415 125.355C51.8048 125.992 50.9588 127.221 50.5034 129.042C50.0427 130.884 50.2082 132.376 50.9998 133.52C51.7913 134.664 53.3254 135.52 55.6019 136.089Z" fill="white"/>
<path d="M96.3332 137.063C97.1106 136.974 97.8714 136.959 98.6158 137.018C99.9131 137.12 100.948 137.425 101.722 137.935C102.518 138.426 103.07 139.026 103.378 139.735C103.688 140.422 103.814 141.128 103.757 141.851C103.626 143.531 102.96 144.923 101.761 146.027C100.563 147.11 98.9934 147.886 97.0522 148.354C95.1126 148.801 92.9837 148.934 90.6655 148.752C83.9448 148.224 79.7791 145.544 78.1683 140.709L79.9899 140.403C81.3335 140.187 82.4735 139.977 83.4097 139.773C84.3688 139.548 85.2135 139.283 85.9437 138.976C86.2856 140.073 86.8317 140.886 87.5819 141.416C88.355 141.926 89.4435 142.236 90.8471 142.346C92.3359 142.463 93.5615 142.388 94.524 142.121C95.4865 141.854 95.9945 141.381 96.0479 140.7C96.0762 140.339 95.9171 140.048 95.5706 139.828C95.2241 139.608 94.6598 139.436 93.8779 139.31C93.0977 139.163 91.9951 139.034 90.5701 138.922L88.1456 138.732L88.5837 133.149L90.0512 133.264C91.6675 133.391 92.9911 133.431 94.022 133.383C95.0546 133.314 95.5892 133.046 95.6259 132.578C95.6676 132.047 95.4245 131.599 94.8966 131.237C94.3916 130.855 93.5649 130.619 92.4164 130.529C90.9276 130.412 89.6912 130.625 88.707 131.169C87.7441 131.714 86.9615 132.551 86.3593 133.681C84.1554 132.588 81.7817 131.749 79.2383 131.164C80.4394 128.947 82.142 127.294 84.3459 126.204C86.5712 125.116 89.3534 124.703 92.6924 124.965C94.8618 125.136 96.7853 125.575 98.4629 126.285C100.163 126.975 101.464 127.858 102.364 128.934C103.285 130.012 103.697 131.168 103.6 132.401C103.543 133.125 103.322 133.76 102.937 134.307C102.553 134.834 101.84 135.334 100.797 135.809C99.7557 136.262 98.2678 136.68 96.3332 137.063Z" fill="white"/>
<path d="M135.513 124.555C135.645 128.161 135.872 132.027 136.194 136.153C136.516 140.279 136.892 144.133 137.322 147.716L129.825 148.302L129.147 139.624L117.407 140.541L118.085 149.219L110.587 149.804C110.435 145.665 110.219 141.798 109.938 138.204C109.657 134.609 109.271 130.756 108.778 126.643L116.275 126.057L116.953 134.735L128.693 133.818L128.016 125.14L135.513 124.555Z" fill="white"/>
<path d="M148.126 122.324L151.85 139.894L155.153 120.611L166.594 117.822C167.302 121.36 168.145 125.129 169.12 129.129C170.1 133.15 171.09 136.894 172.089 140.362L164.099 142.31L160.52 125.198L157.135 144.008L146.005 146.721C145.19 142.66 144.356 138.878 143.502 135.375C142.653 131.893 141.656 128.162 140.51 124.181L148.126 122.324Z" fill="white"/>
<path d="M202.768 121.482L207.73 133.247L201.332 135.945L198.907 130.196L180.273 138.055C178.821 134.175 177.395 130.574 175.994 127.253C174.593 123.931 173.01 120.396 171.244 116.649L178.173 113.727L184.69 129.177L194.655 124.974L188.139 109.523L195.068 106.601C196.348 110.02 197.792 113.637 199.401 117.45C200.271 119.514 200.932 121.053 201.383 122.067L202.768 121.482Z" fill="white"/>
<path d="M230.23 113.058C229.238 112.247 227.963 111.248 226.406 110.061L217.776 115.512L218.866 120.235L212.075 124.524L207.246 100.097L217.202 93.8086L237.237 108.633L230.23 113.058ZM222.199 106.814C220.317 105.353 218.418 103.903 216.5 102.465L214.74 101.116C215.145 103.156 215.783 106.223 216.652 110.317L222.199 106.814Z" fill="white"/>
</svg>
