<svg width="401" height="2058" viewBox="0 0 401 2058" fill="none" xmlns="http://www.w3.org/2000/svg">
<path d="M399.675 233.641L308.929 153.983M308.929 153.983L283.908 337.446M308.929 153.983L399.675 86.8704M308.929 153.983L262.995 185.32M283.908 337.446L150.963 415.222M283.908 337.446L314.904 318.629M283.908 337.446L115.859 285.7M399.675 273.783L314.904 318.629M150.963 415.222L137.892 493.938M150.963 415.222L73.6595 297.304M150.963 415.222L26.6066 427.493M150.963 415.222L283.908 475.749M1.58601 429.961L26.6066 427.493M0 450.033L137.892 493.938M137.892 493.938L283.908 475.749M137.892 493.938L1.58601 558.856M137.892 493.938L35.1958 609.347M283.908 475.749L183.079 529.69M283.908 475.749L357.476 437.802M283.908 475.749L314.904 318.629M35.1958 609.347L1.58601 597.43M35.1958 609.347L130.797 641.336M35.1958 609.347L118.847 563.874M1.58601 672.383L130.797 641.336M130.797 641.336L114.365 685.555M130.797 641.336L205.112 685.555M130.797 641.336L162.166 638.929M302.393 685.555L282.041 629.732M282.041 629.732L162.166 638.929M282.041 629.732L183.079 529.69M282.041 629.732L296.605 529.69M282.041 629.732L302.393 647.608M162.166 638.929L118.847 563.874M118.847 563.874L183.079 529.69M183.079 529.69H296.605M296.605 529.69L361.21 569.583M296.605 529.69L357.476 437.802M399.675 568.891L385.484 584.572L361.21 569.583M361.21 569.583L302.393 647.608M302.393 647.608L346.646 685.555M399.675 499.583L357.476 437.802M357.476 437.802L399.675 415.222M314.904 318.629L399.675 378.529M115.859 285.7L55.3616 269.392M115.859 285.7L41.5443 113.841M115.859 285.7L262.995 185.32M55.3616 269.392L1.58601 251.83M55.3616 269.392L73.6595 297.304M73.6595 297.304L26.6066 427.493M73.6595 297.304L1.58601 340.896M41.5443 113.841L1.58601 172.173M41.5443 113.841L262.995 185.32M41.5443 113.841L173.369 12.5444M41.5443 113.841L1.58601 70.249M262.995 185.32L173.369 12.5444M262.995 185.32L337.684 -1.46528e-05H357.476L399.675 43.4352M173.369 12.5444L137.519 -1.46528e-05M173.369 12.5444L226.398 -1.46528e-05" stroke="url(#paint0_linear_406_2019)" stroke-opacity="0.23"/>
<path d="M399.675 1604.75L308.929 1525.09M308.929 1525.09L283.908 1708.56M308.929 1525.09L399.675 1457.98M308.929 1525.09L262.995 1556.43M283.908 1708.56L150.963 1786.33M283.908 1708.56L314.904 1689.74M283.908 1708.56L115.859 1656.81M399.675 1644.89L314.904 1689.74M150.963 1786.33L137.892 1865.05M150.963 1786.33L73.6595 1668.41M150.963 1786.33L26.6066 1798.6M150.963 1786.33L283.908 1846.86M1.58601 1801.07L26.6066 1798.6M0 1821.14L137.892 1865.05M137.892 1865.05L283.908 1846.86M137.892 1865.05L1.58601 1929.97M137.892 1865.05L35.1958 1980.46M283.908 1846.86L183.079 1900.8M283.908 1846.86L357.476 1808.91M283.908 1846.86L314.904 1689.74M35.1958 1980.46L1.58601 1968.54M35.1958 1980.46L130.797 2012.45M35.1958 1980.46L118.847 1934.98M1.58601 2043.49L130.797 2012.45M130.797 2012.45L114.365 2056.66M130.797 2012.45L205.112 2056.66M130.797 2012.45L162.166 2010.04M302.393 2056.66L282.041 2000.84M282.041 2000.84L162.166 2010.04M282.041 2000.84L183.079 1900.8M282.041 2000.84L296.605 1900.8M282.041 2000.84L302.393 2018.72M162.166 2010.04L118.847 1934.98M118.847 1934.98L183.079 1900.8M183.079 1900.8H296.605M296.605 1900.8L361.21 1940.69M296.605 1900.8L357.476 1808.91M399.675 1940L385.484 1955.68L361.21 1940.69M361.21 1940.69L302.393 2018.72M302.393 2018.72L346.646 2056.66M399.675 1870.69L357.476 1808.91M357.476 1808.91L399.675 1786.33M314.904 1689.74L399.675 1749.64M115.859 1656.81L55.3616 1640.5M115.859 1656.81L41.5443 1484.95M115.859 1656.81L262.995 1556.43M55.3616 1640.5L1.58601 1622.94M55.3616 1640.5L73.6595 1668.41M73.6595 1668.41L26.6066 1798.6M73.6595 1668.41L1.58601 1712.01M41.5443 1484.95L1.58601 1543.28M41.5443 1484.95L262.995 1556.43M41.5443 1484.95L173.369 1383.65M41.5443 1484.95L1.58601 1441.36M262.995 1556.43L173.369 1383.65M262.995 1556.43L337.684 1371.11H357.476L399.675 1414.55M173.369 1383.65L137.519 1371.11M173.369 1383.65L226.398 1371.11" stroke="url(#paint1_linear_406_2019)" stroke-opacity="0.23"/>
<path d="M400 1137.84L309.18 1217.56M309.18 1217.56L284.139 1033.95M309.18 1217.56L400 1284.73M309.18 1217.56L263.209 1186.2M284.139 1033.95L151.086 956.108M284.139 1033.95L315.16 1052.78M284.139 1033.95L115.953 1085.73M400 1097.66L315.16 1052.78M151.086 956.108L138.004 877.327M151.086 956.108L73.7194 1074.12M151.086 956.108L26.6283 943.827M151.086 956.108L284.139 895.532M1.5873 941.356L26.6283 943.827M0 921.269L138.004 877.327M138.004 877.327L284.139 895.532M138.004 877.327L1.5873 812.357M138.004 877.327L35.2244 761.825M284.139 895.532L183.228 841.547M284.139 895.532L357.767 933.51M284.139 895.532L315.16 1052.78M35.2244 761.825L1.5873 773.751M35.2244 761.825L130.903 729.81M35.2244 761.825L118.943 807.335M1.5873 698.737L130.903 729.81M130.903 729.81L114.458 685.555M130.903 729.81L205.279 685.555M130.903 729.81L162.298 732.219M302.639 685.555L282.27 741.423M282.27 741.423L162.298 732.219M282.27 741.423L183.228 841.547M282.27 741.423L296.846 841.547M282.27 741.423L302.639 723.533M162.298 732.219L118.943 807.335M118.943 807.335L183.228 841.547M183.228 841.547H296.846M296.846 841.547L361.504 801.621M296.846 841.547L357.767 933.51M400 802.313L385.798 786.62L361.504 801.621M361.504 801.621L302.639 723.533M302.639 723.533L346.928 685.555M400 871.678L357.767 933.51M357.767 933.51L400 956.108M315.16 1052.78L400 992.83M115.953 1085.73L55.4067 1102.06M115.953 1085.73L41.5781 1257.73M115.953 1085.73L263.209 1186.2M55.4067 1102.06L1.5873 1119.63M55.4067 1102.06L73.7194 1074.12M73.7194 1074.12L26.6283 943.827M73.7194 1074.12L1.5873 1030.49M41.5781 1257.73L1.5873 1199.35M41.5781 1257.73L263.209 1186.2M41.5781 1257.73L173.51 1359.11M41.5781 1257.73L1.5873 1301.36M263.209 1186.2L173.51 1359.11M263.209 1186.2L337.958 1371.67H357.767L400 1328.2M173.51 1359.11L137.631 1371.67M173.51 1359.11L226.582 1371.67" stroke="url(#paint2_linear_406_2019)" stroke-opacity="0.23"/>
<defs>
<linearGradient id="paint0_linear_406_2019" x1="199.837" y1="685.555" x2="199.837" y2="0.557235" gradientUnits="userSpaceOnUse">
<stop stop-color="#6201FA"/>
<stop offset="0.534375" stop-color="#FF00A9"/>
<stop offset="0.987181" stop-color="#E826EC"/>
</linearGradient>
<linearGradient id="paint1_linear_406_2019" x1="199.837" y1="2056.66" x2="199.837" y2="1371.67" gradientUnits="userSpaceOnUse">
<stop stop-color="#6201FA"/>
<stop offset="0.534375" stop-color="#FF00A9"/>
<stop offset="0.987181" stop-color="#E826EC"/>
</linearGradient>
<linearGradient id="paint2_linear_406_2019" x1="200" y1="685.555" x2="200" y2="1371.11" gradientUnits="userSpaceOnUse">
<stop stop-color="#6201FA"/>
<stop offset="0.534375" stop-color="#FF00A9"/>
<stop offset="0.987181" stop-color="#E826EC"/>
</linearGradient>
</defs>
</svg>
