<svg width="858" height="775" viewBox="0 0 858 775" fill="none" xmlns="http://www.w3.org/2000/svg">
<g filter="url(#filter0_d_373_165)">
<path d="M266.933 137.198L331.604 31L737.208 73.4382L807 233.172L737.208 397.861L763.439 622.605H583.104L419.164 704L266.933 508.034L51 345.822L170.911 161.107L266.933 137.198Z" fill="url(#paint0_linear_373_165)" fill-opacity="0.6" shape-rendering="crispEdges"/>
<path d="M266.933 137.198L331.604 31L737.208 73.4382L807 233.172L737.208 397.861L763.439 622.605H583.104L419.164 704L266.933 508.034L51 345.822L170.911 161.107L266.933 137.198Z" stroke="url(#paint1_linear_373_165)" shape-rendering="crispEdges"/>
</g>
<defs>
<filter id="filter0_d_373_165" x="0.326416" y="0.469727" width="857.218" height="774.16" filterUnits="userSpaceOnUse" color-interpolation-filters="sRGB">
<feFlood flood-opacity="0" result="BackgroundImageFix"/>
<feColorMatrix in="SourceAlpha" type="matrix" values="0 0 0 0 0 0 0 0 0 0 0 0 0 0 0 0 0 0 127 0" result="hardAlpha"/>
<feOffset dy="20"/>
<feGaussianBlur stdDeviation="25"/>
<feComposite in2="hardAlpha" operator="out"/>
<feColorMatrix type="matrix" values="0 0 0 0 0 0 0 0 0 0 0 0 0 0 0 0 0 0 0.5 0"/>
<feBlend mode="normal" in2="BackgroundImageFix" result="effect1_dropShadow_373_165"/>
<feBlend mode="normal" in="SourceGraphic" in2="effect1_dropShadow_373_165" result="shape"/>
</filter>
<linearGradient id="paint0_linear_373_165" x1="458.041" y1="52.8101" x2="458.041" y2="636.959" gradientUnits="userSpaceOnUse">
<stop stop-color="#DE00CC"/>
<stop offset="1" stop-color="#8A0098"/>
</linearGradient>
<linearGradient id="paint1_linear_373_165" x1="429" y1="44.5" x2="420.5" y2="704" gradientUnits="userSpaceOnUse">
<stop offset="0.409375" stop-color="white"/>
<stop offset="1" stop-color="white" stop-opacity="0"/>
</linearGradient>
</defs>
</svg>
