<svg width="1600" height="2306" viewBox="0 0 1600 2306" fill="none" xmlns="http://www.w3.org/2000/svg">
<path d="M781.144 813.278V714.594H1343.17V580.471H-89.4925V475.789H1511V813.278H892.649V956.087H1474.12V1294.49H1085.47V1465.4H1377.96V1824.9H1021.36V2060V2205.5H892.649H-94V2120.5H892.649V1707.9H1249.24V1586.9H947.321V1191.4H1343.17V1073.9H781.144V813.278Z" fill="#FF65B8"/>
<path d="M-89.4925 253.933V350.935H947.321V100H781.144V253.933H-89.4925Z" fill="#FF65B8"/>
<g filter="url(#filter0_f_701_5)">
<path d="M781.645 813.278V714.594H1343.67V580.471H-88.9916V475.789H1511.5V813.278H893.15V956.087H1474.62V1294.49H1085.97V1465.4H1378.46V1824.9H1021.86V2060V2205.5H893.15H-93.4991V2120.5H893.15V1707.9H1249.75V1586.9H947.822V1191.4H1343.67V1073.9H781.645V813.278Z" fill="#FF1091"/>
<path d="M-88.9916 253.933V350.935H947.822V100H781.645V253.933H-88.9916Z" fill="#FF1091"/>
</g>
<defs>
<filter id="filter0_f_701_5" x="-193.499" y="0" width="1805" height="2305.5" filterUnits="userSpaceOnUse" color-interpolation-filters="sRGB">
<feFlood flood-opacity="0" result="BackgroundImageFix"/>
<feBlend mode="normal" in="SourceGraphic" in2="BackgroundImageFix" result="shape"/>
<feGaussianBlur stdDeviation="50" result="effect1_foregroundBlur_701_5"/>
</filter>
</defs>
</svg>
