<svg width="640" height="772" viewBox="0 0 640 772" fill="none" xmlns="http://www.w3.org/2000/svg">
<path d="M459.474 0H639.86V771.627H459.474V341.817V256.081V0Z" fill="#5F43C1" fill-opacity="0.7"/>
<path d="M459.474 256.081H0V341.817H459.474V256.081Z" fill="#5F43C1" fill-opacity="0.7"/>
<path fill-rule="evenodd" clip-rule="evenodd" d="M492.374 139.886H484.433L468.55 157.935V166.396L492.374 139.886ZM490.105 180.498H482.164L516.199 139.886H524.14L490.105 180.498ZM513.363 180.498H522.439L557.041 139.886H547.965L513.363 180.498ZM554.205 180.498H545.696L579.164 139.886H588.24L554.205 180.498ZM577.462 180.498H585.971L620.573 139.886H612.915L577.462 180.498ZM618.304 180.498H609.795L637.591 148.346V157.935L618.304 180.498Z" fill="white"/>
<path d="M464.009 552.197L437.732 578.677L487.52 627.526L438.394 677.033L465.025 703.162L514.151 653.654L563.938 702.503L590.215 676.023L540.427 627.174L589.552 577.667L562.922 551.539L513.796 601.046L464.009 552.197Z" stroke="white" stroke-width="3"/>
</svg>
