<svg width="127" height="545" viewBox="0 0 127 545" fill="none" xmlns="http://www.w3.org/2000/svg">
<path d="M123.977 512.732C125.647 512.732 127 514.085 127 515.754V541.709C127 543.378 125.647 544.731 123.977 544.731C122.308 544.731 120.955 543.378 120.955 541.709V515.754C120.955 514.085 122.308 512.732 123.977 512.732Z" fill="white" fill-opacity="0.88"/>
<path d="M123.977 448.732C125.647 448.732 127 450.085 127 451.754V477.709C127 479.378 125.647 480.731 123.977 480.731C122.308 480.731 120.955 479.378 120.955 477.709V451.754C120.955 450.085 122.308 448.732 123.977 448.732Z" fill="white" fill-opacity="0.88"/>
<path d="M123.977 384.732C125.647 384.732 127 386.085 127 387.754V413.709C127 415.378 125.647 416.731 123.977 416.731C122.308 416.731 120.955 415.378 120.955 413.709V387.754C120.955 386.085 122.308 384.732 123.977 384.732Z" fill="white" fill-opacity="0.88"/>
<path d="M123.977 320.731C125.647 320.731 127 322.085 127 323.754V349.709C127 351.378 125.647 352.731 123.977 352.731C122.308 352.731 120.955 351.378 120.955 349.709V323.754C120.955 322.085 122.308 320.731 123.977 320.731Z" fill="white" fill-opacity="0.88"/>
<path d="M123.977 256.731C125.647 256.731 127 258.085 127 259.754V285.709C127 287.378 125.647 288.731 123.977 288.731C122.308 288.731 120.955 287.378 120.955 285.709V259.754C120.955 258.085 122.308 256.731 123.977 256.731Z" fill="white" fill-opacity="0.88"/>
<path d="M123.977 192.731C125.647 192.731 127 194.085 127 195.754V221.709C127 223.378 125.647 224.731 123.977 224.731C122.308 224.731 120.955 223.378 120.955 221.709L120.955 195.754C120.955 194.085 122.308 192.731 123.977 192.731Z" fill="white" fill-opacity="0.88"/>
<path d="M123.977 128.731C125.647 128.731 127 130.085 127 131.754V157.709C127 159.378 125.647 160.731 123.977 160.731C122.308 160.731 120.955 159.378 120.955 157.709V131.754C120.955 130.085 122.308 128.731 123.977 128.731Z" fill="white" fill-opacity="0.88"/>
<path d="M123.977 64.7314C125.647 64.7314 127 66.0847 127 67.7542V93.7087C127 95.3781 125.647 96.7315 123.977 96.7315C122.308 96.7315 120.955 95.3781 120.955 93.7087V67.7542C120.955 66.0847 122.308 64.7314 123.977 64.7314Z" fill="white" fill-opacity="0.88"/>
<path d="M123.977 0.731445C125.647 0.731445 127 2.08472 127 3.75415V29.7086C127 31.3781 125.647 32.7313 123.977 32.7313C122.308 32.7313 120.955 31.3781 120.955 29.7086V3.75415C120.955 2.08472 122.308 0.731445 123.977 0.731445Z" fill="white" fill-opacity="0.88"/>
<path d="M108.864 3.75415C108.864 2.08472 110.217 0.731445 111.886 0.731445C113.556 0.731445 114.909 2.08472 114.909 3.75415V29.7086C114.909 31.3781 113.556 32.7313 111.886 32.7313C110.217 32.7313 108.864 31.3781 108.864 29.7086V3.75415Z" fill="white" fill-opacity="0.88"/>
<path d="M96.7727 3.75415C96.7727 2.08472 98.126 0.731445 99.7954 0.731445C101.465 0.731445 102.818 2.08472 102.818 3.75415V29.7086C102.818 31.3781 101.465 32.7313 99.7954 32.7313C98.126 32.7313 96.7727 31.3781 96.7727 29.7086V3.75415Z" fill="white" fill-opacity="0.88"/>
<path d="M84.6818 3.75415C84.6818 2.08472 86.0351 0.731445 87.7045 0.731445C89.3739 0.731445 90.7272 2.08472 90.7272 3.75415V29.7086C90.7272 31.3781 89.3739 32.7313 87.7045 32.7313C86.0351 32.7313 84.6818 31.3781 84.6818 29.7086V3.75415Z" fill="white" fill-opacity="0.88"/>
<path d="M72.5909 3.75415C72.5909 2.08472 73.9442 0.731445 75.6136 0.731445C77.283 0.731445 78.6363 2.08472 78.6363 3.75415V29.7086C78.6363 31.3781 77.283 32.7313 75.6136 32.7313C73.9442 32.7313 72.5909 31.3781 72.5909 29.7086V3.75415Z" fill="white" fill-opacity="0.88"/>
<path d="M60.5 3.75415C60.5 2.08472 61.8533 0.731445 63.5227 0.731445C65.1921 0.731445 66.5455 2.08472 66.5455 3.75415V29.7086C66.5455 31.3781 65.1921 32.7313 63.5227 32.7313C61.8533 32.7313 60.5 31.3781 60.5 29.7086V3.75415Z" fill="white" fill-opacity="0.88"/>
<path d="M48.4091 3.75415C48.4091 2.08472 49.7624 0.731445 51.4318 0.731445C53.1012 0.731445 54.4545 2.08472 54.4545 3.75415L54.4545 29.7086C54.4545 31.3781 53.1012 32.7313 51.4318 32.7313C49.7624 32.7313 48.4091 31.3781 48.4091 29.7086L48.4091 3.75415Z" fill="white" fill-opacity="0.88"/>
<path d="M36.3182 3.75415C36.3182 2.08472 37.6715 0.731445 39.3409 0.731445C41.0103 0.731445 42.3636 2.08472 42.3636 3.75415L42.3636 29.7086C42.3636 31.3781 41.0103 32.7313 39.3409 32.7313C37.6715 32.7313 36.3182 31.3781 36.3182 29.7086L36.3182 3.75415Z" fill="white" fill-opacity="0.88"/>
<path d="M24.2273 3.75415C24.2273 2.08472 25.5806 0.731445 27.25 0.731445C28.9194 0.731445 30.2727 2.08472 30.2727 3.75415L30.2727 29.7086C30.2727 31.3781 28.9194 32.7313 27.25 32.7313C25.5806 32.7313 24.2273 31.3781 24.2273 29.7086V3.75415Z" fill="white" fill-opacity="0.88"/>
<path d="M12.1364 3.75415C12.1364 2.08472 13.4897 0.731445 15.1591 0.731445C16.8285 0.731445 18.1818 2.08472 18.1818 3.75415V29.7086C18.1818 31.3781 16.8285 32.7313 15.1591 32.7313C13.4897 32.7313 12.1364 31.3781 12.1364 29.7086V3.75415Z" fill="white" fill-opacity="0.88"/>
<path d="M0.0454426 3.75415C0.0454426 2.08472 1.39877 0.731445 3.06818 0.731445C4.73759 0.731445 6.09091 2.08472 6.09091 3.75415L6.09091 29.7086C6.09091 31.3781 4.73759 32.7313 3.06818 32.7313C1.39877 32.7313 0.0454426 31.3781 0.0454426 29.7086L0.0454426 3.75415Z" fill="white" fill-opacity="0.88"/>
<path d="M3.06818 64.7314C1.39877 64.7314 0.0454426 66.0847 0.0454426 67.7542L0.0454426 93.7087C0.0454426 95.3781 1.39877 96.7315 3.06818 96.7315C4.73759 96.7315 6.09091 95.3781 6.09091 93.7087V67.7542C6.09091 66.0847 4.73759 64.7314 3.06818 64.7314Z" fill="white" fill-opacity="0.88"/>
<path d="M15.1591 64.7314C13.4897 64.7314 12.1364 66.0847 12.1364 67.7542V93.7087C12.1364 95.3781 13.4897 96.7315 15.1591 96.7315C16.8285 96.7315 18.1818 95.3781 18.1818 93.7087V67.7542C18.1818 66.0847 16.8285 64.7314 15.1591 64.7314Z" fill="white" fill-opacity="0.88"/>
<path d="M27.25 64.7314C25.5806 64.7314 24.2273 66.0847 24.2273 67.7541V93.7087C24.2273 95.3781 25.5806 96.7315 27.25 96.7315C28.9194 96.7315 30.2727 95.3782 30.2727 93.7088V67.7541C30.2727 66.0847 28.9194 64.7314 27.25 64.7314Z" fill="white" fill-opacity="0.88"/>
<path d="M39.3409 64.7314C37.6715 64.7314 36.3182 66.0847 36.3182 67.7541V93.7088C36.3182 95.3782 37.6715 96.7315 39.3409 96.7315C41.0103 96.7315 42.3636 95.3781 42.3636 93.7087V67.7541C42.3636 66.0847 41.0103 64.7314 39.3409 64.7314Z" fill="white" fill-opacity="0.88"/>
<path d="M51.4318 64.7314C49.7624 64.7314 48.4091 66.0847 48.4091 67.7541V93.7087C48.4091 95.3781 49.7624 96.7315 51.4318 96.7315C53.1012 96.7315 54.4545 95.3782 54.4545 93.7088V67.7541C54.4545 66.0847 53.1012 64.7314 51.4318 64.7314Z" fill="white" fill-opacity="0.88"/>
<path d="M63.5227 64.7314C61.8533 64.7314 60.5 66.0847 60.5 67.7541V93.7088C60.5 95.3782 61.8533 96.7315 63.5227 96.7315C65.1921 96.7315 66.5455 95.3781 66.5455 93.7087V67.7541C66.5455 66.0847 65.1921 64.7314 63.5227 64.7314Z" fill="white" fill-opacity="0.88"/>
<path d="M75.6136 64.7314C73.9442 64.7314 72.5909 66.0847 72.5909 67.7541V93.7087C72.5909 95.3781 73.9442 96.7315 75.6136 96.7315C77.283 96.7315 78.6363 95.3782 78.6363 93.7088V67.7541C78.6363 66.0847 77.283 64.7314 75.6136 64.7314Z" fill="white" fill-opacity="0.88"/>
<path d="M87.7045 64.7314C86.0351 64.7314 84.6818 66.0847 84.6818 67.7541V93.7088C84.6818 95.3782 86.0351 96.7315 87.7045 96.7315C89.3739 96.7315 90.7272 95.3781 90.7272 93.7087V67.7541C90.7272 66.0847 89.3739 64.7314 87.7045 64.7314Z" fill="white" fill-opacity="0.88"/>
<path d="M99.7954 64.7314C98.126 64.7314 96.7727 66.0847 96.7727 67.7542V93.7087C96.7727 95.3781 98.126 96.7315 99.7954 96.7315C101.465 96.7315 102.818 95.3781 102.818 93.7087V67.7542C102.818 66.0847 101.465 64.7314 99.7954 64.7314Z" fill="white" fill-opacity="0.88"/>
<path d="M111.886 64.7314C110.217 64.7314 108.864 66.0847 108.864 67.7542V93.7087C108.864 95.3781 110.217 96.7315 111.886 96.7315C113.556 96.7315 114.909 95.3781 114.909 93.7087V67.7542C114.909 66.0847 113.556 64.7314 111.886 64.7314Z" fill="white" fill-opacity="0.88"/>
<path d="M114.909 131.754C114.909 130.085 113.556 128.731 111.886 128.731C110.217 128.731 108.864 130.085 108.864 131.754V157.709C108.864 159.378 110.217 160.731 111.886 160.731C113.556 160.731 114.909 159.378 114.909 157.709V131.754Z" fill="white" fill-opacity="0.88"/>
<path d="M114.909 195.754C114.909 194.085 113.556 192.731 111.886 192.731C110.217 192.731 108.864 194.085 108.864 195.754L108.864 221.709C108.864 223.378 110.217 224.731 111.886 224.731C113.556 224.731 114.909 223.378 114.909 221.709L114.909 195.754Z" fill="white" fill-opacity="0.88"/>
<path d="M114.909 259.754C114.909 258.085 113.556 256.731 111.886 256.731C110.217 256.731 108.864 258.085 108.864 259.754V285.709C108.864 287.378 110.217 288.731 111.886 288.731C113.556 288.731 114.909 287.378 114.909 285.709V259.754Z" fill="white" fill-opacity="0.88"/>
<path d="M114.909 323.754C114.909 322.085 113.556 320.731 111.886 320.731C110.217 320.731 108.864 322.085 108.864 323.754V349.709C108.864 351.378 110.217 352.731 111.886 352.731C113.556 352.731 114.909 351.378 114.909 349.709V323.754Z" fill="white" fill-opacity="0.88"/>
<path d="M114.909 387.754C114.909 386.085 113.556 384.732 111.886 384.732C110.217 384.732 108.864 386.085 108.864 387.754V413.709C108.864 415.378 110.217 416.731 111.886 416.731C113.556 416.731 114.909 415.378 114.909 413.709V387.754Z" fill="white" fill-opacity="0.88"/>
<path d="M114.909 451.754C114.909 450.085 113.556 448.732 111.886 448.732C110.217 448.732 108.864 450.085 108.864 451.754V477.709C108.864 479.378 110.217 480.731 111.886 480.731C113.556 480.731 114.909 479.378 114.909 477.709V451.754Z" fill="white" fill-opacity="0.88"/>
<path d="M114.909 515.754C114.909 514.085 113.556 512.732 111.886 512.732C110.217 512.732 108.864 514.085 108.864 515.754V541.709C108.864 543.378 110.217 544.731 111.886 544.731C113.556 544.731 114.909 543.378 114.909 541.709V515.754Z" fill="white" fill-opacity="0.88"/>
<path d="M3.06818 128.731C1.39877 128.731 0.0454426 130.085 0.0454426 131.754L0.0454426 157.709C0.0454426 159.378 1.39877 160.731 3.06818 160.731C4.73759 160.731 6.09091 159.378 6.09091 157.709L6.09091 131.754C6.09091 130.085 4.73759 128.731 3.06818 128.731Z" fill="white" fill-opacity="0.88"/>
<path d="M15.1591 128.731C13.4897 128.731 12.1364 130.085 12.1364 131.754V157.709C12.1364 159.378 13.4897 160.731 15.1591 160.731C16.8285 160.731 18.1818 159.378 18.1818 157.709V131.754C18.1818 130.085 16.8285 128.731 15.1591 128.731Z" fill="white" fill-opacity="0.88"/>
<path d="M27.25 128.731C25.5806 128.731 24.2273 130.085 24.2273 131.754V157.709C24.2273 159.378 25.5806 160.731 27.25 160.731C28.9194 160.731 30.2727 159.378 30.2727 157.709L30.2727 131.754C30.2727 130.085 28.9194 128.731 27.25 128.731Z" fill="white" fill-opacity="0.88"/>
<path d="M39.3409 128.731C37.6715 128.731 36.3182 130.085 36.3182 131.754L36.3182 157.709C36.3182 159.378 37.6715 160.731 39.3409 160.731C41.0103 160.731 42.3636 159.378 42.3636 157.709L42.3636 131.754C42.3636 130.085 41.0103 128.731 39.3409 128.731Z" fill="white" fill-opacity="0.88"/>
<path d="M51.4318 128.731C49.7624 128.731 48.4091 130.085 48.4091 131.754L48.4091 157.709C48.4091 159.378 49.7624 160.731 51.4318 160.731C53.1012 160.731 54.4545 159.378 54.4545 157.709L54.4545 131.754C54.4545 130.085 53.1012 128.731 51.4318 128.731Z" fill="white" fill-opacity="0.88"/>
<path d="M63.5227 128.731C61.8533 128.731 60.5 130.085 60.5 131.754V157.709C60.5 159.378 61.8533 160.731 63.5227 160.731C65.1921 160.731 66.5455 159.378 66.5455 157.709V131.754C66.5455 130.085 65.1921 128.731 63.5227 128.731Z" fill="white" fill-opacity="0.88"/>
<path d="M75.6136 128.731C73.9442 128.731 72.5909 130.085 72.5909 131.754V157.709C72.5909 159.378 73.9442 160.731 75.6136 160.731C77.283 160.731 78.6363 159.378 78.6363 157.709V131.754C78.6363 130.085 77.283 128.731 75.6136 128.731Z" fill="white" fill-opacity="0.88"/>
<path d="M87.7045 128.731C86.0351 128.731 84.6818 130.085 84.6818 131.754V157.709C84.6818 159.378 86.0351 160.731 87.7045 160.731C89.3739 160.731 90.7272 159.378 90.7272 157.709V131.754C90.7272 130.085 89.3739 128.731 87.7045 128.731Z" fill="white" fill-opacity="0.88"/>
<path d="M99.7954 128.731C98.126 128.731 96.7727 130.085 96.7727 131.754V157.709C96.7727 159.378 98.126 160.731 99.7954 160.731C101.465 160.731 102.818 159.378 102.818 157.709V131.754C102.818 130.085 101.465 128.731 99.7954 128.731Z" fill="white" fill-opacity="0.88"/>
<path d="M102.818 195.754C102.818 194.085 101.465 192.731 99.7954 192.731C98.126 192.731 96.7727 194.085 96.7727 195.754L96.7727 221.709C96.7727 223.378 98.126 224.731 99.7954 224.731C101.465 224.731 102.818 223.378 102.818 221.709L102.818 195.754Z" fill="white" fill-opacity="0.88"/>
<path d="M102.818 259.754C102.818 258.085 101.465 256.731 99.7954 256.731C98.126 256.731 96.7727 258.085 96.7727 259.754V285.709C96.7727 287.378 98.126 288.731 99.7954 288.731C101.465 288.731 102.818 287.378 102.818 285.709V259.754Z" fill="white" fill-opacity="0.88"/>
<path d="M102.818 323.754C102.818 322.085 101.465 320.731 99.7954 320.731C98.126 320.731 96.7727 322.085 96.7727 323.754V349.709C96.7727 351.378 98.126 352.731 99.7954 352.731C101.465 352.731 102.818 351.378 102.818 349.709V323.754Z" fill="white" fill-opacity="0.88"/>
<path d="M102.818 387.754C102.818 386.085 101.465 384.732 99.7954 384.732C98.126 384.732 96.7727 386.085 96.7727 387.754V413.709C96.7727 415.378 98.126 416.731 99.7954 416.731C101.465 416.731 102.818 415.378 102.818 413.709V387.754Z" fill="white" fill-opacity="0.88"/>
<path d="M102.818 451.754C102.818 450.085 101.465 448.732 99.7954 448.732C98.126 448.732 96.7727 450.085 96.7727 451.754V477.709C96.7727 479.378 98.126 480.731 99.7954 480.731C101.465 480.731 102.818 479.378 102.818 477.709V451.754Z" fill="white" fill-opacity="0.88"/>
<path d="M102.818 515.754C102.818 514.085 101.465 512.732 99.7954 512.732C98.126 512.732 96.7727 514.085 96.7727 515.754V541.709C96.7727 543.378 98.126 544.731 99.7954 544.731C101.465 544.731 102.818 543.378 102.818 541.709V515.754Z" fill="white" fill-opacity="0.88"/>
<path d="M3.06818 192.731C1.39877 192.731 0.0454426 194.085 0.0454426 195.754L0.0454426 221.709C0.0454426 223.378 1.39877 224.731 3.06818 224.731C4.73759 224.731 6.09091 223.378 6.09091 221.709L6.09091 195.754C6.09091 194.085 4.73759 192.731 3.06818 192.731Z" fill="white" fill-opacity="0.88"/>
<path d="M15.1591 192.731C13.4897 192.731 12.1364 194.085 12.1364 195.754V221.709C12.1364 223.378 13.4897 224.731 15.1591 224.731C16.8285 224.731 18.1818 223.378 18.1818 221.709V195.754C18.1818 194.085 16.8285 192.731 15.1591 192.731Z" fill="white" fill-opacity="0.88"/>
<path d="M27.25 192.731C25.5806 192.731 24.2273 194.085 24.2273 195.754V221.709C24.2273 223.378 25.5806 224.731 27.25 224.731C28.9194 224.731 30.2727 223.378 30.2727 221.709V195.754C30.2727 194.085 28.9194 192.731 27.25 192.731Z" fill="white" fill-opacity="0.88"/>
<path d="M39.3409 192.731C37.6715 192.731 36.3182 194.085 36.3182 195.754V221.709C36.3182 223.378 37.6715 224.731 39.3409 224.731C41.0103 224.731 42.3636 223.378 42.3636 221.709V195.754C42.3636 194.085 41.0103 192.731 39.3409 192.731Z" fill="white" fill-opacity="0.88"/>
<path d="M51.4318 192.731C49.7624 192.731 48.4091 194.085 48.4091 195.754V221.709C48.4091 223.378 49.7624 224.731 51.4318 224.731C53.1012 224.731 54.4545 223.378 54.4545 221.709V195.754C54.4545 194.085 53.1012 192.731 51.4318 192.731Z" fill="white" fill-opacity="0.88"/>
<path d="M63.5227 192.731C61.8533 192.731 60.5 194.085 60.5 195.754L60.5 221.709C60.5 223.378 61.8533 224.731 63.5227 224.731C65.1921 224.731 66.5455 223.378 66.5455 221.709L66.5455 195.754C66.5455 194.085 65.1921 192.731 63.5227 192.731Z" fill="white" fill-opacity="0.88"/>
<path d="M75.6136 192.731C73.9442 192.731 72.5909 194.085 72.5909 195.754L72.5909 221.709C72.5909 223.378 73.9442 224.731 75.6136 224.731C77.283 224.731 78.6363 223.378 78.6363 221.709L78.6363 195.754C78.6363 194.085 77.283 192.731 75.6136 192.731Z" fill="white" fill-opacity="0.88"/>
<path d="M87.7045 192.731C86.0351 192.731 84.6818 194.085 84.6818 195.754L84.6818 221.709C84.6818 223.378 86.0351 224.731 87.7045 224.731C89.3739 224.731 90.7272 223.378 90.7272 221.709L90.7272 195.754C90.7272 194.085 89.3739 192.731 87.7045 192.731Z" fill="white" fill-opacity="0.88"/>
<path d="M90.7272 259.754C90.7272 258.085 89.3739 256.731 87.7045 256.731C86.0351 256.731 84.6818 258.085 84.6818 259.754V285.709C84.6818 287.378 86.0351 288.731 87.7045 288.731C89.3739 288.731 90.7272 287.378 90.7272 285.709V259.754Z" fill="white" fill-opacity="0.88"/>
<path d="M90.7272 323.754C90.7272 322.085 89.3739 320.731 87.7045 320.731C86.0351 320.731 84.6818 322.085 84.6818 323.754V349.709C84.6818 351.378 86.0351 352.731 87.7045 352.731C89.3739 352.731 90.7272 351.378 90.7272 349.709V323.754Z" fill="white" fill-opacity="0.88"/>
<path d="M90.7272 387.754C90.7272 386.085 89.3739 384.732 87.7045 384.732C86.0351 384.732 84.6818 386.085 84.6818 387.754V413.709C84.6818 415.378 86.0351 416.731 87.7045 416.731C89.3739 416.731 90.7272 415.378 90.7272 413.709V387.754Z" fill="white" fill-opacity="0.88"/>
<path d="M90.7272 451.754C90.7272 450.085 89.3739 448.732 87.7045 448.732C86.0351 448.732 84.6818 450.085 84.6818 451.754V477.709C84.6818 479.378 86.0351 480.731 87.7045 480.731C89.3739 480.731 90.7272 479.378 90.7272 477.709V451.754Z" fill="white" fill-opacity="0.88"/>
<path d="M90.7272 515.754C90.7272 514.085 89.3739 512.732 87.7045 512.732C86.0351 512.732 84.6818 514.085 84.6818 515.754V541.709C84.6818 543.378 86.0351 544.731 87.7045 544.731C89.3739 544.731 90.7272 543.378 90.7272 541.709V515.754Z" fill="white" fill-opacity="0.88"/>
<path d="M3.06818 256.731C1.39877 256.731 0.0454426 258.085 0.0454426 259.754L0.0454426 285.709C0.0454426 287.378 1.39877 288.731 3.06818 288.731C4.73759 288.731 6.09091 287.378 6.09091 285.709L6.09091 259.754C6.09091 258.085 4.73759 256.731 3.06818 256.731Z" fill="white" fill-opacity="0.88"/>
<path d="M15.1591 256.731C13.4897 256.731 12.1364 258.085 12.1364 259.754L12.1364 285.709C12.1364 287.378 13.4897 288.731 15.1591 288.731C16.8285 288.731 18.1818 287.378 18.1818 285.709L18.1818 259.754C18.1818 258.085 16.8285 256.731 15.1591 256.731Z" fill="white" fill-opacity="0.88"/>
<path d="M27.25 256.731C25.5806 256.731 24.2273 258.085 24.2273 259.754L24.2273 285.709C24.2273 287.378 25.5806 288.731 27.25 288.731C28.9194 288.731 30.2727 287.378 30.2727 285.709V259.754C30.2727 258.085 28.9194 256.731 27.25 256.731Z" fill="white" fill-opacity="0.88"/>
<path d="M39.3409 256.731C37.6715 256.731 36.3182 258.085 36.3182 259.754V285.709C36.3182 287.378 37.6715 288.731 39.3409 288.731C41.0103 288.731 42.3636 287.378 42.3636 285.709V259.754C42.3636 258.085 41.0103 256.731 39.3409 256.731Z" fill="white" fill-opacity="0.88"/>
<path d="M51.4318 256.731C49.7624 256.731 48.4091 258.085 48.4091 259.754V285.709C48.4091 287.378 49.7624 288.731 51.4318 288.731C53.1012 288.731 54.4545 287.378 54.4545 285.709V259.754C54.4545 258.085 53.1012 256.731 51.4318 256.731Z" fill="white" fill-opacity="0.88"/>
<path d="M63.5227 256.731C61.8533 256.731 60.5 258.085 60.5 259.754V285.709C60.5 287.378 61.8533 288.731 63.5227 288.731C65.1921 288.731 66.5455 287.378 66.5455 285.709V259.754C66.5455 258.085 65.1921 256.731 63.5227 256.731Z" fill="white" fill-opacity="0.88"/>
<path d="M75.6136 256.731C73.9442 256.731 72.5909 258.085 72.5909 259.754V285.709C72.5909 287.378 73.9442 288.731 75.6136 288.731C77.283 288.731 78.6363 287.378 78.6363 285.709V259.754C78.6363 258.085 77.283 256.731 75.6136 256.731Z" fill="white" fill-opacity="0.88"/>
<path d="M78.6363 323.754C78.6363 322.085 77.283 320.731 75.6136 320.731C73.9442 320.731 72.5909 322.085 72.5909 323.754V349.709C72.5909 351.378 73.9442 352.731 75.6136 352.731C77.283 352.731 78.6363 351.378 78.6363 349.709V323.754Z" fill="white" fill-opacity="0.88"/>
<path d="M78.6363 387.754C78.6363 386.085 77.283 384.732 75.6136 384.732C73.9442 384.732 72.5909 386.085 72.5909 387.754V413.709C72.5909 415.378 73.9442 416.731 75.6136 416.731C77.283 416.731 78.6363 415.378 78.6363 413.709V387.754Z" fill="white" fill-opacity="0.88"/>
<path d="M78.6363 451.754C78.6363 450.085 77.283 448.732 75.6136 448.732C73.9442 448.732 72.5909 450.085 72.5909 451.754V477.709C72.5909 479.378 73.9442 480.731 75.6136 480.731C77.283 480.731 78.6363 479.378 78.6363 477.709V451.754Z" fill="white" fill-opacity="0.88"/>
<path d="M78.6363 515.754C78.6363 514.085 77.283 512.732 75.6136 512.732C73.9442 512.732 72.5909 514.085 72.5909 515.754V541.709C72.5909 543.378 73.9442 544.731 75.6136 544.731C77.283 544.731 78.6363 543.378 78.6363 541.709V515.754Z" fill="white" fill-opacity="0.88"/>
<path d="M3.06818 320.731C1.39877 320.731 0.0454426 322.085 0.0454426 323.754L0.0454426 349.709C0.0454426 351.378 1.39877 352.731 3.06818 352.731C4.73759 352.731 6.09091 351.378 6.09091 349.709L6.09091 323.754C6.09091 322.085 4.73759 320.731 3.06818 320.731Z" fill="white" fill-opacity="0.88"/>
<path d="M15.1591 320.731C13.4897 320.731 12.1364 322.085 12.1364 323.754L12.1364 349.709C12.1364 351.378 13.4897 352.731 15.1591 352.731C16.8285 352.731 18.1818 351.378 18.1818 349.709L18.1818 323.754C18.1818 322.085 16.8285 320.731 15.1591 320.731Z" fill="white" fill-opacity="0.88"/>
<path d="M27.25 320.731C25.5806 320.731 24.2273 322.085 24.2273 323.754L24.2273 349.709C24.2273 351.378 25.5806 352.731 27.25 352.731C28.9194 352.731 30.2727 351.378 30.2727 349.709V323.754C30.2727 322.085 28.9194 320.731 27.25 320.731Z" fill="white" fill-opacity="0.88"/>
<path d="M39.3409 320.731C37.6715 320.731 36.3182 322.085 36.3182 323.754V349.709C36.3182 351.378 37.6715 352.731 39.3409 352.731C41.0103 352.731 42.3636 351.378 42.3636 349.709V323.754C42.3636 322.085 41.0103 320.731 39.3409 320.731Z" fill="white" fill-opacity="0.88"/>
<path d="M51.4318 320.731C49.7624 320.731 48.4091 322.085 48.4091 323.754V349.709C48.4091 351.378 49.7624 352.731 51.4318 352.731C53.1012 352.731 54.4545 351.378 54.4545 349.709V323.754C54.4545 322.085 53.1012 320.731 51.4318 320.731Z" fill="white" fill-opacity="0.88"/>
<path d="M63.5227 320.731C61.8533 320.731 60.5 322.085 60.5 323.754V349.709C60.5 351.378 61.8533 352.731 63.5227 352.731C65.1921 352.731 66.5455 351.378 66.5455 349.709V323.754C66.5455 322.085 65.1921 320.731 63.5227 320.731Z" fill="white" fill-opacity="0.88"/>
<path d="M66.5455 387.754C66.5455 386.085 65.1921 384.732 63.5227 384.732C61.8533 384.732 60.5 386.085 60.5 387.754V413.709C60.5 415.378 61.8533 416.731 63.5227 416.731C65.1921 416.731 66.5455 415.378 66.5455 413.709V387.754Z" fill="white" fill-opacity="0.88"/>
<path d="M66.5455 451.754C66.5455 450.085 65.1921 448.732 63.5227 448.732C61.8533 448.732 60.5 450.085 60.5 451.754V477.709C60.5 479.378 61.8533 480.731 63.5227 480.731C65.1921 480.731 66.5455 479.378 66.5455 477.709V451.754Z" fill="white" fill-opacity="0.88"/>
<path d="M66.5455 515.754C66.5455 514.085 65.1921 512.732 63.5227 512.732C61.8533 512.732 60.5 514.085 60.5 515.754V541.709C60.5 543.378 61.8533 544.731 63.5227 544.731C65.1921 544.731 66.5455 543.378 66.5455 541.709V515.754Z" fill="white" fill-opacity="0.88"/>
<path d="M3.06818 384.732C1.39877 384.732 0.0454426 386.085 0.0454426 387.754L0.0454426 413.709C0.0454426 415.378 1.39877 416.731 3.06818 416.731C4.73759 416.731 6.09091 415.378 6.09091 413.709V387.754C6.09091 386.085 4.73759 384.732 3.06818 384.732Z" fill="white" fill-opacity="0.88"/>
<path d="M15.1591 384.732C13.4897 384.732 12.1364 386.085 12.1364 387.754L12.1364 413.709C12.1364 415.378 13.4897 416.731 15.1591 416.731C16.8285 416.731 18.1818 415.378 18.1818 413.709L18.1818 387.754C18.1818 386.085 16.8285 384.732 15.1591 384.732Z" fill="white" fill-opacity="0.88"/>
<path d="M27.25 384.732C25.5806 384.732 24.2273 386.085 24.2273 387.754L24.2273 413.709C24.2273 415.378 25.5806 416.731 27.25 416.731C28.9194 416.731 30.2727 415.378 30.2727 413.709V387.754C30.2727 386.085 28.9194 384.732 27.25 384.732Z" fill="white" fill-opacity="0.88"/>
<path d="M39.3409 384.732C37.6715 384.732 36.3182 386.085 36.3182 387.754V413.709C36.3182 415.378 37.6715 416.731 39.3409 416.731C41.0103 416.731 42.3636 415.378 42.3636 413.709V387.754C42.3636 386.085 41.0103 384.732 39.3409 384.732Z" fill="white" fill-opacity="0.88"/>
<path d="M51.4318 384.732C49.7624 384.732 48.4091 386.085 48.4091 387.754V413.709C48.4091 415.378 49.7624 416.731 51.4318 416.731C53.1012 416.731 54.4545 415.378 54.4545 413.709V387.754C54.4545 386.085 53.1012 384.732 51.4318 384.732Z" fill="white" fill-opacity="0.88"/>
<path d="M54.4545 451.754C54.4545 450.085 53.1012 448.732 51.4318 448.732C49.7624 448.732 48.4091 450.085 48.4091 451.754V477.709C48.4091 479.378 49.7624 480.731 51.4318 480.731C53.1012 480.731 54.4545 479.378 54.4545 477.709V451.754Z" fill="white" fill-opacity="0.88"/>
<path d="M54.4545 515.754C54.4545 514.085 53.1012 512.732 51.4318 512.732C49.7624 512.732 48.4091 514.085 48.4091 515.754V541.709C48.4091 543.378 49.7624 544.731 51.4318 544.731C53.1012 544.731 54.4545 543.378 54.4545 541.709V515.754Z" fill="white" fill-opacity="0.88"/>
<path d="M3.06818 448.732C1.39877 448.732 0.0454426 450.085 0.0454426 451.754L0.0454426 477.709C0.0454426 479.378 1.39877 480.731 3.06818 480.731C4.73759 480.731 6.09091 479.378 6.09091 477.709L6.09091 451.754C6.09091 450.085 4.73759 448.732 3.06818 448.732Z" fill="white" fill-opacity="0.88"/>
<path d="M15.1591 448.732C13.4897 448.732 12.1364 450.085 12.1364 451.754L12.1364 477.709C12.1364 479.378 13.4897 480.731 15.1591 480.731C16.8285 480.731 18.1818 479.378 18.1818 477.709L18.1818 451.754C18.1818 450.085 16.8285 448.732 15.1591 448.732Z" fill="white" fill-opacity="0.88"/>
<path d="M27.25 448.732C25.5806 448.732 24.2273 450.085 24.2273 451.754L24.2273 477.709C24.2273 479.378 25.5806 480.731 27.25 480.731C28.9194 480.731 30.2727 479.378 30.2727 477.709V451.754C30.2727 450.085 28.9194 448.732 27.25 448.732Z" fill="white" fill-opacity="0.88"/>
<path d="M39.3409 448.732C37.6715 448.732 36.3182 450.085 36.3182 451.754V477.709C36.3182 479.378 37.6715 480.731 39.3409 480.731C41.0103 480.731 42.3636 479.378 42.3636 477.709V451.754C42.3636 450.085 41.0103 448.732 39.3409 448.732Z" fill="white" fill-opacity="0.88"/>
<path d="M42.3636 515.754C42.3636 514.085 41.0103 512.732 39.3409 512.732C37.6715 512.732 36.3182 514.085 36.3182 515.754V541.709C36.3182 543.378 37.6715 544.731 39.3409 544.731C41.0103 544.731 42.3636 543.378 42.3636 541.709V515.754Z" fill="white" fill-opacity="0.88"/>
<path d="M3.06818 512.732C1.39877 512.732 0.0454426 514.085 0.0454426 515.754L0.0454426 541.709C0.0454426 543.378 1.39877 544.731 3.06818 544.731C4.73759 544.731 6.09091 543.378 6.09091 541.709L6.09091 515.754C6.09091 514.085 4.73759 512.732 3.06818 512.732Z" fill="white" fill-opacity="0.88"/>
<path d="M15.1591 512.732C13.4897 512.732 12.1364 514.085 12.1364 515.754V541.709C12.1364 543.378 13.4897 544.731 15.1591 544.731C16.8285 544.731 18.1818 543.378 18.1818 541.709V515.754C18.1818 514.085 16.8285 512.732 15.1591 512.732Z" fill="white" fill-opacity="0.88"/>
<path d="M27.25 512.732C25.5806 512.732 24.2273 514.085 24.2273 515.754V541.709C24.2273 543.378 25.5806 544.731 27.25 544.731C28.9194 544.731 30.2727 543.378 30.2727 541.709V515.754C30.2727 514.085 28.9194 512.732 27.25 512.732Z" fill="white" fill-opacity="0.88"/>
</svg>
