<svg width="13" height="13" viewBox="0 0 13 13" fill="none" xmlns="http://www.w3.org/2000/svg">
<path opacity="0.5" d="M5.69808 0.968675C5.85572 0.602619 6.37473 0.602618 6.53237 0.968675L7.89668 4.13683C7.96223 4.28904 8.10548 4.39347 8.27044 4.40929L11.6898 4.73739C12.0845 4.77527 12.2445 5.26541 11.9482 5.52891L9.36891 7.82218C9.24588 7.93156 9.19168 8.09895 9.22723 8.25968L9.97454 11.6382C10.0605 12.0266 9.64093 12.33 9.29899 12.1267L6.34732 10.372C6.20427 10.2869 6.02618 10.2869 5.88314 10.372L2.93146 12.1267C2.58952 12.33 2.17 12.0266 2.25591 11.6382L3.00322 8.25968C3.03877 8.09895 2.98457 7.93156 2.86154 7.82218L0.282276 5.52891C-0.0140905 5.26541 0.145921 4.77527 0.540678 4.73739L3.96001 4.40929C4.12498 4.39347 4.26822 4.28904 4.33377 4.13683L5.69808 0.968675Z" fill="#ffffff"/>
</svg>
