<svg width="13" height="13" viewBox="0 0 13 13" fill="none" xmlns="http://www.w3.org/2000/svg">
<path d="M6.20101 0.968676C6.35864 0.602619 6.87766 0.602619 7.03529 0.968676L8.3996 4.13683C8.46515 4.28904 8.6084 4.39347 8.77337 4.40929L12.1927 4.73739C12.5875 4.77527 12.7475 5.26541 12.4511 5.52891L9.87183 7.82218C9.74881 7.93156 9.6946 8.09895 9.73015 8.25968L10.4775 11.6382C10.5634 12.0266 10.1438 12.33 9.80191 12.1267L6.85024 10.372C6.7072 10.2869 6.5291 10.2869 6.38606 10.372L3.43439 12.1267C3.09245 12.33 2.67293 12.0266 2.75884 11.6382L3.50615 8.25968C3.5417 8.09895 3.4875 7.93156 3.36447 7.82218L0.785205 5.52891C0.488838 5.26541 0.64885 4.77527 1.04361 4.73739L4.46293 4.40929C4.6279 4.39347 4.77115 4.28904 4.8367 4.13683L6.20101 0.968676Z" fill="#FD872D"/>
</svg>
